MateSC-Regular.otf.ufo
<glyph name="quotedbl" format="1">
  <advance width="300"/>
  <unicode hex="0022"/>
  <outline>
    <contour>
      <point x="102" y="474" type="line" name="hr00"/>
      <point x="112" y="511" smooth="yes"/>
      <point x="125" y="618" smooth="yes"/>
      <point x="125" y="699" type="curve" smooth="yes"/>
      <point x="125" y="707" smooth="yes"/>
      <point x="106" y="712" smooth="yes"/>
      <point x="87" y="712" type="curve" smooth="yes"/>
      <point x="69" y="712" smooth="yes"/>
      <point x="50" y="707" smooth="yes"/>
      <point x="50" y="699" type="curve" smooth="yes"/>
      <point x="50" y="618"/>
      <point x="65" y="511"/>
      <point x="75" y="474" type="curve"/>
    </contour>
    <contour>
      <point x="227" y="474" type="line"/>
      <point x="237" y="511" smooth="yes"/>
      <point x="250" y="618" smooth="yes"/>
      <point x="250" y="699" type="curve" smooth="yes"/>
      <point x="250" y="707" smooth="yes"/>
      <point x="231" y="712" smooth="yes"/>
      <point x="212" y="712" type="curve" smooth="yes"/>
      <point x="194" y="712" smooth="yes"/>
      <point x="175" y="707" smooth="yes"/>
      <point x="175" y="699" type="curve" smooth="yes"/>
      <point x="175" y="618"/>
      <point x="190" y="511"/>
      <point x="200" y="474" type="curve"/>
    </contour>
  </outline>
</glyph>
<glyph name="dollar" format="1">
  <advance width="510"/>
  <unicode hex="0024"/>
  <outline>
    <contour>
      <point x="247" y="-88" type="line" name="hr00"/>
      <point x="252" y="-12" type="line"/>
      <point x="360" y="-11" smooth="yes"/>
      <point x="441" y="40" smooth="yes"/>
      <point x="441" y="135" type="curve" smooth="yes"/>
      <point x="441" y="180" smooth="yes"/>
      <point x="410" y="236" smooth="yes"/>
      <point x="347" y="271" type="curve" smooth="yes"/>
      <point x="274" y="312" type="line"/>
      <point x="288" y="508" type="line"/>
      <point x="310" y="505"/>
      <point x="334" y="498"/>
      <point x="353" y="487" type="curve"/>
      <point x="349" y="414" type="line"/>
      <point x="349" y="402" smooth="yes"/>
      <point x="382" y="398" smooth="yes"/>
      <point x="389" y="398" type="curve" smooth="yes"/>
      <point x="390" y="398"/>
      <point x="416" y="510"/>
      <point x="418" y="524" type="curve"/>
      <point x="378" y="545"/>
      <point x="334" y="558"/>
      <point x="291" y="561" type="curve"/>
      <point x="296" y="627" type="line"/>
      <point x="256" y="627" type="line"/>
      <point x="251" y="561" type="line"/>
      <point x="147" y="553" smooth="yes"/>
      <point x="88" y="484" smooth="yes"/>
      <point x="88" y="413" type="curve" smooth="yes"/>
      <point x="88" y="364" smooth="yes"/>
      <point x="115" y="314" smooth="yes"/>
      <point x="171" y="282" type="curve" smooth="yes"/>
      <point x="230" y="248" type="line"/>
      <point x="216" y="42" type="line"/>
      <point x="189" y="46"/>
      <point x="159" y="54"/>
      <point x="138" y="65" type="curve"/>
      <point x="138" y="138" type="line" smooth="yes"/>
      <point x="138" y="150" smooth="yes"/>
      <point x="104" y="154" smooth="yes"/>
      <point x="97" y="154" type="curve" smooth="yes"/>
      <point x="96" y="154"/>
      <point x="77" y="42"/>
      <point x="76" y="28" type="curve"/>
      <point x="126" y="7"/>
      <point x="171" y="-5"/>
      <point x="212" y="-10" type="curve"/>
      <point x="207" y="-88" type="line"/>
    </contour>
    <contour>
      <point x="308" y="203" type="line" smooth="yes"/>
      <point x="343" y="183" smooth="yes"/>
      <point x="360" y="152" smooth="yes"/>
      <point x="360" y="123" type="curve" smooth="yes"/>
      <point x="360" y="79"/>
      <point x="323" y="39"/>
      <point x="256" y="39" type="curve"/>
      <point x="268" y="226" type="line"/>
    </contour>
    <contour>
      <point x="159" y="428" type="curve" smooth="yes"/>
      <point x="159" y="476"/>
      <point x="195" y="503"/>
      <point x="248" y="508" type="curve"/>
      <point x="236" y="334" type="line"/>
      <point x="213" y="347" type="line" smooth="yes"/>
      <point x="187" y="362" smooth="yes"/>
      <point x="159" y="386" smooth="yes"/>
    </contour>
  </outline>
</glyph>
<glyph name="ampersand" format="1">
  <advance width="580"/>
  <unicode hex="0026"/>
  <outline>
    <contour>
      <point x="230" y="611" type="curve"/>
      <point x="258" y="623" smooth="yes"/>
      <point x="288" y="628" smooth="yes"/>
      <point x="319" y="628" type="curve" smooth="yes"/>
      <point x="352" y="628"/>
      <point x="386" y="621"/>
      <point x="417" y="610" type="curve"/>
      <point x="417" y="506" type="line" smooth="yes"/>
      <point x="417" y="492"/>
      <point x="454" y="492"/>
      <point x="462" y="492" type="curve"/>
      <point x="488" y="641" type="line"/>
      <point x="438" y="664" smooth="yes"/>
      <point x="371" y="681" smooth="yes"/>
      <point x="309" y="681" type="curve" smooth="yes"/>
      <point x="212" y="681" smooth="yes"/>
      <point x="133" y="641" smooth="yes"/>
      <point x="133" y="525" type="curve" smooth="yes"/>
      <point x="133" y="481"/>
      <point x="157" y="431"/>
      <point x="182" y="390" type="curve"/>
      <point x="152" y="373" type="line" smooth="yes"/>
      <point x="55" y="318" smooth="yes"/>
      <point x="7" y="232" smooth="yes"/>
      <point x="7" y="155" type="curve" smooth="yes"/>
      <point x="7" y="65" smooth="yes"/>
      <point x="74" y="-13" smooth="yes"/>
      <point x="208" y="-13" type="curve" smooth="yes"/>
      <point x="279" y="-13"/>
      <point x="341" y="19"/>
      <point x="391" y="68" type="curve"/>
      <point x="436" y="0" type="line" name="hr01"/>
      <point x="564" y="0" type="line" smooth="yes"/>
      <point x="580" y="0"/>
      <point x="580" y="24"/>
      <point x="580" y="31" type="curve"/>
      <point x="496" y="55" type="line"/>
      <point x="446" y="131" type="line"/>
      <point x="499" y="207"/>
      <point x="531" y="297"/>
      <point x="539" y="367" type="curve"/>
      <point x="525" y="374" smooth="yes"/>
      <point x="416" y="407" smooth="yes"/>
      <point x="409" y="407" type="curve" smooth="yes"/>
      <point x="407" y="407" smooth="yes"/>
      <point x="398" y="384" smooth="yes"/>
      <point x="398" y="374" type="curve" smooth="yes"/>
      <point x="398" y="369" smooth="yes"/>
      <point x="399" y="365" smooth="yes"/>
      <point x="403" y="363" type="curve" smooth="yes"/>
      <point x="471" y="328" type="line"/>
      <point x="469" y="285"/>
      <point x="450" y="228"/>
      <point x="416" y="176" type="curve"/>
      <point x="249" y="433" type="line" smooth="yes"/>
      <point x="225" y="469" smooth="yes"/>
      <point x="210" y="506" smooth="yes"/>
      <point x="210" y="543" type="curve" smooth="yes"/>
      <point x="210" y="566"/>
      <point x="216" y="589"/>
    </contour>
    <contour>
      <point x="215" y="45" type="curve" smooth="yes" name="hr02"/>
      <point x="130" y="45" smooth="yes"/>
      <point x="83" y="109" smooth="yes"/>
      <point x="83" y="180" type="curve" smooth="yes"/>
      <point x="83" y="234" smooth="yes"/>
      <point x="111" y="292" smooth="yes"/>
      <point x="169" y="329" type="curve" smooth="yes"/>
      <point x="206" y="353" type="line"/>
      <point x="363" y="111" type="line"/>
      <point x="322" y="72" smooth="yes"/>
      <point x="271" y="45" smooth="yes"/>
    </contour>
  </outline>
</glyph>
<glyph name="parenleft" format="1">
  <advance width="247"/>
  <unicode hex="0028"/>
  <outline>
    <contour>
      <point x="229" y="-237" type="line" name="hr00"/>
      <point x="166" y="-132" smooth="yes"/>
      <point x="125" y="52" smooth="yes"/>
      <point x="125" y="214" type="curve" smooth="yes"/>
      <point x="125" y="382"/>
      <point x="166" y="594"/>
      <point x="270" y="716" type="curve"/>
      <point x="243" y="728" type="line"/>
      <point x="112" y="614" smooth="yes"/>
      <point x="44" y="411" smooth="yes"/>
      <point x="44" y="214" type="curve" smooth="yes"/>
      <point x="44" y="44"/>
      <point x="97" y="-131"/>
      <point x="198" y="-241" type="curve"/>
    </contour>
  </outline>
</glyph>
<glyph name="parenright" format="1">
  <advance width="247"/>
  <unicode hex="0029"/>
  <outline>
    <contour>
      <point x="18" y="724" type="line" name="hr00"/>
      <point x="81" y="619" smooth="yes"/>
      <point x="122" y="435" smooth="yes"/>
      <point x="122" y="273" type="curve" smooth="yes"/>
      <point x="122" y="105"/>
      <point x="81" y="-107"/>
      <point x="-23" y="-229" type="curve"/>
      <point x="4" y="-241" type="line"/>
      <point x="135" y="-127" smooth="yes"/>
      <point x="203" y="76" smooth="yes"/>
      <point x="203" y="273" type="curve" smooth="yes"/>
      <point x="203" y="443"/>
      <point x="150" y="618"/>
      <point x="49" y="728" type="curve"/>
    </contour>
  </outline>
</glyph>
<glyph name="asterisk" format="1">
  <advance width="449"/>
  <unicode hex="002A"/>
  <outline>
    <contour>
      <point x="239" y="551" type="line"/>
      <point x="249" y="575" smooth="yes"/>
      <point x="263" y="648" smooth="yes"/>
      <point x="263" y="700" type="curve" smooth="yes"/>
      <point x="263" y="708" smooth="yes"/>
      <point x="242" y="712" smooth="yes"/>
      <point x="223" y="712" type="curve" smooth="yes"/>
      <point x="204" y="712" smooth="yes"/>
      <point x="183" y="708" smooth="yes"/>
      <point x="183" y="700" type="curve" smooth="yes"/>
      <point x="183" y="647"/>
      <point x="199" y="575"/>
      <point x="209" y="551" type="curve"/>
    </contour>
    <contour>
      <point x="203" y="545" type="line"/>
      <point x="183" y="562" smooth="yes"/>
      <point x="86" y="614" smooth="yes"/>
      <point x="68" y="614" type="curve" smooth="yes"/>
      <point x="51" y="614" smooth="yes"/>
      <point x="39" y="562" smooth="yes"/>
      <point x="39" y="546" type="curve" smooth="yes"/>
      <point x="39" y="526"/>
      <point x="166" y="516"/>
      <point x="193" y="516" type="curve"/>
    </contour>
    <contour>
      <point x="197" y="509" type="line"/>
      <point x="175" y="495" smooth="yes"/>
      <point x="121" y="444" smooth="yes"/>
      <point x="90" y="402" type="curve" smooth="yes"/>
      <point x="89" y="401" smooth="yes"/>
      <point x="89" y="400" smooth="yes"/>
      <point x="89" y="399" type="curve" smooth="yes"/>
      <point x="89" y="385" smooth="yes"/>
      <point x="132" y="353" smooth="yes"/>
      <point x="150" y="353" type="curve" smooth="yes"/>
      <point x="152" y="353" smooth="yes"/>
      <point x="154" y="354" smooth="yes"/>
      <point x="155" y="355" type="curve" smooth="yes"/>
      <point x="186" y="398"/>
      <point x="216" y="466"/>
      <point x="222" y="490" type="curve"/>
    </contour>
    <contour>
      <point x="230" y="492" type="line"/>
      <point x="236" y="467" smooth="yes"/>
      <point x="268" y="400" smooth="yes"/>
      <point x="298" y="357" type="curve" smooth="yes"/>
      <point x="299" y="356" smooth="yes"/>
      <point x="301" y="355" smooth="yes"/>
      <point x="303" y="355" type="curve" smooth="yes"/>
      <point x="319" y="355" smooth="yes"/>
      <point x="364" y="387" smooth="yes"/>
      <point x="364" y="402" type="curve" smooth="yes"/>
      <point x="364" y="403" smooth="yes"/>
      <point x="363" y="404" smooth="yes"/>
      <point x="363" y="405" type="curve" smooth="yes"/>
      <point x="332" y="447"/>
      <point x="276" y="497"/>
      <point x="255" y="510" type="curve"/>
    </contour>
    <contour>
      <point x="257" y="519" type="line"/>
      <point x="284" y="519" smooth="yes"/>
      <point x="411" y="529" smooth="yes"/>
      <point x="411" y="549" type="curve" smooth="yes"/>
      <point x="411" y="565" smooth="yes"/>
      <point x="399" y="617" smooth="yes"/>
      <point x="382" y="617" type="curve" smooth="yes" name="hr01"/>
      <point x="364" y="617"/>
      <point x="267" y="565"/>
      <point x="247" y="548" type="curve"/>
    </contour>
  </outline>
</glyph>
<glyph name="comma" format="1">
  <advance width="197"/>
  <unicode hex="002C"/>
  <outline>
    <contour>
      <point x="115" y="121" type="curve" smooth="yes" name="hr00"/>
      <point x="86" y="121"/>
      <point x="56" y="114"/>
      <point x="56" y="114" type="curve"/>
      <point x="56" y="114" smooth="yes"/>
      <point x="48" y="80" smooth="yes"/>
      <point x="48" y="49" type="curve" smooth="yes"/>
      <point x="48" y="18" smooth="yes"/>
      <point x="55" y="-12" smooth="yes"/>
      <point x="85" y="-12" type="curve" smooth="yes"/>
      <point x="90" y="-12"/>
      <point x="95" y="-12"/>
      <point x="101" y="-11" type="curve"/>
      <point x="101" y="-15" type="line" smooth="yes"/>
      <point x="101" y="-59"/>
      <point x="71" y="-97"/>
      <point x="19" y="-113" type="curve"/>
      <point x="28" y="-142" type="line"/>
      <point x="108" y="-126" smooth="yes"/>
      <point x="161" y="-58" smooth="yes"/>
      <point x="161" y="12" type="curve" smooth="yes"/>
      <point x="161" y="72" smooth="yes"/>
      <point x="144" y="121" smooth="yes"/>
    </contour>
  </outline>
</glyph>
<glyph name="zero" format="1">
  <advance width="510"/>
  <unicode hex="0030"/>
  <outline>
    <contour>
      <point x="481" y="285" type="curve" smooth="yes" name="hr00"/>
      <point x="481" y="471" smooth="yes"/>
      <point x="380" y="563" smooth="yes"/>
      <point x="259" y="563" type="curve" smooth="yes"/>
      <point x="132" y="563" smooth="yes"/>
      <point x="29" y="463" smooth="yes"/>
      <point x="29" y="277" type="curve" smooth="yes"/>
      <point x="29" y="82" smooth="yes"/>
      <point x="123" y="-12" smooth="yes"/>
      <point x="247" y="-12" type="curve" smooth="yes"/>
      <point x="383" y="-12" smooth="yes"/>
      <point x="481" y="84" smooth="yes"/>
    </contour>
    <contour>
      <point x="398" y="275" type="curve" smooth="yes"/>
      <point x="398" y="113" smooth="yes"/>
      <point x="348" y="37" smooth="yes"/>
      <point x="255" y="37" type="curve" smooth="yes"/>
      <point x="162" y="37" smooth="yes"/>
      <point x="112" y="113" smooth="yes"/>
      <point x="112" y="275" type="curve" smooth="yes"/>
      <point x="112" y="437" smooth="yes"/>
      <point x="162" y="513" smooth="yes"/>
      <point x="255" y="513" type="curve" smooth="yes"/>
      <point x="348" y="513" smooth="yes"/>
      <point x="398" y="437" smooth="yes"/>
    </contour>
  </outline>
</glyph>
<glyph name="one" format="1">
  <advance width="510"/>
  <unicode hex="0031"/>
  <outline>
    <contour>
      <point x="337" y="57" type="line" name="hr00"/>
      <point x="337" y="532" type="line" smooth="yes"/>
      <point x="337" y="549"/>
      <point x="327" y="559"/>
      <point x="319" y="563" type="curve"/>
      <point x="302" y="563" smooth="yes"/>
      <point x="100" y="519" smooth="yes"/>
      <point x="100" y="518" type="curve" smooth="yes"/>
      <point x="100" y="510" smooth="yes"/>
      <point x="111" y="466" smooth="yes"/>
      <point x="126" y="466" type="curve" smooth="yes"/>
      <point x="259" y="499" type="line"/>
      <point x="259" y="57" type="line"/>
      <point x="105" y="33" type="line"/>
      <point x="105" y="26" smooth="yes"/>
      <point x="105" y="0" smooth="yes"/>
      <point x="121" y="0" type="curve" smooth="yes"/>
      <point x="284" y="4" type="line"/>
      <point x="445" y="0" type="line" smooth="yes"/>
      <point x="461" y="0"/>
      <point x="461" y="26"/>
      <point x="461" y="33" type="curve"/>
    </contour>
  </outline>
</glyph>
<glyph name="two" format="1">
  <advance width="510"/>
  <unicode hex="0032"/>
  <outline>
    <contour>
      <point x="427" y="415" type="curve" smooth="yes" name="hr00"/>
      <point x="427" y="525" smooth="yes"/>
      <point x="329" y="563" smooth="yes"/>
      <point x="235" y="563" type="curve" smooth="yes"/>
      <point x="175" y="563"/>
      <point x="110" y="547"/>
      <point x="70" y="524" type="curve"/>
      <point x="71" y="510" smooth="yes"/>
      <point x="98" y="398" smooth="yes"/>
      <point x="99" y="398" type="curve" smooth="yes"/>
      <point x="106" y="398"/>
      <point x="139" y="402"/>
      <point x="139" y="414" type="curve"/>
      <point x="135" y="487" type="line"/>
      <point x="163" y="503" smooth="yes"/>
      <point x="199" y="513" smooth="yes"/>
      <point x="233" y="513" type="curve" smooth="yes"/>
      <point x="290" y="513" smooth="yes"/>
      <point x="343" y="486" smooth="yes"/>
      <point x="343" y="410" type="curve" smooth="yes"/>
      <point x="343" y="317" smooth="yes"/>
      <point x="272" y="249" smooth="yes"/>
      <point x="213" y="196" type="curve" smooth="yes"/>
      <point x="29" y="32" type="line"/>
      <point x="52" y="0" type="line"/>
      <point x="438" y="0" type="line" smooth="yes"/>
      <point x="455" y="0"/>
      <point x="460" y="5"/>
      <point x="462" y="14" type="curve"/>
      <point x="462" y="31" smooth="yes"/>
      <point x="440" y="158" smooth="yes"/>
      <point x="439" y="158" type="curve" smooth="yes"/>
      <point x="431" y="158" smooth="yes"/>
      <point x="398" y="158" smooth="yes"/>
      <point x="398" y="142" type="curve" smooth="yes"/>
      <point x="398" y="64" type="line"/>
      <point x="111" y="39" type="line"/>
      <point x="110" y="43" type="line"/>
      <point x="225" y="133" type="line" smooth="yes"/>
      <point x="330" y="215" smooth="yes"/>
      <point x="427" y="297" smooth="yes"/>
    </contour>
  </outline>
</glyph>
<glyph name="three" format="1">
  <advance width="510"/>
  <unicode hex="0033"/>
  <outline>
    <contour>
      <point x="190" y="238" type="line"/>
      <point x="308" y="237" smooth="yes"/>
      <point x="374" y="176" smooth="yes"/>
      <point x="374" y="105" type="curve" smooth="yes"/>
      <point x="374" y="22" smooth="yes"/>
      <point x="303" y="-19" smooth="yes"/>
      <point x="226" y="-19" type="curve" smooth="yes"/>
      <point x="191" y="-19"/>
      <point x="154" y="-10"/>
      <point x="121" y="8" type="curve"/>
      <point x="124" y="81" type="line" smooth="yes"/>
      <point x="124" y="94" smooth="yes"/>
      <point x="91" y="97" smooth="yes"/>
      <point x="85" y="97" type="curve" smooth="yes"/>
      <point x="83" y="97"/>
      <point x="57" y="-15"/>
      <point x="56" y="-29" type="curve"/>
      <point x="104" y="-52" smooth="yes"/>
      <point x="176" y="-68" smooth="yes"/>
      <point x="245" y="-68" type="curve" smooth="yes"/>
      <point x="351" y="-68" smooth="yes"/>
      <point x="454" y="-3" smooth="yes"/>
      <point x="454" y="107" type="curve" smooth="yes"/>
      <point x="454" y="177"/>
      <point x="397" y="246"/>
      <point x="295" y="264" type="curve"/>
      <point x="368" y="291" smooth="yes"/>
      <point x="427" y="348" smooth="yes"/>
      <point x="427" y="418" type="curve" smooth="yes" name="hr01"/>
      <point x="427" y="524" smooth="yes"/>
      <point x="334" y="563" smooth="yes"/>
      <point x="245" y="563" type="curve" smooth="yes"/>
      <point x="187" y="563"/>
      <point x="126" y="547"/>
      <point x="83" y="524" type="curve"/>
      <point x="85" y="510" smooth="yes"/>
      <point x="111" y="398" smooth="yes"/>
      <point x="112" y="398" type="curve" smooth="yes"/>
      <point x="119" y="398" smooth="yes"/>
      <point x="152" y="402" smooth="yes"/>
      <point x="152" y="414" type="curve" smooth="yes"/>
      <point x="148" y="487" type="line"/>
      <point x="174" y="503" smooth="yes"/>
      <point x="208" y="513" smooth="yes"/>
      <point x="241" y="513" type="curve" smooth="yes"/>
      <point x="308" y="513" smooth="yes"/>
      <point x="345" y="466" smooth="yes"/>
      <point x="345" y="415" type="curve" smooth="yes"/>
      <point x="345" y="354"/>
      <point x="295" y="286"/>
      <point x="184" y="272" type="curve"/>
    </contour>
  </outline>
</glyph>
<glyph name="four" format="1">
  <advance width="510"/>
  <unicode hex="0034"/>
  <outline>
    <contour>
      <point x="397" y="0" type="line" name="hr00"/>
      <point x="397" y="89" type="line"/>
      <point x="496" y="89" type="line"/>
      <point x="496" y="134" type="line"/>
      <point x="397" y="134" type="line"/>
      <point x="397" y="357" type="line" smooth="yes"/>
      <point x="397" y="374"/>
      <point x="387" y="384"/>
      <point x="379" y="388" type="curve"/>
      <point x="362" y="388"/>
      <point x="323" y="380"/>
      <point x="323" y="379" type="curve"/>
      <point x="323" y="134" type="line"/>
      <point x="84" y="134" type="line"/>
      <point x="291" y="594" type="line"/>
      <point x="218" y="616" type="line"/>
      <point x="56" y="218" type="line" smooth="yes"/>
      <point x="30" y="155" smooth="yes"/>
      <point x="15" y="112" smooth="yes"/>
      <point x="15" y="105" type="curve" smooth="yes"/>
      <point x="15" y="91" smooth="yes"/>
      <point x="26" y="89" smooth="yes"/>
      <point x="43" y="89" type="curve" smooth="yes"/>
      <point x="323" y="89" type="line"/>
      <point x="323" y="0" type="line"/>
      <point x="208" y="-23" type="line"/>
      <point x="208" y="-30" smooth="yes"/>
      <point x="208" y="-56" smooth="yes"/>
      <point x="223" y="-56" type="curve" smooth="yes"/>
      <point x="223" y="-56"/>
      <point x="224" y="-56"/>
      <point x="359" y="-52" type="curve"/>
      <point x="476" y="-56" smooth="yes"/>
      <point x="477" y="-56" smooth="yes"/>
      <point x="477" y="-56" type="curve" smooth="yes"/>
      <point x="492" y="-56"/>
      <point x="492" y="-30"/>
      <point x="492" y="-23" type="curve"/>
    </contour>
  </outline>
</glyph>
<glyph name="seven" format="1">
  <advance width="510"/>
  <unicode hex="0037"/>
  <outline>
    <contour>
      <point x="213" y="-68" type="line"/>
      <point x="469" y="546" type="line"/>
      <point x="441" y="564" type="line"/>
      <point x="423" y="537" type="line"/>
      <point x="81" y="557" type="line" name="hr01"/>
      <point x="64" y="557"/>
      <point x="56" y="555"/>
      <point x="54" y="543" type="curve"/>
      <point x="54" y="526" smooth="yes"/>
      <point x="76" y="399" smooth="yes"/>
      <point x="78" y="399" type="curve" smooth="yes"/>
      <point x="85" y="399" smooth="yes"/>
      <point x="118" y="399" smooth="yes"/>
      <point x="118" y="415" type="curve" smooth="yes"/>
      <point x="118" y="493" type="line"/>
      <point x="397" y="493" type="line"/>
      <point x="133" y="-49" type="line"/>
    </contour>
  </outline>
</glyph>
<glyph name="equal" format="1">
  <advance width="510"/>
  <unicode hex="003D"/>
  <outline>
    <contour>
      <point x="73" y="330" type="line" name="hr00"/>
      <point x="437" y="330" type="line"/>
      <point x="437" y="387" type="line"/>
      <point x="73" y="387" type="line"/>
    </contour>
    <contour>
      <point x="73" y="168" type="line"/>
      <point x="437" y="168" type="line"/>
      <point x="437" y="225" type="line"/>
      <point x="73" y="225" type="line"/>
    </contour>
  </outline>
</glyph>
<glyph name="question" format="1">
  <advance width="430"/>
  <unicode hex="003F"/>
  <outline>
    <contour>
      <point x="79" y="502" type="line" name="hr00"/>
      <point x="87" y="502" smooth="yes"/>
      <point x="121" y="502" smooth="yes"/>
      <point x="121" y="516" type="curve" smooth="yes"/>
      <point x="121" y="617" type="line"/>
      <point x="135" y="620" smooth="yes"/>
      <point x="151" y="621" smooth="yes"/>
      <point x="168" y="621" type="curve" smooth="yes"/>
      <point x="235" y="621"/>
      <point x="309" y="594"/>
      <point x="311" y="522" type="curve"/>
      <point x="296" y="440"/>
      <point x="162" y="332"/>
      <point x="160" y="283" type="curve"/>
      <point x="160" y="282"/>
      <point x="161" y="244"/>
      <point x="168" y="184" type="curve"/>
      <point x="202" y="184" type="line"/>
      <point x="202" y="234" type="line" smooth="yes"/>
      <point x="202" y="300" smooth="yes"/>
      <point x="376" y="407" smooth="yes"/>
      <point x="376" y="527" type="curve" smooth="yes"/>
      <point x="376" y="618" smooth="yes"/>
      <point x="287" y="671" smooth="yes"/>
      <point x="169" y="671" type="curve" smooth="yes"/>
      <point x="132" y="671"/>
      <point x="93" y="666"/>
      <point x="53" y="656" type="curve"/>
    </contour>
    <contour>
      <point x="198" y="95" type="curve" smooth="yes"/>
      <point x="177" y="95"/>
      <point x="141" y="89"/>
      <point x="141" y="89" type="curve"/>
      <point x="141" y="89" smooth="yes"/>
      <point x="133" y="62" smooth="yes"/>
      <point x="133" y="37" type="curve" smooth="yes"/>
      <point x="133" y="12" smooth="yes"/>
      <point x="140" y="-12" smooth="yes"/>
      <point x="170" y="-12" type="curve" smooth="yes"/>
      <point x="192" y="-12"/>
      <point x="227" y="-4"/>
      <point x="227" y="-4" type="curve"/>
      <point x="227" y="-4" smooth="yes"/>
      <point x="234" y="22" smooth="yes"/>
      <point x="234" y="45" type="curve" smooth="yes"/>
      <point x="234" y="72" smooth="yes"/>
      <point x="225" y="95" smooth="yes"/>
    </contour>
  </outline>
</glyph>
<glyph name="A" format="1">
  <advance width="660"/>
  <unicode hex="0041"/>
  <outline>
    <contour>
      <point x="124" y="52" type="line" name="hr00"/>
      <point x="179" y="215" type="line"/>
      <point x="454" y="229" type="line"/>
      <point x="517" y="52" type="line"/>
      <point x="427" y="30" type="line"/>
      <point x="427" y="22" smooth="yes"/>
      <point x="427" y="0" smooth="yes"/>
      <point x="442" y="0" type="curve" smooth="yes"/>
      <point x="442" y="0"/>
      <point x="453" y="0"/>
      <point x="561" y="4" type="curve"/>
      <point x="648" y="0"/>
      <point x="660" y="0"/>
      <point x="660" y="0" type="curve"/>
      <point x="675" y="0"/>
      <point x="675" y="23"/>
      <point x="675" y="30" type="curve"/>
      <point x="600" y="52" type="line"/>
      <point x="368" y="700" type="line"/>
      <point x="292" y="700" type="line"/>
      <point x="62" y="52" type="line"/>
      <point x="-13" y="30" type="line"/>
      <point x="-13" y="23" smooth="yes"/>
      <point x="-13" y="0" smooth="yes"/>
      <point x="2" y="0" type="curve" smooth="yes"/>
      <point x="2" y="0"/>
      <point x="6" y="0"/>
      <point x="93" y="4" type="curve"/>
      <point x="201" y="0"/>
      <point x="204" y="0"/>
      <point x="204" y="0" type="curve"/>
      <point x="219" y="0"/>
      <point x="219" y="22"/>
      <point x="219" y="30" type="curve"/>
    </contour>
    <contour>
      <point x="317" y="619" type="line"/>
      <point x="439" y="273" type="line"/>
      <point x="199" y="273" type="line"/>
    </contour>
  </outline>
</glyph>
<glyph name="B" format="1">
  <advance width="612"/>
  <unicode hex="0042"/>
  <outline>
    <contour>
      <point x="511" y="529" type="curve" smooth="yes"/>
      <point x="511" y="615" smooth="yes"/>
      <point x="439" y="700" smooth="yes"/>
      <point x="298" y="700" type="curve" smooth="yes"/>
      <point x="294" y="700"/>
      <point x="290" y="700"/>
      <point x="168" y="696" type="curve"/>
      <point x="74" y="700"/>
      <point x="65" y="700"/>
      <point x="65" y="700" type="curve"/>
      <point x="50" y="700"/>
      <point x="50" y="677"/>
      <point x="50" y="670" type="curve"/>
      <point x="134" y="648" type="line"/>
      <point x="134" y="52" type="line"/>
      <point x="50" y="30" type="line"/>
      <point x="50" y="23"/>
      <point x="50" y="0"/>
      <point x="65" y="0" type="curve"/>
      <point x="176" y="8" type="line" name="hr01"/>
      <point x="353" y="0" smooth="yes"/>
      <point x="356" y="0" smooth="yes"/>
      <point x="360" y="0" type="curve" smooth="yes" name="hr02"/>
      <point x="490" y="0" smooth="yes"/>
      <point x="567" y="87" smooth="yes"/>
      <point x="567" y="192" type="curve" smooth="yes"/>
      <point x="567" y="270"/>
      <point x="513" y="347"/>
      <point x="402" y="374" type="curve"/>
      <point x="474" y="404" smooth="yes"/>
      <point x="511" y="466" smooth="yes"/>
    </contour>
    <contour>
      <point x="334" y="44" type="curve" smooth="yes"/>
      <point x="310" y="44"/>
      <point x="258" y="48"/>
      <point x="205" y="58" type="curve"/>
      <point x="214" y="336" type="line"/>
      <point x="316" y="348" type="line"/>
      <point x="432" y="348" smooth="yes"/>
      <point x="487" y="268" smooth="yes"/>
      <point x="487" y="191" type="curve" smooth="yes" name="hr04"/>
      <point x="487" y="117" smooth="yes"/>
      <point x="440" y="44" smooth="yes"/>
    </contour>
    <contour>
      <point x="285" y="662" type="line"/>
      <point x="385" y="662" smooth="yes"/>
      <point x="436" y="595" smooth="yes"/>
      <point x="436" y="526" type="curve" smooth="yes" name="hr05"/>
      <point x="436" y="460"/>
      <point x="389" y="393"/>
      <point x="296" y="384" type="curve"/>
      <point x="214" y="384" type="line"/>
      <point x="205" y="648" type="line"/>
    </contour>
  </outline>
</glyph>
<glyph name="D" format="1">
  <advance width="748"/>
  <unicode hex="0044"/>
  <outline>
    <contour>
      <point x="134" y="648" type="line"/>
      <point x="134" y="52" type="line"/>
      <point x="50" y="30" type="line"/>
      <point x="50" y="23"/>
      <point x="50" y="0"/>
      <point x="65" y="0" type="curve"/>
      <point x="176" y="8" type="line"/>
      <point x="364" y="-6" type="line" name="hr01"/>
      <point x="564" y="-6" smooth="yes"/>
      <point x="708" y="110" smooth="yes"/>
      <point x="708" y="363" type="curve" smooth="yes"/>
      <point x="708" y="597"/>
      <point x="561" y="712"/>
      <point x="380" y="712" type="curve"/>
      <point x="176" y="696" type="line"/>
      <point x="82" y="700"/>
      <point x="65" y="700"/>
      <point x="65" y="700" type="curve" name="hr02"/>
      <point x="50" y="700"/>
      <point x="50" y="677"/>
      <point x="50" y="670" type="curve"/>
    </contour>
    <contour>
      <point x="374" y="41" type="curve" smooth="yes"/>
      <point x="319" y="41"/>
      <point x="262" y="49"/>
      <point x="208" y="61" type="curve"/>
      <point x="218" y="350" type="line"/>
      <point x="208" y="639" type="line"/>
      <point x="271" y="654" smooth="yes"/>
      <point x="331" y="658" smooth="yes"/>
      <point x="374" y="658" type="curve" smooth="yes" name="hr03"/>
      <point x="514" y="658" smooth="yes"/>
      <point x="620" y="557" smooth="yes"/>
      <point x="620" y="352" type="curve" smooth="yes"/>
      <point x="620" y="140" smooth="yes"/>
      <point x="514" y="41" smooth="yes"/>
    </contour>
  </outline>
</glyph>
<glyph name="E" format="1">
  <advance width="601"/>
  <unicode hex="0045"/>
  <outline>
    <contour>
      <point x="473" y="555" type="line" smooth="yes"/>
      <point x="473" y="541"/>
      <point x="508" y="541"/>
      <point x="516" y="541" type="curve"/>
      <point x="540" y="690" type="line"/>
      <point x="539" y="700" smooth="yes"/>
      <point x="526" y="700" smooth="yes"/>
      <point x="508" y="700" type="curve" smooth="yes" name="hr01"/>
      <point x="168" y="696" type="line"/>
      <point x="74" y="700"/>
      <point x="65" y="700"/>
      <point x="65" y="700" type="curve"/>
      <point x="50" y="700"/>
      <point x="50" y="677"/>
      <point x="50" y="670" type="curve"/>
      <point x="134" y="648" type="line"/>
      <point x="134" y="52" type="line"/>
      <point x="50" y="30" type="line"/>
      <point x="50" y="23"/>
      <point x="50" y="0"/>
      <point x="65" y="0" type="curve"/>
      <point x="170" y="8" type="line"/>
      <point x="514" y="0" type="line" smooth="yes"/>
      <point x="534" y="0" smooth="yes"/>
      <point x="542" y="1" smooth="yes"/>
      <point x="543" y="12" type="curve" smooth="yes"/>
      <point x="551" y="163" type="line"/>
      <point x="544" y="163"/>
      <point x="509" y="163"/>
      <point x="509" y="149" type="curve"/>
      <point x="483" y="55" type="line" name="hr02"/>
      <point x="208" y="55" type="line"/>
      <point x="217" y="326" type="line"/>
      <point x="473" y="339" type="line"/>
      <point x="473" y="382" type="line"/>
      <point x="217" y="382" type="line"/>
      <point x="208" y="646" type="line"/>
      <point x="473" y="649" type="line"/>
    </contour>
  </outline>
</glyph>
<glyph name="F" format="1">
  <advance width="550"/>
  <unicode hex="0046"/>
  <outline>
    <contour>
      <point x="443" y="555" type="line" smooth="yes"/>
      <point x="443" y="541"/>
      <point x="478" y="541"/>
      <point x="486" y="541" type="curve"/>
      <point x="510" y="690" type="line"/>
      <point x="509" y="700" smooth="yes"/>
      <point x="496" y="700" smooth="yes"/>
      <point x="478" y="700" type="curve" smooth="yes" name="hr01"/>
      <point x="168" y="696" type="line"/>
      <point x="74" y="700"/>
      <point x="65" y="700"/>
      <point x="65" y="700" type="curve"/>
      <point x="50" y="700"/>
      <point x="50" y="677"/>
      <point x="50" y="670" type="curve"/>
      <point x="134" y="648" type="line"/>
      <point x="134" y="52" type="line"/>
      <point x="50" y="30" type="line"/>
      <point x="50" y="23" smooth="yes"/>
      <point x="50" y="0" smooth="yes"/>
      <point x="65" y="0" type="curve" smooth="yes"/>
      <point x="65" y="0"/>
      <point x="74" y="0"/>
      <point x="168" y="4" type="curve"/>
      <point x="261" y="0"/>
      <point x="304" y="0"/>
      <point x="304" y="0" type="curve"/>
      <point x="319" y="0"/>
      <point x="319" y="23"/>
      <point x="319" y="30" type="curve"/>
      <point x="208" y="52" type="line"/>
      <point x="216" y="310" type="line"/>
      <point x="463" y="323" type="line"/>
      <point x="463" y="366" type="line"/>
      <point x="217" y="367" type="line"/>
      <point x="208" y="646" type="line"/>
      <point x="443" y="649" type="line"/>
    </contour>
  </outline>
</glyph>
<glyph name="G" format="1">
  <advance width="665"/>
  <unicode hex="0047"/>
  <outline>
    <contour>
      <point x="596" y="111" type="line" name="hr00"/>
      <point x="596" y="360" type="line"/>
      <point x="334" y="360" type="line"/>
      <point x="334" y="317" type="line"/>
      <point x="519" y="306" type="line"/>
      <point x="536" y="97" type="line"/>
      <point x="492" y="64" smooth="yes"/>
      <point x="423" y="41" smooth="yes"/>
      <point x="363" y="41" type="curve" smooth="yes"/>
      <point x="230" y="41" smooth="yes"/>
      <point x="128" y="143" smooth="yes"/>
      <point x="128" y="352" type="curve" smooth="yes"/>
      <point x="128" y="478"/>
      <point x="167" y="583"/>
      <point x="229" y="629" type="curve"/>
      <point x="268" y="642" smooth="yes"/>
      <point x="324" y="653" smooth="yes"/>
      <point x="373" y="653" type="curve" smooth="yes"/>
      <point x="426" y="653"/>
      <point x="492" y="641"/>
      <point x="529" y="628" type="curve"/>
      <point x="529" y="517" type="line" smooth="yes"/>
      <point x="529" y="503"/>
      <point x="566" y="503"/>
      <point x="574" y="503" type="curve"/>
      <point x="600" y="652" type="line"/>
      <point x="538" y="691" smooth="yes"/>
      <point x="463" y="712" smooth="yes"/>
      <point x="379" y="712" type="curve" smooth="yes"/>
      <point x="192" y="712" smooth="yes"/>
      <point x="40" y="588" smooth="yes"/>
      <point x="40" y="354" type="curve" smooth="yes"/>
      <point x="40" y="109" smooth="yes"/>
      <point x="174" y="-12" smooth="yes"/>
      <point x="353" y="-12" type="curve" smooth="yes"/>
      <point x="440" y="-12"/>
      <point x="523" y="13"/>
      <point x="605" y="72" type="curve"/>
    </contour>
  </outline>
</glyph>
<glyph name="H" format="1">
  <advance width="789"/>
  <unicode hex="0048"/>
  <outline>
    <contour>
      <point x="739" y="670" type="line" name="hr00"/>
      <point x="739" y="677" smooth="yes"/>
      <point x="739" y="700" smooth="yes"/>
      <point x="724" y="700" type="curve" smooth="yes"/>
      <point x="724" y="700"/>
      <point x="715" y="700"/>
      <point x="621" y="696" type="curve"/>
      <point x="528" y="700"/>
      <point x="516" y="700"/>
      <point x="516" y="700" type="curve"/>
      <point x="501" y="700"/>
      <point x="501" y="677"/>
      <point x="501" y="670" type="curve"/>
      <point x="581" y="648" type="line"/>
      <point x="572" y="384" type="line"/>
      <point x="217" y="384" type="line"/>
      <point x="208" y="648" type="line"/>
      <point x="288" y="670" type="line"/>
      <point x="288" y="677" smooth="yes"/>
      <point x="288" y="700" smooth="yes"/>
      <point x="273" y="700" type="curve" smooth="yes"/>
      <point x="273" y="700"/>
      <point x="261" y="700"/>
      <point x="168" y="696" type="curve"/>
      <point x="74" y="700"/>
      <point x="65" y="700"/>
      <point x="65" y="700" type="curve"/>
      <point x="50" y="700"/>
      <point x="50" y="677"/>
      <point x="50" y="670" type="curve"/>
      <point x="134" y="648" type="line"/>
      <point x="134" y="52" type="line"/>
      <point x="50" y="30" type="line"/>
      <point x="50" y="23" smooth="yes"/>
      <point x="50" y="0" smooth="yes"/>
      <point x="65" y="0" type="curve" smooth="yes"/>
      <point x="65" y="0"/>
      <point x="74" y="0"/>
      <point x="168" y="4" type="curve"/>
      <point x="261" y="0"/>
      <point x="273" y="0"/>
      <point x="273" y="0" type="curve"/>
      <point x="288" y="0"/>
      <point x="288" y="23"/>
      <point x="288" y="30" type="curve"/>
      <point x="208" y="52" type="line"/>
      <point x="217" y="326" type="line"/>
      <point x="571" y="340" type="line"/>
      <point x="581" y="52" type="line"/>
      <point x="501" y="30" type="line"/>
      <point x="501" y="23" smooth="yes"/>
      <point x="501" y="0" smooth="yes"/>
      <point x="516" y="0" type="curve" smooth="yes"/>
      <point x="516" y="0"/>
      <point x="528" y="0"/>
      <point x="621" y="4" type="curve"/>
      <point x="715" y="0"/>
      <point x="724" y="0"/>
      <point x="724" y="0" type="curve"/>
      <point x="739" y="0"/>
      <point x="739" y="23"/>
      <point x="739" y="30" type="curve"/>
      <point x="655" y="52" type="line"/>
      <point x="655" y="648" type="line"/>
    </contour>
  </outline>
</glyph>
<glyph name="I" format="1">
  <advance width="345"/>
  <unicode hex="0049"/>
  <outline>
    <contour>
      <point x="136" y="648" type="line" name="hr00"/>
      <point x="131" y="350" type="line"/>
      <point x="136" y="52" type="line"/>
      <point x="50" y="30" type="line"/>
      <point x="50" y="23" smooth="yes"/>
      <point x="50" y="0" smooth="yes"/>
      <point x="65" y="0" type="curve" smooth="yes"/>
      <point x="65" y="0"/>
      <point x="83" y="0"/>
      <point x="177" y="4" type="curve"/>
      <point x="270" y="0"/>
      <point x="280" y="0"/>
      <point x="280" y="0" type="curve"/>
      <point x="295" y="0"/>
      <point x="295" y="23"/>
      <point x="295" y="30" type="curve"/>
      <point x="209" y="52" type="line"/>
      <point x="214" y="350" type="line"/>
      <point x="209" y="648" type="line"/>
      <point x="295" y="670" type="line"/>
      <point x="295" y="677" smooth="yes"/>
      <point x="295" y="700" smooth="yes"/>
      <point x="280" y="700" type="curve" smooth="yes"/>
      <point x="280" y="700"/>
      <point x="270" y="700"/>
      <point x="177" y="696" type="curve"/>
      <point x="83" y="700"/>
      <point x="65" y="700"/>
      <point x="65" y="700" type="curve"/>
      <point x="50" y="700"/>
      <point x="50" y="677"/>
      <point x="50" y="670" type="curve"/>
    </contour>
  </outline>
</glyph>
<glyph name="K" format="1">
  <advance width="623"/>
  <unicode hex="004B"/>
  <outline>
    <contour>
      <point x="414" y="700" type="line" name="hr00"/>
      <point x="399" y="700"/>
      <point x="399" y="677"/>
      <point x="399" y="670" type="curve"/>
      <point x="471" y="650" type="line"/>
      <point x="331" y="372" type="line"/>
      <point x="217" y="372" type="line"/>
      <point x="208" y="648" type="line"/>
      <point x="288" y="670" type="line"/>
      <point x="288" y="677" smooth="yes"/>
      <point x="288" y="700" smooth="yes"/>
      <point x="273" y="700" type="curve" smooth="yes"/>
      <point x="273" y="700"/>
      <point x="261" y="700"/>
      <point x="168" y="696" type="curve"/>
      <point x="74" y="700"/>
      <point x="65" y="700"/>
      <point x="65" y="700" type="curve"/>
      <point x="50" y="700"/>
      <point x="50" y="677"/>
      <point x="50" y="670" type="curve"/>
      <point x="134" y="648" type="line"/>
      <point x="134" y="52" type="line"/>
      <point x="50" y="30" type="line"/>
      <point x="50" y="23" smooth="yes"/>
      <point x="50" y="0" smooth="yes"/>
      <point x="65" y="0" type="curve" smooth="yes"/>
      <point x="65" y="0"/>
      <point x="74" y="0"/>
      <point x="168" y="4" type="curve"/>
      <point x="261" y="0"/>
      <point x="294" y="0"/>
      <point x="294" y="0" type="curve"/>
      <point x="309" y="0"/>
      <point x="309" y="23"/>
      <point x="309" y="30" type="curve"/>
      <point x="208" y="52" type="line"/>
      <point x="217" y="324" type="line"/>
      <point x="315" y="336" type="line"/>
      <point x="325" y="328" smooth="yes"/>
      <point x="335" y="314" smooth="yes"/>
      <point x="345" y="295" type="curve" smooth="yes"/>
      <point x="506" y="0" type="line"/>
      <point x="637" y="0" type="line" smooth="yes"/>
      <point x="652" y="0"/>
      <point x="652" y="23"/>
      <point x="652" y="30" type="curve"/>
      <point x="572" y="52" type="line"/>
      <point x="427" y="299" type="line" smooth="yes"/>
      <point x="407" y="333"/>
      <point x="389" y="349"/>
      <point x="371" y="357" type="curve"/>
      <point x="537" y="648" type="line"/>
      <point x="604" y="670" type="line"/>
      <point x="604" y="677" smooth="yes"/>
      <point x="602" y="700" smooth="yes"/>
      <point x="590" y="700" type="curve" smooth="yes"/>
      <point x="495" y="696" type="line"/>
    </contour>
  </outline>
</glyph>
<glyph name="L" format="1">
  <advance width="521"/>
  <unicode hex="004C"/>
  <outline>
    <contour>
      <point x="135" y="648" type="line"/>
      <point x="130" y="350" type="line"/>
      <point x="135" y="52" type="line"/>
      <point x="49" y="30" type="line"/>
      <point x="49" y="23"/>
      <point x="49" y="0"/>
      <point x="64" y="0" type="curve"/>
      <point x="176" y="8" type="line"/>
      <point x="474" y="0" type="line" smooth="yes"/>
      <point x="494" y="0" smooth="yes"/>
      <point x="502" y="1" smooth="yes"/>
      <point x="503" y="12" type="curve" smooth="yes"/>
      <point x="511" y="163" type="line"/>
      <point x="504" y="163" smooth="yes"/>
      <point x="473" y="162" smooth="yes"/>
      <point x="469" y="149" type="curve" smooth="yes"/>
      <point x="443" y="55" type="line" name="hr01"/>
      <point x="208" y="55" type="line"/>
      <point x="213" y="350" type="line"/>
      <point x="208" y="648" type="line"/>
      <point x="294" y="670" type="line"/>
      <point x="294" y="677" smooth="yes"/>
      <point x="294" y="700" smooth="yes"/>
      <point x="279" y="700" type="curve" smooth="yes"/>
      <point x="279" y="700"/>
      <point x="269" y="700"/>
      <point x="176" y="696" type="curve"/>
      <point x="82" y="700"/>
      <point x="64" y="700"/>
      <point x="64" y="700" type="curve"/>
      <point x="49" y="700"/>
      <point x="49" y="677"/>
      <point x="49" y="670" type="curve"/>
    </contour>
  </outline>
</glyph>
<glyph name="P" format="1">
  <advance width="563"/>
  <unicode hex="0050"/>
  <outline>
    <contour>
      <point x="134" y="648" type="line" name="hr00"/>
      <point x="134" y="52" type="line"/>
      <point x="50" y="30" type="line"/>
      <point x="50" y="23" smooth="yes"/>
      <point x="50" y="0" smooth="yes"/>
      <point x="65" y="0" type="curve" smooth="yes"/>
      <point x="65" y="0"/>
      <point x="74" y="0"/>
      <point x="168" y="4" type="curve"/>
      <point x="261" y="0"/>
      <point x="304" y="0"/>
      <point x="304" y="0" type="curve"/>
      <point x="319" y="0"/>
      <point x="319" y="23"/>
      <point x="319" y="30" type="curve"/>
      <point x="208" y="52" type="line"/>
      <point x="215" y="276" type="line"/>
      <point x="282" y="282" type="line" smooth="yes"/>
      <point x="451" y="298" smooth="yes"/>
      <point x="533" y="394" smooth="yes"/>
      <point x="533" y="497" type="curve" smooth="yes"/>
      <point x="533" y="610"/>
      <point x="456" y="700"/>
      <point x="326" y="700" type="curve"/>
      <point x="168" y="696" type="line"/>
      <point x="74" y="700"/>
      <point x="65" y="700"/>
      <point x="65" y="700" type="curve"/>
      <point x="50" y="700"/>
      <point x="50" y="677"/>
      <point x="50" y="670" type="curve"/>
    </contour>
    <contour>
      <point x="308" y="658" type="line"/>
      <point x="414" y="658" smooth="yes"/>
      <point x="461" y="578" smooth="yes"/>
      <point x="461" y="498" type="curve" smooth="yes"/>
      <point x="461" y="416"/>
      <point x="411" y="327"/>
      <point x="290" y="327" type="curve"/>
      <point x="218" y="331" type="line"/>
      <point x="208" y="648" type="line"/>
    </contour>
  </outline>
</glyph>
<glyph name="R" format="1">
  <advance width="596"/>
  <unicode hex="0052"/>
  <outline>
    <contour>
      <point x="134" y="648" type="line" name="hr00"/>
      <point x="134" y="52" type="line"/>
      <point x="50" y="30" type="line"/>
      <point x="50" y="23" smooth="yes"/>
      <point x="50" y="0" smooth="yes"/>
      <point x="65" y="0" type="curve" smooth="yes"/>
      <point x="65" y="0"/>
      <point x="74" y="0"/>
      <point x="168" y="4" type="curve"/>
      <point x="261" y="0"/>
      <point x="294" y="0"/>
      <point x="294" y="0" type="curve"/>
      <point x="309" y="0"/>
      <point x="309" y="23"/>
      <point x="309" y="30" type="curve"/>
      <point x="208" y="52" type="line"/>
      <point x="216" y="301" type="line"/>
      <point x="310" y="316" type="line"/>
      <point x="322" y="308" smooth="yes"/>
      <point x="333" y="294" smooth="yes"/>
      <point x="345" y="272" type="curve" smooth="yes"/>
      <point x="489" y="0" type="line"/>
      <point x="620" y="0" type="line" smooth="yes"/>
      <point x="635" y="0"/>
      <point x="635" y="23"/>
      <point x="635" y="30" type="curve"/>
      <point x="555" y="52" type="line"/>
      <point x="427" y="276" type="line" smooth="yes"/>
      <point x="410" y="305"/>
      <point x="394" y="321"/>
      <point x="379" y="330" type="curve"/>
      <point x="474" y="362" smooth="yes"/>
      <point x="523" y="440" smooth="yes"/>
      <point x="523" y="508" type="curve" smooth="yes"/>
      <point x="523" y="611" smooth="yes"/>
      <point x="449" y="700" smooth="yes"/>
      <point x="324" y="700" type="curve" smooth="yes"/>
      <point x="321" y="700"/>
      <point x="319" y="700"/>
      <point x="168" y="696" type="curve"/>
      <point x="74" y="700"/>
      <point x="65" y="700"/>
      <point x="65" y="700" type="curve"/>
      <point x="50" y="700"/>
      <point x="50" y="677"/>
      <point x="50" y="670" type="curve"/>
    </contour>
    <contour>
      <point x="298" y="658" type="line"/>
      <point x="404" y="658" smooth="yes"/>
      <point x="451" y="583" smooth="yes"/>
      <point x="451" y="510" type="curve" smooth="yes"/>
      <point x="451" y="434"/>
      <point x="401" y="354"/>
      <point x="280" y="354" type="curve"/>
      <point x="217" y="358" type="line"/>
      <point x="208" y="648" type="line"/>
    </contour>
  </outline>
</glyph>
<glyph name="T" format="1">
  <advance width="563"/>
  <unicode hex="0054"/>
  <outline>
    <contour>
      <point x="281" y="695" type="line"/>
      <point x="37" y="700" type="line" smooth="yes" name="hr01"/>
      <point x="19" y="700"/>
      <point x="6" y="700"/>
      <point x="5" y="690" type="curve"/>
      <point x="16" y="533" type="line"/>
      <point x="24" y="533" smooth="yes"/>
      <point x="58" y="533" smooth="yes"/>
      <point x="58" y="547" type="curve" smooth="yes"/>
      <point x="73" y="650" type="line"/>
      <point x="245" y="646" type="line"/>
      <point x="240" y="350" type="line"/>
      <point x="245" y="52" type="line"/>
      <point x="132" y="30" type="line"/>
      <point x="132" y="23" smooth="yes"/>
      <point x="132" y="0" smooth="yes"/>
      <point x="147" y="0" type="curve" smooth="yes"/>
      <point x="147" y="0"/>
      <point x="190" y="0"/>
      <point x="284" y="4" type="curve"/>
      <point x="377" y="0"/>
      <point x="416" y="0"/>
      <point x="416" y="0" type="curve"/>
      <point x="431" y="0"/>
      <point x="431" y="23"/>
      <point x="431" y="30" type="curve"/>
      <point x="318" y="52" type="line"/>
      <point x="323" y="350" type="line"/>
      <point x="318" y="646" type="line"/>
      <point x="490" y="650" type="line"/>
      <point x="505" y="547" type="line"/>
      <point x="505" y="533"/>
      <point x="539" y="533"/>
      <point x="547" y="533" type="curve"/>
      <point x="558" y="690" type="line"/>
      <point x="557" y="700" smooth="yes"/>
      <point x="544" y="700" smooth="yes"/>
      <point x="526" y="700" type="curve" smooth="yes"/>
    </contour>
  </outline>
</glyph>
<glyph name="U" format="1">
  <advance width="733"/>
  <unicode hex="0055"/>
  <outline>
    <contour>
      <point x="271" y="700" type="curve" name="hr00"/>
      <point x="271" y="700"/>
      <point x="249" y="700"/>
      <point x="156" y="696" type="curve"/>
      <point x="62" y="700"/>
      <point x="55" y="700"/>
      <point x="55" y="700" type="curve"/>
      <point x="40" y="700"/>
      <point x="40" y="676"/>
      <point x="40" y="669" type="curve"/>
      <point x="114" y="648" type="line"/>
      <point x="114" y="218" type="line" smooth="yes"/>
      <point x="114" y="55" smooth="yes"/>
      <point x="217" y="-12" smooth="yes"/>
      <point x="380" y="-12" type="curve" smooth="yes"/>
      <point x="539" y="-12" smooth="yes"/>
      <point x="633" y="82" smooth="yes"/>
      <point x="633" y="218" type="curve" smooth="yes"/>
      <point x="633" y="648" type="line"/>
      <point x="698" y="670" type="line"/>
      <point x="698" y="677" smooth="yes"/>
      <point x="698" y="700" smooth="yes"/>
      <point x="683" y="700" type="curve" smooth="yes"/>
      <point x="683" y="700"/>
      <point x="677" y="699"/>
      <point x="605" y="696" type="curve"/>
      <point x="496" y="700" type="line" smooth="yes"/>
      <point x="480" y="700"/>
      <point x="480" y="676"/>
      <point x="480" y="670" type="curve"/>
      <point x="575" y="648" type="line"/>
      <point x="575" y="216" type="line" smooth="yes"/>
      <point x="575" y="127" smooth="yes"/>
      <point x="515" y="43" smooth="yes"/>
      <point x="382" y="43" type="curve" smooth="yes"/>
      <point x="247" y="43" smooth="yes"/>
      <point x="192" y="115" smooth="yes"/>
      <point x="192" y="215" type="curve" smooth="yes"/>
      <point x="192" y="648" type="line"/>
      <point x="287" y="670" type="line"/>
      <point x="287" y="676"/>
      <point x="287" y="700"/>
    </contour>
  </outline>
</glyph>
<glyph name="V" format="1">
  <advance width="643"/>
  <unicode hex="0056"/>
  <outline>
    <contour>
      <point x="237" y="670" type="line" name="hr00"/>
      <point x="237" y="678" smooth="yes"/>
      <point x="237" y="700" smooth="yes"/>
      <point x="222" y="700" type="curve" smooth="yes"/>
      <point x="222" y="700"/>
      <point x="223" y="700"/>
      <point x="115" y="696" type="curve"/>
      <point x="28" y="700"/>
      <point x="15" y="700"/>
      <point x="15" y="700" type="curve"/>
      <point x="0" y="700"/>
      <point x="0" y="677"/>
      <point x="0" y="670" type="curve"/>
      <point x="65" y="648" type="line"/>
      <point x="290" y="0" type="line"/>
      <point x="360" y="0" type="line"/>
      <point x="578" y="648" type="line"/>
      <point x="643" y="670" type="line"/>
      <point x="643" y="677"/>
      <point x="643" y="699"/>
      <point x="628" y="700" type="curve"/>
      <point x="629" y="700"/>
      <point x="624" y="699"/>
      <point x="550" y="696" type="curve"/>
      <point x="442" y="700"/>
      <point x="446" y="700"/>
      <point x="446" y="700" type="curve"/>
      <point x="431" y="700"/>
      <point x="431" y="678"/>
      <point x="431" y="670" type="curve"/>
      <point x="516" y="648" type="line"/>
      <point x="338" y="95" type="line"/>
      <point x="153" y="648" type="line"/>
    </contour>
  </outline>
</glyph>
<glyph name="X" format="1">
  <advance width="696"/>
  <unicode hex="0058"/>
  <outline>
    <contour>
      <point x="416" y="30" type="line" name="hr00"/>
      <point x="416" y="22" smooth="yes"/>
      <point x="416" y="0" smooth="yes"/>
      <point x="431" y="0" type="curve" smooth="yes"/>
      <point x="431" y="0"/>
      <point x="451" y="0"/>
      <point x="559" y="4" type="curve"/>
      <point x="646" y="0"/>
      <point x="666" y="0"/>
      <point x="666" y="0" type="curve"/>
      <point x="681" y="0"/>
      <point x="681" y="23"/>
      <point x="681" y="30" type="curve"/>
      <point x="601" y="52" type="line"/>
      <point x="392" y="365" type="line"/>
      <point x="595" y="648" type="line"/>
      <point x="660" y="670" type="line"/>
      <point x="660" y="677"/>
      <point x="660" y="699"/>
      <point x="645" y="700" type="curve"/>
      <point x="646" y="700"/>
      <point x="642" y="699"/>
      <point x="567" y="696" type="curve"/>
      <point x="456" y="700" type="line" smooth="yes"/>
      <point x="441" y="700"/>
      <point x="441" y="678"/>
      <point x="441" y="670" type="curve"/>
      <point x="523" y="648" type="line"/>
      <point x="359" y="414" type="line"/>
      <point x="204" y="648" type="line"/>
      <point x="281" y="670" type="line"/>
      <point x="281" y="678" smooth="yes"/>
      <point x="281" y="700" smooth="yes"/>
      <point x="266" y="700" type="curve" smooth="yes"/>
      <point x="266" y="700"/>
      <point x="267" y="700"/>
      <point x="159" y="696" type="curve"/>
      <point x="72" y="700"/>
      <point x="51" y="700"/>
      <point x="51" y="700" type="curve"/>
      <point x="36" y="700"/>
      <point x="36" y="677"/>
      <point x="36" y="670" type="curve"/>
      <point x="111" y="648" type="line"/>
      <point x="307" y="353" type="line"/>
      <point x="90" y="52" type="line"/>
      <point x="15" y="30" type="line"/>
      <point x="15" y="23" smooth="yes"/>
      <point x="15" y="0" smooth="yes"/>
      <point x="29" y="0" type="curve" smooth="yes"/>
      <point x="29" y="0"/>
      <point x="42" y="0"/>
      <point x="118" y="4" type="curve"/>
      <point x="239" y="0" type="line" smooth="yes"/>
      <point x="254" y="0"/>
      <point x="254" y="22"/>
      <point x="254" y="30" type="curve"/>
      <point x="162" y="52" type="line"/>
      <point x="339" y="305" type="line"/>
      <point x="508" y="52" type="line"/>
    </contour>
  </outline>
</glyph>
<glyph name="Y" format="1">
  <advance width="580"/>
  <unicode hex="0059"/>
  <outline>
    <contour>
      <point x="232" y="670" type="line" name="hr00"/>
      <point x="232" y="678" smooth="yes"/>
      <point x="232" y="700" smooth="yes"/>
      <point x="217" y="700" type="curve" smooth="yes"/>
      <point x="217" y="700"/>
      <point x="220" y="700"/>
      <point x="112" y="696" type="curve"/>
      <point x="25" y="700"/>
      <point x="15" y="700"/>
      <point x="15" y="700" type="curve"/>
      <point x="0" y="700"/>
      <point x="0" y="677"/>
      <point x="0" y="670" type="curve"/>
      <point x="65" y="648" type="line"/>
      <point x="259" y="277" type="line"/>
      <point x="259" y="52" type="line"/>
      <point x="154" y="30" type="line"/>
      <point x="154" y="23" smooth="yes"/>
      <point x="154" y="0" smooth="yes"/>
      <point x="169" y="0" type="curve" smooth="yes"/>
      <point x="169" y="0"/>
      <point x="207" y="0"/>
      <point x="301" y="4" type="curve"/>
      <point x="394" y="0"/>
      <point x="427" y="0"/>
      <point x="427" y="0" type="curve"/>
      <point x="442" y="0"/>
      <point x="442" y="23"/>
      <point x="442" y="30" type="curve"/>
      <point x="337" y="52" type="line"/>
      <point x="337" y="279" type="line"/>
      <point x="515" y="648" type="line"/>
      <point x="580" y="670" type="line"/>
      <point x="580" y="677"/>
      <point x="580" y="699"/>
      <point x="565" y="700" type="curve"/>
      <point x="566" y="700"/>
      <point x="561" y="699"/>
      <point x="487" y="696" type="curve"/>
      <point x="379" y="700"/>
      <point x="383" y="700"/>
      <point x="383" y="700" type="curve"/>
      <point x="368" y="700"/>
      <point x="368" y="678"/>
      <point x="368" y="670" type="curve"/>
      <point x="450" y="648" type="line"/>
      <point x="307" y="321" type="line"/>
      <point x="147" y="648" type="line"/>
    </contour>
  </outline>
</glyph>
<glyph name="a" format="1">
  <advance width="521"/>
  <unicode hex="0061"/>
  <outline>
    <contour>
      <point x="124" y="45" type="line" name="hr00"/>
      <point x="160" y="146" type="line"/>
      <point x="346" y="156" type="line"/>
      <point x="386" y="45" type="line"/>
      <point x="318" y="31" type="line"/>
      <point x="318" y="22" smooth="yes"/>
      <point x="318" y="0" smooth="yes"/>
      <point x="336" y="0" type="curve" smooth="yes"/>
      <point x="336" y="0"/>
      <point x="352" y="0"/>
      <point x="423" y="3" type="curve"/>
      <point x="486" y="0"/>
      <point x="504" y="0"/>
      <point x="504" y="0" type="curve"/>
      <point x="521" y="0"/>
      <point x="521" y="23"/>
      <point x="521" y="30" type="curve"/>
      <point x="463" y="46" type="line"/>
      <point x="292" y="489" type="line"/>
      <point x="227" y="489" type="line"/>
      <point x="58" y="45" type="line"/>
      <point x="0" y="30" type="line"/>
      <point x="0" y="11"/>
      <point x="6" y="0"/>
      <point x="17" y="0" type="curve"/>
      <point x="86" y="3" type="line"/>
      <point x="165" y="0"/>
      <point x="173" y="0"/>
      <point x="173" y="0" type="curve"/>
      <point x="191" y="0"/>
      <point x="191" y="22"/>
      <point x="191" y="31" type="curve"/>
    </contour>
    <contour>
      <point x="253" y="412" type="line"/>
      <point x="330" y="198" type="line"/>
      <point x="177" y="198" type="line"/>
    </contour>
  </outline>
</glyph>
<glyph name="b" format="1">
  <advance width="489"/>
  <unicode hex="0062"/>
  <outline>
    <contour>
      <point x="290" y="0" type="line"/>
      <point x="390" y="0" smooth="yes"/>
      <point x="449" y="62" smooth="yes"/>
      <point x="449" y="136" type="curve" smooth="yes"/>
      <point x="449" y="188"/>
      <point x="415" y="240"/>
      <point x="341" y="262" type="curve"/>
      <point x="384" y="285" smooth="yes"/>
      <point x="408" y="326" smooth="yes"/>
      <point x="408" y="366" type="curve" smooth="yes" name="hr01"/>
      <point x="408" y="428"/>
      <point x="354" y="489"/>
      <point x="245" y="489" type="curve"/>
      <point x="156" y="486" type="line"/>
      <point x="88" y="489"/>
      <point x="73" y="489"/>
      <point x="73" y="489" type="curve"/>
      <point x="55" y="489"/>
      <point x="55" y="466"/>
      <point x="55" y="458" type="curve"/>
      <point x="119" y="444" type="line"/>
      <point x="119" y="45" type="line"/>
      <point x="55" y="31" type="line"/>
      <point x="55" y="23"/>
      <point x="55" y="0"/>
      <point x="73" y="0" type="curve"/>
      <point x="156" y="6" type="line"/>
    </contour>
    <contour>
      <point x="272" y="42" type="curve" smooth="yes"/>
      <point x="255" y="42"/>
      <point x="220" y="44"/>
      <point x="184" y="50" type="curve"/>
      <point x="191" y="230" type="line"/>
      <point x="259" y="238" type="line"/>
      <point x="335" y="235" smooth="yes"/>
      <point x="377" y="185" smooth="yes"/>
      <point x="377" y="136" type="curve" smooth="yes" name="hr02"/>
      <point x="377" y="89" smooth="yes"/>
      <point x="344" y="42" smooth="yes"/>
    </contour>
    <contour>
      <point x="237" y="451" type="line"/>
      <point x="302" y="449" smooth="yes"/>
      <point x="339" y="407" smooth="yes"/>
      <point x="339" y="364" type="curve" smooth="yes" name="hr03"/>
      <point x="339" y="323"/>
      <point x="307" y="279"/>
      <point x="242" y="274" type="curve"/>
      <point x="191" y="274" type="line"/>
      <point x="184" y="443" type="line"/>
    </contour>
  </outline>
</glyph>
<glyph name="c" format="1">
  <advance width="497"/>
  <unicode hex="0063"/>
  <outline>
    <contour>
      <point x="452" y="144" type="line" name="hr00"/>
      <point x="445" y="144"/>
      <point x="414" y="143"/>
      <point x="409" y="131" type="curve"/>
      <point x="392" y="63" type="line"/>
      <point x="362" y="46" smooth="yes"/>
      <point x="328" y="40" smooth="yes"/>
      <point x="285" y="40" type="curve" smooth="yes"/>
      <point x="188" y="40" smooth="yes"/>
      <point x="112" y="107" smooth="yes"/>
      <point x="112" y="246" type="curve" smooth="yes"/>
      <point x="112" y="329"/>
      <point x="142" y="399"/>
      <point x="184" y="430" type="curve"/>
      <point x="212" y="438" smooth="yes"/>
      <point x="250" y="445" smooth="yes"/>
      <point x="285" y="445" type="curve" smooth="yes"/>
      <point x="317" y="445"/>
      <point x="360" y="439"/>
      <point x="384" y="431" type="curve"/>
      <point x="384" y="359" type="line"/>
      <point x="384" y="343"/>
      <point x="419" y="343"/>
      <point x="427" y="343" type="curve"/>
      <point x="448" y="453" type="line"/>
      <point x="403" y="482" smooth="yes"/>
      <point x="349" y="497" smooth="yes"/>
      <point x="290" y="497" type="curve" smooth="yes"/>
      <point x="149" y="497" smooth="yes"/>
      <point x="35" y="411" smooth="yes"/>
      <point x="35" y="247" type="curve" smooth="yes"/>
      <point x="35" y="76" smooth="yes"/>
      <point x="139" y="-8" smooth="yes"/>
      <point x="278" y="-8" type="curve" smooth="yes"/>
      <point x="343" y="-8"/>
      <point x="402" y="7"/>
      <point x="446" y="38" type="curve"/>
    </contour>
  </outline>
</glyph>
<glyph name="d" format="1">
  <advance width="582"/>
  <unicode hex="0064"/>
  <outline>
    <contour>
      <point x="119" y="444" type="line"/>
      <point x="119" y="45" type="line"/>
      <point x="55" y="31" type="line"/>
      <point x="55" y="23"/>
      <point x="55" y="0"/>
      <point x="73" y="0" type="curve"/>
      <point x="157" y="6" type="line"/>
      <point x="294" y="-4" type="line" name="hr01"/>
      <point x="444" y="-4" smooth="yes"/>
      <point x="552" y="77" smooth="yes"/>
      <point x="552" y="253" type="curve" smooth="yes"/>
      <point x="552" y="438"/>
      <point x="419" y="497"/>
      <point x="283" y="497" type="curve"/>
      <point x="242" y="494"/>
      <point x="197" y="489"/>
      <point x="156" y="486" type="curve"/>
      <point x="88" y="489"/>
      <point x="73" y="489"/>
      <point x="73" y="489" type="curve" name="hr02"/>
      <point x="55" y="489"/>
      <point x="55" y="466"/>
      <point x="55" y="458" type="curve"/>
    </contour>
    <contour>
      <point x="196" y="251" type="line"/>
      <point x="186" y="440" type="line"/>
      <point x="219" y="446" smooth="yes"/>
      <point x="256" y="450" smooth="yes"/>
      <point x="285" y="450" type="curve" smooth="yes" name="hr03"/>
      <point x="394" y="450" smooth="yes"/>
      <point x="474" y="399" smooth="yes"/>
      <point x="474" y="246" type="curve" smooth="yes"/>
      <point x="474" y="105" smooth="yes"/>
      <point x="400" y="40" smooth="yes"/>
      <point x="302" y="40" type="curve" smooth="yes"/>
      <point x="265" y="40"/>
      <point x="223" y="43"/>
      <point x="186" y="50" type="curve"/>
    </contour>
  </outline>
</glyph>
<glyph name="e" format="1">
  <advance width="482"/>
  <unicode hex="0065"/>
  <outline>
    <contour>
      <point x="403" y="0" type="line" smooth="yes"/>
      <point x="422" y="0"/>
      <point x="429" y="1"/>
      <point x="431" y="12" type="curve"/>
      <point x="437" y="123" type="line"/>
      <point x="409" y="123" smooth="yes"/>
      <point x="399" y="121" smooth="yes"/>
      <point x="395" y="106" type="curve" smooth="yes"/>
      <point x="378" y="49" type="line" name="hr01"/>
      <point x="186" y="49" type="line"/>
      <point x="194" y="222" type="line"/>
      <point x="380" y="233" type="line"/>
      <point x="380" y="274" type="line"/>
      <point x="195" y="274" type="line"/>
      <point x="186" y="440" type="line"/>
      <point x="369" y="442" type="line"/>
      <point x="369" y="384" type="line" smooth="yes"/>
      <point x="369" y="369"/>
      <point x="402" y="369"/>
      <point x="410" y="369" type="curve"/>
      <point x="428" y="475" type="line"/>
      <point x="428" y="489" smooth="yes"/>
      <point x="416" y="489" smooth="yes"/>
      <point x="398" y="489" type="curve" smooth="yes" name="hr02"/>
      <point x="156" y="486" type="line"/>
      <point x="88" y="489"/>
      <point x="73" y="489"/>
      <point x="73" y="489" type="curve"/>
      <point x="55" y="489"/>
      <point x="55" y="466"/>
      <point x="55" y="458" type="curve"/>
      <point x="119" y="444" type="line"/>
      <point x="119" y="45" type="line"/>
      <point x="55" y="31" type="line"/>
      <point x="55" y="23"/>
      <point x="55" y="0"/>
      <point x="73" y="0" type="curve"/>
      <point x="156" y="6" type="line"/>
    </contour>
  </outline>
</glyph>
<glyph name="f" format="1">
  <advance width="441"/>
  <unicode hex="0066"/>
  <outline>
    <contour>
      <point x="373" y="223" type="line"/>
      <point x="373" y="264" type="line"/>
      <point x="195" y="264" type="line"/>
      <point x="186" y="440" type="line"/>
      <point x="347" y="442" type="line"/>
      <point x="347" y="384" type="line" smooth="yes"/>
      <point x="347" y="369"/>
      <point x="380" y="369"/>
      <point x="388" y="369" type="curve"/>
      <point x="406" y="475" type="line"/>
      <point x="406" y="489" smooth="yes"/>
      <point x="394" y="489" smooth="yes"/>
      <point x="376" y="489" type="curve" smooth="yes" name="hr01"/>
      <point x="156" y="486" type="line"/>
      <point x="88" y="489"/>
      <point x="73" y="489"/>
      <point x="73" y="489" type="curve"/>
      <point x="55" y="489"/>
      <point x="55" y="466"/>
      <point x="55" y="458" type="curve"/>
      <point x="119" y="444" type="line"/>
      <point x="119" y="45" type="line"/>
      <point x="55" y="31" type="line"/>
      <point x="55" y="23"/>
      <point x="55" y="0"/>
      <point x="73" y="0" type="curve"/>
      <point x="156" y="6" type="line"/>
      <point x="255" y="0" type="line"/>
      <point x="272" y="0"/>
      <point x="272" y="23"/>
      <point x="272" y="31" type="curve"/>
      <point x="187" y="45" type="line"/>
      <point x="194" y="212" type="line"/>
    </contour>
  </outline>
</glyph>
<glyph name="g" format="1">
  <advance width="519"/>
  <unicode hex="0067"/>
  <outline>
    <contour>
      <point x="461" y="82" type="line" name="hr00"/>
      <point x="461" y="257" type="line"/>
      <point x="257" y="257" type="line"/>
      <point x="257" y="216" type="line"/>
      <point x="393" y="209" type="line"/>
      <point x="404" y="74" type="line"/>
      <point x="374" y="51" smooth="yes"/>
      <point x="325" y="40" smooth="yes"/>
      <point x="285" y="40" type="curve" smooth="yes"/>
      <point x="187" y="40" smooth="yes"/>
      <point x="113" y="107" smooth="yes"/>
      <point x="113" y="246" type="curve" smooth="yes"/>
      <point x="113" y="329"/>
      <point x="141" y="399"/>
      <point x="184" y="430" type="curve"/>
      <point x="212" y="438" smooth="yes"/>
      <point x="250" y="445" smooth="yes"/>
      <point x="285" y="445" type="curve" smooth="yes"/>
      <point x="320" y="445"/>
      <point x="365" y="439"/>
      <point x="392" y="431" type="curve"/>
      <point x="392" y="359" type="line"/>
      <point x="392" y="343"/>
      <point x="426" y="343"/>
      <point x="434" y="343" type="curve"/>
      <point x="455" y="453" type="line"/>
      <point x="407" y="482" smooth="yes"/>
      <point x="352" y="497" smooth="yes"/>
      <point x="289" y="497" type="curve" smooth="yes"/>
      <point x="149" y="497" smooth="yes"/>
      <point x="35" y="411" smooth="yes"/>
      <point x="35" y="248" type="curve" smooth="yes"/>
      <point x="35" y="76" smooth="yes"/>
      <point x="138" y="-8" smooth="yes"/>
      <point x="277" y="-8" type="curve" smooth="yes"/>
      <point x="341" y="-8"/>
      <point x="406" y="10"/>
      <point x="469" y="53" type="curve"/>
    </contour>
  </outline>
</glyph>
<glyph name="h" format="1">
  <advance width="633"/>
  <unicode hex="0068"/>
  <outline>
    <contour>
      <point x="446" y="444" type="line" name="hr00"/>
      <point x="438" y="274" type="line"/>
      <point x="195" y="274" type="line"/>
      <point x="187" y="444" type="line"/>
      <point x="254" y="459" type="line"/>
      <point x="254" y="466" smooth="yes"/>
      <point x="254" y="489" smooth="yes"/>
      <point x="237" y="489" type="curve" smooth="yes"/>
      <point x="237" y="489"/>
      <point x="218" y="489"/>
      <point x="156" y="486" type="curve"/>
      <point x="88" y="489"/>
      <point x="73" y="489"/>
      <point x="73" y="489" type="curve"/>
      <point x="55" y="489"/>
      <point x="55" y="466"/>
      <point x="55" y="458" type="curve"/>
      <point x="119" y="444" type="line"/>
      <point x="119" y="45" type="line"/>
      <point x="55" y="31" type="line"/>
      <point x="55" y="23"/>
      <point x="55" y="0"/>
      <point x="73" y="0" type="curve"/>
      <point x="156" y="6" type="line"/>
      <point x="237" y="0" type="line"/>
      <point x="254" y="0"/>
      <point x="254" y="23"/>
      <point x="254" y="31" type="curve"/>
      <point x="187" y="45" type="line"/>
      <point x="194" y="222" type="line"/>
      <point x="438" y="232" type="line"/>
      <point x="446" y="45" type="line"/>
      <point x="379" y="31" type="line"/>
      <point x="379" y="23"/>
      <point x="379" y="0"/>
      <point x="397" y="0" type="curve"/>
      <point x="480" y="6" type="line"/>
      <point x="561" y="0" type="line"/>
      <point x="578" y="0"/>
      <point x="578" y="23"/>
      <point x="578" y="31" type="curve"/>
      <point x="514" y="45" type="line"/>
      <point x="514" y="444" type="line"/>
      <point x="578" y="459" type="line"/>
      <point x="578" y="466" smooth="yes"/>
      <point x="578" y="489" smooth="yes"/>
      <point x="561" y="489" type="curve" smooth="yes"/>
      <point x="561" y="489"/>
      <point x="542" y="489"/>
      <point x="480" y="486" type="curve"/>
      <point x="412" y="489"/>
      <point x="397" y="489"/>
      <point x="397" y="489" type="curve"/>
      <point x="379" y="489"/>
      <point x="379" y="466"/>
      <point x="379" y="458" type="curve"/>
    </contour>
  </outline>
</glyph>
<glyph name="i" format="1">
  <advance width="309"/>
  <unicode hex="0069"/>
  <outline>
    <contour>
      <point x="119" y="444" type="line" name="hr00"/>
      <point x="119" y="45" type="line"/>
      <point x="55" y="31" type="line"/>
      <point x="55" y="23"/>
      <point x="55" y="0"/>
      <point x="73" y="0" type="curve"/>
      <point x="156" y="6" type="line"/>
      <point x="237" y="0" type="line"/>
      <point x="254" y="0"/>
      <point x="254" y="23"/>
      <point x="254" y="31" type="curve"/>
      <point x="190" y="45" type="line"/>
      <point x="190" y="444" type="line"/>
      <point x="254" y="459" type="line"/>
      <point x="254" y="466" smooth="yes"/>
      <point x="254" y="489" smooth="yes"/>
      <point x="237" y="489" type="curve" smooth="yes"/>
      <point x="237" y="489"/>
      <point x="218" y="489"/>
      <point x="156" y="486" type="curve"/>
      <point x="88" y="489"/>
      <point x="73" y="489"/>
      <point x="73" y="489" type="curve"/>
      <point x="55" y="489"/>
      <point x="55" y="466"/>
      <point x="55" y="458" type="curve"/>
    </contour>
  </outline>
</glyph>
<glyph name="j" format="1">
  <advance width="279"/>
  <unicode hex="006A"/>
  <outline>
    <contour>
      <point x="109" y="114" type="line" name="hr00"/>
      <point x="109" y="33"/>
      <point x="67" y="-46"/>
      <point x="7" y="-120" type="curve"/>
      <point x="38" y="-141" type="line"/>
      <point x="124" y="-53" smooth="yes"/>
      <point x="180" y="37" smooth="yes"/>
      <point x="180" y="133" type="curve" smooth="yes"/>
      <point x="180" y="443" type="line"/>
      <point x="244" y="457" type="line"/>
      <point x="244" y="464" smooth="yes"/>
      <point x="244" y="489" smooth="yes"/>
      <point x="226" y="489" type="curve" smooth="yes"/>
      <point x="226" y="489"/>
      <point x="205" y="489"/>
      <point x="142" y="486" type="curve"/>
      <point x="74" y="489"/>
      <point x="48" y="489"/>
      <point x="48" y="489" type="curve"/>
      <point x="30" y="489"/>
      <point x="30" y="464"/>
      <point x="30" y="458" type="curve"/>
      <point x="50" y="453"/>
      <point x="88" y="448"/>
      <point x="109" y="443" type="curve"/>
    </contour>
  </outline>
</glyph>
<glyph name="k" format="1">
  <advance width="509"/>
  <unicode hex="006B"/>
  <outline>
    <contour>
      <point x="112" y="444" type="line"/>
      <point x="112" y="45" type="line"/>
      <point x="48" y="31" type="line"/>
      <point x="48" y="23"/>
      <point x="48" y="0"/>
      <point x="66" y="0" type="curve"/>
      <point x="149" y="6" type="line"/>
      <point x="239" y="0" type="line"/>
      <point x="256" y="0"/>
      <point x="256" y="23"/>
      <point x="256" y="31" type="curve"/>
      <point x="180" y="45" type="line"/>
      <point x="187" y="221" type="line"/>
      <point x="245" y="228" type="line"/>
      <point x="421" y="-21" type="line" name="hr01"/>
      <point x="471" y="-6" type="line"/>
      <point x="306" y="253" type="line"/>
      <point x="418" y="443" type="line"/>
      <point x="469" y="459" type="line"/>
      <point x="469" y="466" smooth="yes"/>
      <point x="466" y="489" smooth="yes"/>
      <point x="452" y="489" type="curve" smooth="yes"/>
      <point x="383" y="486" type="line"/>
      <point x="333" y="489" type="line"/>
      <point x="316" y="489"/>
      <point x="316" y="464"/>
      <point x="316" y="458" type="curve"/>
      <point x="358" y="445" type="line"/>
      <point x="259" y="265" type="line"/>
      <point x="188" y="265" type="line"/>
      <point x="180" y="444" type="line"/>
      <point x="237" y="459" type="line"/>
      <point x="237" y="466" smooth="yes"/>
      <point x="237" y="489" smooth="yes"/>
      <point x="220" y="489" type="curve" smooth="yes"/>
      <point x="220" y="489"/>
      <point x="211" y="489"/>
      <point x="149" y="486" type="curve"/>
      <point x="81" y="489"/>
      <point x="66" y="489"/>
      <point x="66" y="489" type="curve"/>
      <point x="48" y="489"/>
      <point x="48" y="466"/>
      <point x="48" y="458" type="curve"/>
    </contour>
  </outline>
</glyph>
<glyph name="l" format="1">
  <advance width="430"/>
  <unicode hex="006C"/>
  <outline>
    <contour>
      <point x="376" y="0" type="line" smooth="yes"/>
      <point x="395" y="0"/>
      <point x="402" y="1"/>
      <point x="404" y="12" type="curve"/>
      <point x="410" y="123" type="line"/>
      <point x="382" y="123"/>
      <point x="372" y="121"/>
      <point x="368" y="106" type="curve"/>
      <point x="351" y="49" type="line" name="hr01"/>
      <point x="190" y="49" type="line"/>
      <point x="190" y="444" type="line"/>
      <point x="254" y="459" type="line"/>
      <point x="254" y="472"/>
      <point x="251" y="489"/>
      <point x="237" y="489" type="curve"/>
      <point x="156" y="486" type="line"/>
      <point x="73" y="489" type="line"/>
      <point x="58" y="489"/>
      <point x="55" y="466"/>
      <point x="55" y="458" type="curve"/>
      <point x="119" y="444" type="line"/>
      <point x="119" y="45" type="line"/>
      <point x="55" y="31" type="line"/>
      <point x="55" y="23"/>
      <point x="55" y="0"/>
      <point x="73" y="0" type="curve" name="hr02"/>
      <point x="156" y="6" type="line"/>
    </contour>
  </outline>
</glyph>
<glyph name="m" format="1">
  <advance width="741"/>
  <unicode hex="006D"/>
  <outline>
    <contour>
      <point x="91" y="489" type="line"/>
      <point x="74" y="489"/>
      <point x="74" y="464"/>
      <point x="74" y="457" type="curve"/>
      <point x="137" y="443" type="line"/>
      <point x="114" y="45" type="line" name="hr01"/>
      <point x="50" y="31" type="line"/>
      <point x="50" y="23"/>
      <point x="50" y="0"/>
      <point x="67" y="0" type="curve"/>
      <point x="142" y="6" type="line"/>
      <point x="224" y="0" type="line"/>
      <point x="243" y="0"/>
      <point x="243" y="22"/>
      <point x="243" y="31" type="curve"/>
      <point x="223" y="35"/>
      <point x="195" y="40"/>
      <point x="174" y="45" type="curve"/>
      <point x="187" y="382" type="line"/>
      <point x="346" y="34" type="line"/>
      <point x="369" y="34" type="line"/>
      <point x="543" y="389" type="line"/>
      <point x="558" y="46" type="line"/>
      <point x="488" y="31" type="line"/>
      <point x="488" y="22"/>
      <point x="488" y="0"/>
      <point x="506" y="0" type="curve"/>
      <point x="589" y="6" type="line"/>
      <point x="674" y="0" type="line"/>
      <point x="691" y="0"/>
      <point x="691" y="23"/>
      <point x="691" y="31" type="curve"/>
      <point x="675" y="36"/>
      <point x="644" y="40"/>
      <point x="627" y="45" type="curve"/>
      <point x="603" y="442" type="line"/>
      <point x="666" y="457" type="line"/>
      <point x="666" y="470"/>
      <point x="660" y="489"/>
      <point x="649" y="489" type="curve"/>
      <point x="530" y="483" type="line"/>
      <point x="366" y="146" type="line"/>
      <point x="218" y="483" type="line"/>
    </contour>
  </outline>
</glyph>
<glyph name="n" format="1">
  <advance width="631"/>
  <unicode hex="006E"/>
  <outline>
    <contour>
      <point x="402" y="489" type="line" smooth="yes" name="hr00"/>
      <point x="385" y="489"/>
      <point x="385" y="464"/>
      <point x="385" y="457" type="curve"/>
      <point x="464" y="443" type="line"/>
      <point x="470" y="110" type="line"/>
      <point x="173" y="486" type="line"/>
      <point x="82" y="489"/>
      <point x="68" y="489"/>
      <point x="68" y="489" type="curve"/>
      <point x="50" y="489"/>
      <point x="50" y="464"/>
      <point x="50" y="457" type="curve"/>
      <point x="113" y="443" type="line"/>
      <point x="116" y="46" type="line"/>
      <point x="50" y="31" type="line"/>
      <point x="50" y="23"/>
      <point x="50" y="0"/>
      <point x="68" y="0" type="curve"/>
      <point x="143" y="6" type="line"/>
      <point x="235" y="0" type="line"/>
      <point x="253" y="0"/>
      <point x="253" y="22"/>
      <point x="253" y="31" type="curve"/>
      <point x="233" y="35"/>
      <point x="195" y="40"/>
      <point x="174" y="45" type="curve"/>
      <point x="166" y="385" type="line"/>
      <point x="476" y="0" type="line"/>
      <point x="521" y="0" type="line"/>
      <point x="524" y="443" type="line"/>
      <point x="581" y="458" type="line"/>
      <point x="581" y="465"/>
      <point x="581" y="487"/>
      <point x="564" y="489" type="curve"/>
      <point x="496" y="486" type="line"/>
    </contour>
  </outline>
</glyph>
<glyph name="o" format="1">
  <advance width="572"/>
  <unicode hex="006F"/>
  <outline>
    <contour>
      <point x="537" y="253" type="curve" smooth="yes" name="hr00"/>
      <point x="537" y="417" smooth="yes"/>
      <point x="425" y="497" smooth="yes"/>
      <point x="290" y="497" type="curve" smooth="yes"/>
      <point x="149" y="497" smooth="yes"/>
      <point x="35" y="411" smooth="yes"/>
      <point x="35" y="247" type="curve" smooth="yes"/>
      <point x="35" y="76" smooth="yes"/>
      <point x="139" y="-8" smooth="yes"/>
      <point x="279" y="-8" type="curve" smooth="yes"/>
      <point x="429" y="-8" smooth="yes"/>
      <point x="537" y="77" smooth="yes"/>
    </contour>
    <contour>
      <point x="113" y="246" type="curve" smooth="yes"/>
      <point x="113" y="331"/>
      <point x="142" y="402"/>
      <point x="184" y="434" type="curve"/>
      <point x="212" y="442" smooth="yes"/>
      <point x="250" y="449" smooth="yes"/>
      <point x="286" y="449" type="curve" smooth="yes"/>
      <point x="384" y="449" smooth="yes"/>
      <point x="459" y="382" smooth="yes"/>
      <point x="459" y="246" type="curve" smooth="yes"/>
      <point x="459" y="105" smooth="yes"/>
      <point x="384" y="36" smooth="yes"/>
      <point x="286" y="36" type="curve" smooth="yes"/>
      <point x="188" y="36" smooth="yes"/>
      <point x="113" y="105" smooth="yes"/>
    </contour>
  </outline>
</glyph>
<glyph name="p" format="1">
  <advance width="454"/>
  <unicode hex="0070"/>
  <outline>
    <contour>
      <point x="187" y="442" type="line" name="hr00"/>
      <point x="253" y="449" type="line"/>
      <point x="325" y="448" smooth="yes"/>
      <point x="357" y="394" smooth="yes"/>
      <point x="357" y="339" type="curve" smooth="yes"/>
      <point x="357" y="282"/>
      <point x="318" y="223"/>
      <point x="239" y="220" type="curve"/>
      <point x="196" y="222" type="line"/>
    </contour>
    <contour>
      <point x="156" y="486" type="line"/>
      <point x="88" y="489"/>
      <point x="73" y="489"/>
      <point x="73" y="489" type="curve"/>
      <point x="55" y="489"/>
      <point x="55" y="466"/>
      <point x="55" y="458" type="curve"/>
      <point x="119" y="444" type="line"/>
      <point x="119" y="45" type="line"/>
      <point x="55" y="31" type="line"/>
      <point x="55" y="23"/>
      <point x="55" y="0"/>
      <point x="73" y="0" type="curve"/>
      <point x="156" y="6" type="line"/>
      <point x="255" y="0" type="line"/>
      <point x="272" y="0"/>
      <point x="272" y="23"/>
      <point x="272" y="31" type="curve"/>
      <point x="187" y="45" type="line"/>
      <point x="194" y="177" type="line"/>
      <point x="234" y="179" type="line" smooth="yes"/>
      <point x="362" y="185" smooth="yes"/>
      <point x="424" y="261" smooth="yes"/>
      <point x="424" y="338" type="curve" smooth="yes"/>
      <point x="424" y="422"/>
      <point x="364" y="489"/>
      <point x="266" y="489" type="curve"/>
    </contour>
  </outline>
</glyph>
<glyph name="r" format="1">
  <advance width="489"/>
  <unicode hex="0072"/>
  <outline>
    <contour>
      <point x="194" y="206" type="line" name="hr00"/>
      <point x="253" y="215" type="line"/>
      <point x="419" y="-21" type="line"/>
      <point x="470" y="-6" type="line"/>
      <point x="323" y="231" type="line"/>
      <point x="387" y="256" smooth="yes"/>
      <point x="417" y="308" smooth="yes"/>
      <point x="417" y="353" type="curve" smooth="yes"/>
      <point x="417" y="427"/>
      <point x="358" y="489"/>
      <point x="258" y="489" type="curve"/>
      <point x="156" y="486" type="line"/>
      <point x="88" y="489"/>
      <point x="73" y="489"/>
      <point x="73" y="489" type="curve"/>
      <point x="55" y="489"/>
      <point x="55" y="466"/>
      <point x="55" y="458" type="curve"/>
      <point x="119" y="444" type="line"/>
      <point x="119" y="45" type="line"/>
      <point x="55" y="31" type="line"/>
      <point x="55" y="23"/>
      <point x="55" y="0"/>
      <point x="73" y="0" type="curve"/>
      <point x="156" y="6" type="line"/>
      <point x="246" y="0" type="line"/>
      <point x="263" y="0"/>
      <point x="263" y="23"/>
      <point x="263" y="31" type="curve"/>
      <point x="187" y="45" type="line"/>
    </contour>
    <contour>
      <point x="196" y="254" type="line"/>
      <point x="187" y="444" type="line"/>
      <point x="246" y="449" type="line"/>
      <point x="318" y="448" smooth="yes"/>
      <point x="351" y="400" smooth="yes"/>
      <point x="351" y="354" type="curve" smooth="yes"/>
      <point x="351" y="306"/>
      <point x="311" y="256"/>
      <point x="232" y="253" type="curve"/>
    </contour>
  </outline>
</glyph>
<glyph name="s" format="1">
  <advance width="432"/>
  <unicode hex="0073"/>
  <outline>
    <contour>
      <point x="387" y="122" type="curve" smooth="yes" name="hr00"/>
      <point x="387" y="163" smooth="yes"/>
      <point x="358" y="209" smooth="yes"/>
      <point x="297" y="241" type="curve" smooth="yes"/>
      <point x="172" y="307" type="line" smooth="yes"/>
      <point x="138" y="325" smooth="yes"/>
      <point x="120" y="349" smooth="yes"/>
      <point x="120" y="378" type="curve" smooth="yes"/>
      <point x="120" y="386"/>
      <point x="121" y="395"/>
      <point x="124" y="404" type="curve"/>
      <point x="147" y="438" smooth="yes"/>
      <point x="186" y="450" smooth="yes"/>
      <point x="225" y="450" type="curve" smooth="yes"/>
      <point x="252" y="450"/>
      <point x="280" y="444"/>
      <point x="300" y="437" type="curve"/>
      <point x="300" y="371" type="line"/>
      <point x="300" y="356"/>
      <point x="334" y="356"/>
      <point x="343" y="356" type="curve"/>
      <point x="364" y="471" type="line"/>
      <point x="320" y="486" smooth="yes"/>
      <point x="273" y="497" smooth="yes"/>
      <point x="230" y="497" type="curve" smooth="yes"/>
      <point x="117" y="497" smooth="yes"/>
      <point x="56" y="433" smooth="yes"/>
      <point x="56" y="366" type="curve" smooth="yes"/>
      <point x="56" y="324" smooth="yes"/>
      <point x="84" y="280" smooth="yes"/>
      <point x="135" y="252" type="curve" smooth="yes"/>
      <point x="263" y="183" type="line" smooth="yes"/>
      <point x="299" y="163" smooth="yes"/>
      <point x="312" y="133" smooth="yes"/>
      <point x="312" y="113" type="curve" smooth="yes"/>
      <point x="312" y="71" smooth="yes"/>
      <point x="282" y="38" smooth="yes"/>
      <point x="213" y="38" type="curve" smooth="yes"/>
      <point x="178" y="38"/>
      <point x="137" y="46"/>
      <point x="107" y="62" type="curve"/>
      <point x="107" y="134" type="line"/>
      <point x="107" y="149" smooth="yes"/>
      <point x="76" y="149" smooth="yes"/>
      <point x="69" y="149" type="curve" smooth="yes"/>
      <point x="67" y="149"/>
      <point x="48" y="58"/>
      <point x="45" y="26" type="curve"/>
      <point x="103" y="3" smooth="yes"/>
      <point x="157" y="-8" smooth="yes"/>
      <point x="208" y="-8" type="curve" smooth="yes"/>
      <point x="310" y="-8" smooth="yes"/>
      <point x="387" y="37" smooth="yes"/>
    </contour>
  </outline>
</glyph>
<glyph name="t" format="1">
  <advance width="457"/>
  <unicode hex="0074"/>
  <outline>
    <contour>
      <point x="193" y="441" type="line"/>
      <point x="193" y="48" type="line"/>
      <point x="112" y="31" type="line"/>
      <point x="112" y="23"/>
      <point x="112" y="0"/>
      <point x="131" y="0" type="curve"/>
      <point x="230" y="6" type="line"/>
      <point x="327" y="0" type="line"/>
      <point x="344" y="0"/>
      <point x="344" y="23"/>
      <point x="344" y="31" type="curve"/>
      <point x="263" y="48" type="line"/>
      <point x="263" y="441" type="line"/>
      <point x="301" y="441"/>
      <point x="340" y="443"/>
      <point x="377" y="443" type="curve"/>
      <point x="387" y="373" type="line"/>
      <point x="387" y="358"/>
      <point x="420" y="358"/>
      <point x="427" y="358" type="curve"/>
      <point x="437" y="476" type="line"/>
      <point x="435" y="489"/>
      <point x="424" y="489"/>
      <point x="407" y="489" type="curve" name="hr01"/>
      <point x="230" y="485" type="line"/>
      <point x="50" y="489" type="line"/>
      <point x="34" y="489"/>
      <point x="22" y="489"/>
      <point x="20" y="476" type="curve"/>
      <point x="30" y="358" type="line"/>
      <point x="38" y="358"/>
      <point x="70" y="358"/>
      <point x="70" y="373" type="curve"/>
      <point x="80" y="443" type="line"/>
    </contour>
  </outline>
</glyph>
<glyph name="u" format="1">
  <advance width="579"/>
  <unicode hex="0075"/>
  <outline>
    <contour>
      <point x="220" y="489" type="curve" smooth="yes" name="hr00"/>
      <point x="220" y="489"/>
      <point x="199" y="489"/>
      <point x="137" y="486" type="curve"/>
      <point x="67" y="489"/>
      <point x="62" y="489"/>
      <point x="62" y="489" type="curve"/>
      <point x="45" y="489"/>
      <point x="45" y="464"/>
      <point x="45" y="457" type="curve"/>
      <point x="99" y="443" type="line"/>
      <point x="99" y="155" type="line" smooth="yes"/>
      <point x="99" y="39" smooth="yes"/>
      <point x="177" y="-8" smooth="yes"/>
      <point x="300" y="-8" type="curve" smooth="yes"/>
      <point x="420" y="-8" smooth="yes"/>
      <point x="492" y="57" smooth="yes"/>
      <point x="492" y="155" type="curve" smooth="yes"/>
      <point x="492" y="443" type="line"/>
      <point x="539" y="458" type="line"/>
      <point x="539" y="466" smooth="yes"/>
      <point x="539" y="489" smooth="yes"/>
      <point x="519" y="489" type="curve" smooth="yes"/>
      <point x="519" y="489"/>
      <point x="511" y="488"/>
      <point x="465" y="486" type="curve"/>
      <point x="385" y="489" type="line"/>
      <point x="369" y="489"/>
      <point x="366" y="473"/>
      <point x="366" y="458" type="curve"/>
      <point x="436" y="443" type="line"/>
      <point x="436" y="153" type="line" smooth="yes"/>
      <point x="436" y="95" smooth="yes"/>
      <point x="394" y="41" smooth="yes"/>
      <point x="301" y="41" type="curve" smooth="yes"/>
      <point x="208" y="41" smooth="yes"/>
      <point x="170" y="87" smooth="yes"/>
      <point x="170" y="152" type="curve" smooth="yes"/>
      <point x="170" y="443" type="line"/>
      <point x="239" y="458" type="line"/>
      <point x="239" y="464" smooth="yes"/>
      <point x="239" y="489" smooth="yes"/>
    </contour>
  </outline>
</glyph>
<glyph name="v" format="1">
  <advance width="515"/>
  <unicode hex="0076"/>
  <outline>
    <contour>
      <point x="202" y="458" type="line" name="hr00"/>
      <point x="202" y="473"/>
      <point x="199" y="489"/>
      <point x="185" y="489" type="curve"/>
      <point x="107" y="486" type="line"/>
      <point x="43" y="489"/>
      <point x="34" y="489"/>
      <point x="34" y="489" type="curve"/>
      <point x="15" y="489"/>
      <point x="15" y="466"/>
      <point x="15" y="459" type="curve"/>
      <point x="64" y="443" type="line"/>
      <point x="229" y="0" type="line"/>
      <point x="291" y="0" type="line"/>
      <point x="451" y="444" type="line"/>
      <point x="500" y="459" type="line"/>
      <point x="500" y="466"/>
      <point x="500" y="487"/>
      <point x="482" y="489" type="curve"/>
      <point x="425" y="486" type="line"/>
      <point x="346" y="489" type="line"/>
      <point x="331" y="489"/>
      <point x="328" y="473"/>
      <point x="328" y="458" type="curve"/>
      <point x="346" y="454"/>
      <point x="369" y="449"/>
      <point x="388" y="444" type="curve"/>
      <point x="266" y="84" type="line"/>
      <point x="142" y="444" type="line"/>
    </contour>
  </outline>
</glyph>
<glyph name="w" format="1">
  <advance width="716"/>
  <unicode hex="0077"/>
  <outline>
    <contour>
      <point x="202" y="458" type="line" name="hr00"/>
      <point x="202" y="473"/>
      <point x="199" y="489"/>
      <point x="184" y="489" type="curve"/>
      <point x="106" y="486" type="line"/>
      <point x="33" y="489" type="line"/>
      <point x="18" y="489"/>
      <point x="15" y="472"/>
      <point x="15" y="459" type="curve"/>
      <point x="63" y="443" type="line"/>
      <point x="197" y="0" type="line"/>
      <point x="264" y="0" type="line"/>
      <point x="358" y="289" type="line"/>
      <point x="454" y="0" type="line"/>
      <point x="521" y="0" type="line"/>
      <point x="653" y="443" type="line"/>
      <point x="701" y="458" type="line"/>
      <point x="701" y="465"/>
      <point x="701" y="487"/>
      <point x="684" y="489" type="curve"/>
      <point x="627" y="486" type="line"/>
      <point x="548" y="489" type="line"/>
      <point x="532" y="489"/>
      <point x="529" y="473"/>
      <point x="529" y="458" type="curve"/>
      <point x="548" y="453"/>
      <point x="570" y="449"/>
      <point x="590" y="444" type="curve"/>
      <point x="491" y="95" type="line"/>
      <point x="378" y="454" type="line"/>
      <point x="354" y="454" type="line"/>
      <point x="237" y="95" type="line"/>
      <point x="141" y="444" type="line"/>
    </contour>
  </outline>
</glyph>
<glyph name="x" format="1">
  <advance width="566"/>
  <unicode hex="0078"/>
  <outline>
    <contour>
      <point x="335" y="31" type="line" name="hr00"/>
      <point x="335" y="22"/>
      <point x="335" y="0"/>
      <point x="353" y="0" type="curve"/>
      <point x="438" y="6" type="line"/>
      <point x="518" y="0" type="line"/>
      <point x="536" y="0"/>
      <point x="536" y="23"/>
      <point x="536" y="31" type="curve"/>
      <point x="521" y="36"/>
      <point x="489" y="41"/>
      <point x="473" y="46" type="curve"/>
      <point x="324" y="253" type="line"/>
      <point x="469" y="443" type="line"/>
      <point x="518" y="459" type="line"/>
      <point x="518" y="466"/>
      <point x="518" y="487"/>
      <point x="501" y="489" type="curve"/>
      <point x="444" y="486" type="line"/>
      <point x="361" y="489" type="line"/>
      <point x="346" y="489"/>
      <point x="343" y="473"/>
      <point x="343" y="458" type="curve"/>
      <point x="360" y="454"/>
      <point x="380" y="450"/>
      <point x="399" y="445" type="curve"/>
      <point x="291" y="299" type="line"/>
      <point x="186" y="444" type="line"/>
      <point x="239" y="458" type="line"/>
      <point x="239" y="473"/>
      <point x="236" y="489"/>
      <point x="221" y="489" type="curve"/>
      <point x="137" y="486" type="line"/>
      <point x="66" y="489" type="line"/>
      <point x="54" y="489"/>
      <point x="48" y="478"/>
      <point x="48" y="458" type="curve"/>
      <point x="105" y="443" type="line"/>
      <point x="245" y="247" type="line"/>
      <point x="89" y="46" type="line"/>
      <point x="30" y="30" type="line"/>
      <point x="30" y="23"/>
      <point x="30" y="0"/>
      <point x="48" y="0" type="curve"/>
      <point x="115" y="6" type="line"/>
      <point x="198" y="0" type="line"/>
      <point x="216" y="0"/>
      <point x="216" y="22"/>
      <point x="216" y="31" type="curve"/>
      <point x="199" y="35"/>
      <point x="178" y="39"/>
      <point x="160" y="44" type="curve"/>
      <point x="277" y="203" type="line"/>
      <point x="391" y="44" type="line"/>
    </contour>
  </outline>
</glyph>
<glyph name="y" format="1">
  <advance width="468"/>
  <unicode hex="0079"/>
  <outline>
    <contour>
      <point x="275" y="46" type="line" name="hr00"/>
      <point x="275" y="195" type="line"/>
      <point x="404" y="443" type="line"/>
      <point x="453" y="459" type="line"/>
      <point x="453" y="466"/>
      <point x="453" y="487"/>
      <point x="436" y="489" type="curve"/>
      <point x="378" y="486" type="line"/>
      <point x="302" y="489" type="line"/>
      <point x="287" y="489"/>
      <point x="284" y="473"/>
      <point x="284" y="458" type="curve"/>
      <point x="302" y="453"/>
      <point x="325" y="449"/>
      <point x="344" y="444" type="curve"/>
      <point x="246" y="240" type="line"/>
      <point x="140" y="444" type="line"/>
      <point x="198" y="458" type="line"/>
      <point x="198" y="473"/>
      <point x="196" y="489"/>
      <point x="181" y="489" type="curve"/>
      <point x="104" y="486" type="line"/>
      <point x="40" y="489"/>
      <point x="34" y="489"/>
      <point x="34" y="489" type="curve"/>
      <point x="15" y="489"/>
      <point x="15" y="466"/>
      <point x="15" y="459" type="curve"/>
      <point x="65" y="443" type="line"/>
      <point x="205" y="194" type="line"/>
      <point x="205" y="46" type="line"/>
      <point x="134" y="31" type="line"/>
      <point x="134" y="23"/>
      <point x="134" y="0"/>
      <point x="153" y="0" type="curve"/>
      <point x="242" y="6" type="line"/>
      <point x="329" y="0" type="line"/>
      <point x="346" y="0"/>
      <point x="346" y="23"/>
      <point x="346" y="31" type="curve"/>
    </contour>
  </outline>
</glyph>
<glyph name="z" format="1">
  <advance width="479"/>
  <unicode hex="007A"/>
  <outline>
    <contour>
      <point x="372" y="49" type="line"/>
      <point x="137" y="49" type="line"/>
      <point x="449" y="480" type="line"/>
      <point x="425" y="498" type="line"/>
      <point x="393" y="478" type="line"/>
      <point x="91" y="489" type="line" name="hr01"/>
      <point x="76" y="489"/>
      <point x="70" y="485"/>
      <point x="70" y="475" type="curve"/>
      <point x="88" y="366" type="line"/>
      <point x="96" y="366"/>
      <point x="129" y="366"/>
      <point x="129" y="382" type="curve"/>
      <point x="129" y="437" type="line" name="hr02"/>
      <point x="339" y="437" type="line"/>
      <point x="30" y="12" type="line"/>
      <point x="49" y="-9" type="line"/>
      <point x="81" y="9" type="line"/>
      <point x="404" y="0" type="line" name="hr03"/>
      <point x="423" y="0"/>
      <point x="431" y="2"/>
      <point x="431" y="15" type="curve"/>
      <point x="413" y="124" type="line" name="hr04"/>
      <point x="405" y="124"/>
      <point x="372" y="124"/>
      <point x="372" y="109" type="curve"/>
    </contour>
  </outline>
</glyph>
<glyph name="asciitilde" format="1">
  <advance width="510"/>
  <unicode hex="007E"/>
  <outline>
    <contour>
      <point x="423" y="321" type="line"/>
      <point x="400" y="303" smooth="yes"/>
      <point x="375" y="294" smooth="yes"/>
      <point x="345" y="294" type="curve" smooth="yes"/>
      <point x="289" y="294" smooth="yes"/>
      <point x="228" y="319" smooth="yes"/>
      <point x="168" y="319" type="curve" smooth="yes" name="hr01"/>
      <point x="131" y="319"/>
      <point x="95" y="308"/>
      <point x="65" y="275" type="curve"/>
      <point x="88" y="238" type="line" name="hr02"/>
      <point x="111" y="256" smooth="yes"/>
      <point x="135" y="263" smooth="yes"/>
      <point x="164" y="263" type="curve" smooth="yes" name="hr03"/>
      <point x="219" y="263" smooth="yes"/>
      <point x="281" y="238" smooth="yes"/>
      <point x="341" y="238" type="curve" smooth="yes" name="hr04"/>
      <point x="377" y="238"/>
      <point x="414" y="249"/>
      <point x="445" y="284" type="curve"/>
    </contour>
  </outline>
</glyph>
<glyph name="currency" format="1">
  <advance width="510"/>
  <unicode hex="00A4"/>
  <outline>
    <contour>
      <point x="107" y="281" type="curve" smooth="yes" name="hr00"/>
      <point x="107" y="248"/>
      <point x="117" y="218"/>
      <point x="135" y="193" type="curve"/>
      <point x="58" y="117" type="line"/>
      <point x="91" y="84" type="line"/>
      <point x="167" y="161" type="line"/>
      <point x="192" y="143" smooth="yes"/>
      <point x="222" y="133" smooth="yes"/>
      <point x="255" y="133" type="curve" smooth="yes"/>
      <point x="288" y="133"/>
      <point x="318" y="143"/>
      <point x="342" y="161" type="curve"/>
      <point x="419" y="84" type="line"/>
      <point x="452" y="117" type="line"/>
      <point x="374" y="193" type="line"/>
      <point x="392" y="218" smooth="yes"/>
      <point x="403" y="248" smooth="yes"/>
      <point x="403" y="281" type="curve" smooth="yes"/>
      <point x="403" y="314"/>
      <point x="392" y="344"/>
      <point x="374" y="368" type="curve"/>
      <point x="452" y="445" type="line"/>
      <point x="419" y="478" type="line"/>
      <point x="342" y="400" type="line"/>
      <point x="318" y="418" smooth="yes"/>
      <point x="288" y="429" smooth="yes"/>
      <point x="255" y="429" type="curve" smooth="yes"/>
      <point x="222" y="429"/>
      <point x="192" y="418"/>
      <point x="167" y="400" type="curve"/>
      <point x="91" y="478" type="line"/>
      <point x="58" y="445" type="line"/>
      <point x="135" y="368" type="line"/>
      <point x="117" y="344" smooth="yes"/>
      <point x="107" y="314" smooth="yes"/>
    </contour>
    <contour>
      <point x="170" y="281" type="curve" smooth="yes"/>
      <point x="170" y="329" smooth="yes"/>
      <point x="207" y="366" smooth="yes"/>
      <point x="255" y="366" type="curve" smooth="yes"/>
      <point x="303" y="366" smooth="yes"/>
      <point x="340" y="329" smooth="yes"/>
      <point x="340" y="281" type="curve" smooth="yes"/>
      <point x="340" y="233" smooth="yes"/>
      <point x="303" y="196" smooth="yes"/>
      <point x="255" y="196" type="curve" smooth="yes"/>
      <point x="207" y="196" smooth="yes"/>
      <point x="170" y="233" smooth="yes"/>
    </contour>
  </outline>
</glyph>
<glyph name="section" format="1">
  <advance width="427"/>
  <unicode hex="00A7"/>
  <outline>
    <contour>
      <point x="97" y="267" type="curve" smooth="yes"/>
      <point x="97" y="216"/>
      <point x="260" y="134"/>
      <point x="278" y="64" type="curve"/>
      <point x="276" y="-8" smooth="yes"/>
      <point x="202" y="-35" smooth="yes"/>
      <point x="135" y="-35" type="curve" smooth="yes"/>
      <point x="118" y="-35"/>
      <point x="102" y="-34"/>
      <point x="88" y="-31" type="curve"/>
      <point x="88" y="70" type="line" smooth="yes"/>
      <point x="88" y="84"/>
      <point x="54" y="84"/>
      <point x="46" y="84" type="curve"/>
      <point x="20" y="-70" type="line"/>
      <point x="60" y="-80" smooth="yes"/>
      <point x="99" y="-85" smooth="yes"/>
      <point x="136" y="-85" type="curve" smooth="yes"/>
      <point x="254" y="-85" smooth="yes"/>
      <point x="343" y="-32" smooth="yes"/>
      <point x="343" y="59" type="curve" smooth="yes"/>
      <point x="343" y="114"/>
      <point x="286" y="165"/>
      <point x="232" y="210" type="curve"/>
      <point x="311" y="262" smooth="yes"/>
      <point x="330" y="310" smooth="yes"/>
      <point x="330" y="360" type="curve" smooth="yes" name="hr01"/>
      <point x="330" y="411"/>
      <point x="167" y="493"/>
      <point x="149" y="563" type="curve"/>
      <point x="151" y="635" smooth="yes"/>
      <point x="225" y="662" smooth="yes"/>
      <point x="292" y="662" type="curve" smooth="yes"/>
      <point x="309" y="662"/>
      <point x="325" y="661"/>
      <point x="339" y="658" type="curve"/>
      <point x="339" y="557" type="line" smooth="yes"/>
      <point x="339" y="543"/>
      <point x="373" y="543"/>
      <point x="381" y="543" type="curve"/>
      <point x="407" y="697" type="line"/>
      <point x="367" y="707" smooth="yes"/>
      <point x="328" y="712" smooth="yes"/>
      <point x="291" y="712" type="curve" smooth="yes"/>
      <point x="173" y="712" smooth="yes"/>
      <point x="84" y="659" smooth="yes"/>
      <point x="84" y="568" type="curve" smooth="yes"/>
      <point x="84" y="513"/>
      <point x="141" y="461"/>
      <point x="195" y="417" type="curve"/>
      <point x="116" y="363" smooth="yes"/>
      <point x="97" y="316" smooth="yes"/>
    </contour>
    <contour>
      <point x="253" y="267" type="curve"/>
      <point x="253" y="267" smooth="yes"/>
      <point x="217" y="250" smooth="yes"/>
      <point x="197" y="250" type="curve" smooth="yes"/>
      <point x="163" y="250" smooth="yes"/>
      <point x="154" y="272" smooth="yes"/>
      <point x="154" y="299" type="curve" smooth="yes"/>
      <point x="154" y="327"/>
      <point x="174" y="360"/>
      <point x="174" y="360" type="curve"/>
      <point x="174" y="360" smooth="yes"/>
      <point x="210" y="377" smooth="yes"/>
      <point x="230" y="377" type="curve" smooth="yes"/>
      <point x="264" y="377" smooth="yes"/>
      <point x="273" y="355" smooth="yes"/>
      <point x="273" y="328" type="curve" smooth="yes"/>
      <point x="273" y="300"/>
      <point x="253" y="267"/>
    </contour>
  </outline>
</glyph>
<glyph name="dieresis" format="1">
  <advance width="374"/>
  <unicode hex="00A8"/>
  <outline>
    <contour>
      <point x="126" y="659" type="curve" smooth="yes" name="hr00"/>
      <point x="149" y="659" smooth="yes"/>
      <point x="157" y="633" smooth="yes"/>
      <point x="157" y="606" type="curve" smooth="yes"/>
      <point x="157" y="581"/>
      <point x="152" y="556"/>
      <point x="151" y="553" type="curve"/>
      <point x="151" y="553" smooth="yes"/>
      <point x="119" y="544" smooth="yes"/>
      <point x="102" y="544" type="curve" smooth="yes"/>
      <point x="76" y="544" smooth="yes"/>
      <point x="70" y="570" smooth="yes"/>
      <point x="70" y="596" type="curve" smooth="yes"/>
      <point x="70" y="623"/>
      <point x="76" y="649"/>
      <point x="77" y="652" type="curve"/>
      <point x="77" y="652" smooth="yes"/>
      <point x="110" y="659" smooth="yes"/>
    </contour>
    <contour>
      <point x="274" y="659" type="curve" smooth="yes"/>
      <point x="297" y="659" smooth="yes"/>
      <point x="305" y="633" smooth="yes"/>
      <point x="305" y="606" type="curve" smooth="yes"/>
      <point x="305" y="581"/>
      <point x="300" y="556"/>
      <point x="299" y="553" type="curve"/>
      <point x="299" y="553" smooth="yes"/>
      <point x="267" y="544" smooth="yes"/>
      <point x="250" y="544" type="curve" smooth="yes"/>
      <point x="224" y="544" smooth="yes"/>
      <point x="218" y="570" smooth="yes"/>
      <point x="218" y="596" type="curve" smooth="yes"/>
      <point x="218" y="623"/>
      <point x="224" y="649"/>
      <point x="225" y="652" type="curve"/>
      <point x="225" y="652" smooth="yes"/>
      <point x="258" y="659" smooth="yes"/>
    </contour>
  </outline>
</glyph>
<glyph name="ordfeminine" format="1">
  <advance width="313"/>
  <unicode hex="00AA"/>
  <outline>
    <contour>
      <point x="76" y="425" type="line"/>
      <point x="97" y="482" type="line"/>
      <point x="200" y="488" type="line"/>
      <point x="223" y="426" type="line"/>
      <point x="183" y="417" type="line"/>
      <point x="183" y="410" smooth="yes"/>
      <point x="183" y="395" smooth="yes"/>
      <point x="198" y="395" type="curve" smooth="yes"/>
      <point x="198" y="395"/>
      <point x="213" y="395"/>
      <point x="249" y="397" type="curve"/>
      <point x="287" y="395"/>
      <point x="297" y="395"/>
      <point x="297" y="395" type="curve"/>
      <point x="312" y="395"/>
      <point x="312" y="411"/>
      <point x="312" y="416" type="curve"/>
      <point x="277" y="426" type="line"/>
      <point x="175" y="689" type="line"/>
      <point x="134" y="689" type="line"/>
      <point x="33" y="425" type="line"/>
      <point x="-1" y="416" type="line"/>
      <point x="-1" y="403" smooth="yes"/>
      <point x="5" y="395" smooth="yes"/>
      <point x="13" y="395" type="curve" smooth="yes"/>
      <point x="24" y="395" smooth="yes"/>
      <point x="42" y="397" smooth="yes"/>
      <point x="54" y="397" type="curve" smooth="yes"/>
      <point x="101" y="395" type="line" smooth="yes"/>
      <point x="116" y="395"/>
      <point x="116" y="411"/>
      <point x="116" y="418" type="curve"/>
    </contour>
    <contour>
      <point x="292" y="349" type="line"/>
      <point x="23" y="349" type="line"/>
      <point x="28" y="306" type="line"/>
      <point x="54" y="302" smooth="yes"/>
      <point x="94" y="298" smooth="yes"/>
      <point x="135" y="298" type="curve" smooth="yes" name="hr01"/>
      <point x="196" y="298"/>
      <point x="261" y="304"/>
      <point x="298" y="321" type="curve"/>
    </contour>
    <contour>
      <point x="148" y="629" type="line"/>
      <point x="189" y="517" type="line"/>
      <point x="108" y="517" type="line"/>
    </contour>
  </outline>
</glyph>
<glyph name="acute" format="1">
  <advance width="317"/>
  <unicode hex="00B4"/>
  <outline>
    <contour>
      <point x="61" y="518" type="line" name="hr00"/>
      <point x="97" y="528" smooth="yes"/>
      <point x="195" y="558" smooth="yes"/>
      <point x="262" y="601" type="curve" smooth="yes"/>
      <point x="266" y="603" smooth="yes"/>
      <point x="267" y="608" smooth="yes"/>
      <point x="267" y="613" type="curve" smooth="yes"/>
      <point x="267" y="633"/>
      <point x="247" y="674"/>
      <point x="242" y="680" type="curve"/>
      <point x="147" y="603"/>
      <point x="50" y="537"/>
      <point x="50" y="537" type="curve"/>
    </contour>
  </outline>
</glyph>
<glyph name="cedilla" format="1">
  <advance width="410"/>
  <unicode hex="00B8"/>
  <outline>
    <contour>
      <point x="160" y="-83" type="line" name="hr00"/>
      <point x="213" y="-85" smooth="yes"/>
      <point x="236" y="-114" smooth="yes"/>
      <point x="236" y="-142" type="curve" smooth="yes"/>
      <point x="236" y="-167" smooth="yes"/>
      <point x="217" y="-191" smooth="yes"/>
      <point x="184" y="-191" type="curve" smooth="yes"/>
      <point x="165" y="-191"/>
      <point x="144" y="-184"/>
      <point x="129" y="-172" type="curve"/>
      <point x="110" y="-202" type="line"/>
      <point x="128" y="-218" smooth="yes"/>
      <point x="157" y="-233" smooth="yes"/>
      <point x="196" y="-233" type="curve" smooth="yes"/>
      <point x="259" y="-233" smooth="yes"/>
      <point x="299" y="-186" smooth="yes"/>
      <point x="299" y="-141" type="curve" smooth="yes"/>
      <point x="299" y="-102"/>
      <point x="272" y="-64"/>
      <point x="209" y="-56" type="curve"/>
      <point x="231" y="15" type="line"/>
      <point x="199" y="15" type="line"/>
    </contour>
  </outline>
</glyph>
<glyph name="ordmasculine" format="1">
  <advance width="343"/>
  <unicode hex="00BA"/>
  <outline>
    <contour>
      <point x="324" y="548" type="curve" smooth="yes" name="hr00"/>
      <point x="324" y="646" smooth="yes"/>
      <point x="256" y="694" smooth="yes"/>
      <point x="173" y="694" type="curve" smooth="yes"/>
      <point x="87" y="694" smooth="yes"/>
      <point x="18" y="643" smooth="yes"/>
      <point x="18" y="544" type="curve" smooth="yes"/>
      <point x="18" y="442" smooth="yes"/>
      <point x="81" y="390" smooth="yes"/>
      <point x="166" y="390" type="curve" smooth="yes"/>
      <point x="257" y="390" smooth="yes"/>
      <point x="324" y="442" smooth="yes"/>
    </contour>
    <contour>
      <point x="72" y="544" type="curve" smooth="yes"/>
      <point x="72" y="594"/>
      <point x="88" y="635"/>
      <point x="112" y="653" type="curve"/>
      <point x="128" y="658" smooth="yes"/>
      <point x="150" y="662" smooth="yes"/>
      <point x="171" y="662" type="curve" smooth="yes"/>
      <point x="227" y="662" smooth="yes"/>
      <point x="269" y="623" smooth="yes"/>
      <point x="269" y="544" type="curve" smooth="yes"/>
      <point x="269" y="460" smooth="yes"/>
      <point x="227" y="421" smooth="yes"/>
      <point x="171" y="421" type="curve" smooth="yes"/>
      <point x="115" y="421" smooth="yes"/>
      <point x="72" y="460" smooth="yes"/>
    </contour>
    <contour>
      <point x="303" y="349" type="line"/>
      <point x="34" y="349" type="line"/>
      <point x="39" y="306" type="line"/>
      <point x="65" y="302" smooth="yes"/>
      <point x="105" y="298" smooth="yes"/>
      <point x="146" y="298" type="curve" smooth="yes"/>
      <point x="207" y="298"/>
      <point x="272" y="304"/>
      <point x="309" y="321" type="curve"/>
    </contour>
  </outline>
</glyph>
<glyph name="questiondown" format="1">
  <advance width="430"/>
  <unicode hex="00BF"/>
  <outline>
    <contour>
      <point x="350" y="-46" type="line" name="hr00"/>
      <point x="342" y="-46" smooth="yes"/>
      <point x="308" y="-46" smooth="yes"/>
      <point x="308" y="-60" type="curve" smooth="yes"/>
      <point x="308" y="-161" type="line"/>
      <point x="294" y="-164" smooth="yes"/>
      <point x="278" y="-165" smooth="yes"/>
      <point x="261" y="-165" type="curve" smooth="yes"/>
      <point x="194" y="-165"/>
      <point x="120" y="-138"/>
      <point x="118" y="-66" type="curve"/>
      <point x="133" y="16"/>
      <point x="267" y="124"/>
      <point x="269" y="173" type="curve"/>
      <point x="269" y="174"/>
      <point x="268" y="212"/>
      <point x="261" y="272" type="curve"/>
      <point x="227" y="272" type="line"/>
      <point x="227" y="222" type="line" smooth="yes"/>
      <point x="227" y="156" smooth="yes"/>
      <point x="53" y="49" smooth="yes"/>
      <point x="53" y="-71" type="curve" smooth="yes"/>
      <point x="53" y="-162" smooth="yes"/>
      <point x="142" y="-215" smooth="yes"/>
      <point x="260" y="-215" type="curve" smooth="yes"/>
      <point x="297" y="-215"/>
      <point x="336" y="-210"/>
      <point x="376" y="-200" type="curve"/>
    </contour>
    <contour>
      <point x="231" y="361" type="curve" smooth="yes"/>
      <point x="252" y="361"/>
      <point x="288" y="367"/>
      <point x="288" y="367" type="curve"/>
      <point x="288" y="367" smooth="yes"/>
      <point x="296" y="394" smooth="yes"/>
      <point x="296" y="419" type="curve" smooth="yes"/>
      <point x="296" y="444" smooth="yes"/>
      <point x="289" y="468" smooth="yes"/>
      <point x="259" y="468" type="curve" smooth="yes"/>
      <point x="237" y="468"/>
      <point x="202" y="460"/>
      <point x="202" y="460" type="curve"/>
      <point x="202" y="460" smooth="yes"/>
      <point x="195" y="434" smooth="yes"/>
      <point x="195" y="411" type="curve" smooth="yes"/>
      <point x="195" y="384" smooth="yes"/>
      <point x="204" y="361" smooth="yes"/>
    </contour>
  </outline>
</glyph>
<glyph name="AE" format="1">
  <advance width="865"/>
  <unicode hex="00C6"/>
  <outline>
    <contour>
      <point x="725" y="555" type="line" smooth="yes"/>
      <point x="725" y="541"/>
      <point x="760" y="541"/>
      <point x="768" y="541" type="curve"/>
      <point x="792" y="690" type="line"/>
      <point x="791" y="700" smooth="yes"/>
      <point x="778" y="700" smooth="yes"/>
      <point x="760" y="700" type="curve" smooth="yes" name="hr01"/>
      <point x="421" y="696" type="line"/>
      <point x="338" y="700" type="line"/>
      <point x="62" y="52" type="line"/>
      <point x="-13" y="30" type="line"/>
      <point x="-13" y="23" smooth="yes"/>
      <point x="-13" y="0" smooth="yes"/>
      <point x="2" y="0" type="curve" smooth="yes"/>
      <point x="2" y="0"/>
      <point x="6" y="0"/>
      <point x="93" y="4" type="curve" name="hr02"/>
      <point x="201" y="0"/>
      <point x="204" y="0"/>
      <point x="204" y="0" type="curve" name="hr03"/>
      <point x="219" y="0"/>
      <point x="219" y="22"/>
      <point x="219" y="30" type="curve"/>
      <point x="124" y="52" type="line"/>
      <point x="192" y="217" type="line"/>
      <point x="443" y="229" type="line"/>
      <point x="481" y="52" type="line"/>
      <point x="391" y="30" type="line"/>
      <point x="391" y="22"/>
      <point x="391" y="0"/>
      <point x="406" y="0" type="curve"/>
      <point x="525" y="8" type="line"/>
      <point x="816" y="0" smooth="yes"/>
      <point x="819" y="0" smooth="yes"/>
      <point x="821" y="0" type="curve" smooth="yes"/>
      <point x="835" y="0" smooth="yes"/>
      <point x="841" y="3" smooth="yes"/>
      <point x="842" y="12" type="curve" smooth="yes"/>
      <point x="850" y="163" type="line"/>
      <point x="843" y="163"/>
      <point x="808" y="163"/>
      <point x="808" y="149" type="curve"/>
      <point x="782" y="55" type="line" name="hr04"/>
      <point x="561" y="55" type="line"/>
      <point x="502" y="325" type="line"/>
      <point x="772" y="339" type="line"/>
      <point x="772" y="382" type="line"/>
      <point x="490" y="382" type="line"/>
      <point x="432" y="646" type="line"/>
      <point x="725" y="649" type="line"/>
    </contour>
    <contour>
      <point x="359" y="622" type="line"/>
      <point x="434" y="273" type="line"/>
      <point x="215" y="273" type="line"/>
    </contour>
  </outline>
</glyph>
<glyph name="multiply" format="1">
  <advance width="510"/>
  <unicode hex="00D7"/>
  <outline>
    <contour>
      <point x="132" y="115" type="line" name="hr00"/>
      <point x="254" y="237" type="line"/>
      <point x="377" y="115" type="line"/>
      <point x="417" y="155" type="line"/>
      <point x="294" y="277" type="line"/>
      <point x="417" y="400" type="line"/>
      <point x="377" y="440" type="line"/>
      <point x="254" y="317" type="line"/>
      <point x="132" y="440" type="line"/>
      <point x="92" y="400" type="line"/>
      <point x="214" y="277" type="line"/>
      <point x="92" y="155" type="line"/>
    </contour>
  </outline>
</glyph>
<glyph name="Thorn" format="1">
  <advance width="562"/>
  <unicode hex="00DE"/>
  <outline>
    <contour>
      <point x="307" y="534" type="line"/>
      <point x="413" y="534" smooth="yes"/>
      <point x="460" y="454" smooth="yes"/>
      <point x="460" y="374" type="curve" smooth="yes"/>
      <point x="460" y="292"/>
      <point x="410" y="203"/>
      <point x="289" y="203" type="curve"/>
      <point x="212" y="208" type="line"/>
      <point x="153" y="154" type="line" name="hr01"/>
      <point x="281" y="161" type="line" smooth="yes" name="hr02"/>
      <point x="451" y="170" smooth="yes"/>
      <point x="532" y="270" smooth="yes"/>
      <point x="532" y="373" type="curve" smooth="yes"/>
      <point x="532" y="486"/>
      <point x="455" y="576"/>
      <point x="325" y="576" type="curve"/>
      <point x="167" y="572" type="line"/>
      <point x="207" y="524" type="line"/>
    </contour>
    <component  base="I"/>
  </outline>
</glyph>
<glyph name="ae" format="1">
  <advance width="672"/>
  <unicode hex="00E6"/>
  <outline>
    <contour>
      <point x="391" y="6" type="line"/>
      <point x="604" y="0" smooth="yes"/>
      <point x="607" y="0" smooth="yes"/>
      <point x="609" y="0" type="curve" smooth="yes" name="hr01"/>
      <point x="622" y="0"/>
      <point x="627" y="3"/>
      <point x="629" y="12" type="curve"/>
      <point x="635" y="123" type="line"/>
      <point x="607" y="123" smooth="yes"/>
      <point x="597" y="121" smooth="yes"/>
      <point x="593" y="106" type="curve" smooth="yes"/>
      <point x="576" y="49" type="line" name="hr02"/>
      <point x="423" y="49" type="line"/>
      <point x="382" y="223" type="line"/>
      <point x="544" y="233" type="line"/>
      <point x="544" y="274" type="line"/>
      <point x="370" y="274" type="line"/>
      <point x="331" y="440" type="line"/>
      <point x="533" y="442" type="line"/>
      <point x="533" y="384" type="line" smooth="yes"/>
      <point x="533" y="369"/>
      <point x="566" y="369"/>
      <point x="574" y="369" type="curve"/>
      <point x="592" y="475" type="line"/>
      <point x="592" y="489" smooth="yes"/>
      <point x="580" y="489" smooth="yes"/>
      <point x="562" y="489" type="curve" smooth="yes" name="hr03"/>
      <point x="320" y="486" type="line"/>
      <point x="250" y="489" type="line"/>
      <point x="47" y="46" type="line"/>
      <point x="-10" y="31" type="line"/>
      <point x="-10" y="23" smooth="yes"/>
      <point x="-10" y="0" smooth="yes"/>
      <point x="7" y="0" type="curve" smooth="yes"/>
      <point x="7" y="0"/>
      <point x="8" y="0"/>
      <point x="75" y="3" type="curve"/>
      <point x="156" y="0"/>
      <point x="157" y="0"/>
      <point x="157" y="0" type="curve"/>
      <point x="174" y="0"/>
      <point x="174" y="22"/>
      <point x="174" y="31" type="curve"/>
      <point x="106" y="45" type="line"/>
      <point x="151" y="147" type="line"/>
      <point x="325" y="156" type="line"/>
      <point x="351" y="46" type="line"/>
      <point x="286" y="31" type="line" name="hr04"/>
      <point x="286" y="22"/>
      <point x="286" y="0"/>
      <point x="303" y="0" type="curve"/>
    </contour>
    <contour>
      <point x="266" y="410" type="line"/>
      <point x="316" y="198" type="line"/>
      <point x="174" y="198" type="line"/>
    </contour>
  </outline>
</glyph>
<glyph name="eth" format="1">
  <advance width="582"/>
  <unicode hex="00F0"/>
  <outline>
    <contour>
      <point x="59" y="221" type="line"/>
      <point x="361" y="234" type="line"/>
      <point x="361" y="273" type="line" name="hr01"/>
      <point x="59" y="273" type="line"/>
    </contour>
    <component  base="d"/>
  </outline>
</glyph>
<glyph name="divide" format="1">
  <advance width="510"/>
  <unicode hex="00F7"/>
  <outline>
    <contour>
      <point x="73" y="249" type="line" name="hr00"/>
      <point x="437" y="249" type="line"/>
      <point x="437" y="306" type="line"/>
      <point x="73" y="306" type="line"/>
    </contour>
    <contour>
      <point x="215" y="402" type="curve" smooth="yes"/>
      <point x="215" y="380" smooth="yes"/>
      <point x="233" y="362" smooth="yes"/>
      <point x="255" y="362" type="curve" smooth="yes"/>
      <point x="277" y="362" smooth="yes"/>
      <point x="296" y="380" smooth="yes"/>
      <point x="296" y="402" type="curve" smooth="yes"/>
      <point x="296" y="424" smooth="yes"/>
      <point x="277" y="443" smooth="yes"/>
      <point x="255" y="443" type="curve" smooth="yes"/>
      <point x="233" y="443" smooth="yes"/>
      <point x="215" y="424" smooth="yes"/>
    </contour>
    <contour>
      <point x="215" y="152" type="curve" smooth="yes"/>
      <point x="215" y="130" smooth="yes"/>
      <point x="233" y="112" smooth="yes"/>
      <point x="255" y="112" type="curve" smooth="yes"/>
      <point x="277" y="112" smooth="yes"/>
      <point x="296" y="130" smooth="yes"/>
      <point x="296" y="152" type="curve" smooth="yes"/>
      <point x="296" y="174" smooth="yes"/>
      <point x="277" y="193" smooth="yes"/>
      <point x="255" y="193" type="curve" smooth="yes"/>
      <point x="233" y="193" smooth="yes"/>
      <point x="215" y="174" smooth="yes"/>
    </contour>
  </outline>
</glyph>
<glyph name="thorn" format="1">
  <advance width="454"/>
  <unicode hex="00FE"/>
  <outline>
    <contour>
      <point x="190" y="355" type="line" name="hr00"/>
      <point x="253" y="362" type="line"/>
      <point x="325" y="361" smooth="yes"/>
      <point x="357" y="307" smooth="yes"/>
      <point x="357" y="252" type="curve" smooth="yes"/>
      <point x="357" y="195" smooth="yes"/>
      <point x="318" y="133" smooth="yes"/>
      <point x="239" y="133" type="curve" smooth="yes"/>
      <point x="190" y="133" type="line"/>
    </contour>
    <contour>
      <point x="156" y="402" type="line"/>
      <point x="139" y="357" type="line"/>
      <point x="139" y="88" type="line"/>
      <point x="186" y="88" type="line"/>
      <point x="234" y="92" type="line" smooth="yes"/>
      <point x="362" y="103" smooth="yes"/>
      <point x="424" y="174" smooth="yes"/>
      <point x="424" y="251" type="curve" smooth="yes"/>
      <point x="424" y="335"/>
      <point x="364" y="402"/>
      <point x="266" y="402" type="curve"/>
    </contour>
    <component  base="i"/>
  </outline>
</glyph>
<glyph name="Lslash" format="1">
  <advance width="521"/>
  <unicode hex="0141"/>
  <outline>
    <contour>
      <point x="53" y="280" type="line" name="hr00"/>
      <point x="316" y="431" type="line"/>
      <point x="297" y="469" type="line"/>
      <point x="27" y="332" type="line"/>
    </contour>
    <component  base="L"/>
  </outline>
</glyph>
<glyph name="lslash" format="1">
  <advance width="430"/>
  <unicode hex="0142"/>
  <outline>
    <contour>
      <point x="53" y="168" type="line" name="hr00"/>
      <point x="290" y="304" type="line"/>
      <point x="272" y="339" type="line"/>
      <point x="29" y="215" type="line"/>
    </contour>
    <component  base="l"/>
  </outline>
</glyph>
<glyph name="Eng" format="1">
  <advance width="790"/>
  <unicode hex="014A"/>
  <outline>
    <contour>
      <point x="615" y="648" type="line" name="hr00"/>
      <point x="621" y="126" type="line"/>
      <point x="200" y="696" type="line"/>
      <point x="77" y="700"/>
      <point x="65" y="700"/>
      <point x="65" y="700" type="curve"/>
      <point x="50" y="700"/>
      <point x="50" y="676"/>
      <point x="50" y="669" type="curve"/>
      <point x="132" y="647" type="line"/>
      <point x="132" y="52" type="line"/>
      <point x="50" y="30" type="line"/>
      <point x="50" y="23" smooth="yes"/>
      <point x="50" y="0" smooth="yes"/>
      <point x="65" y="0" type="curve" smooth="yes"/>
      <point x="65" y="0"/>
      <point x="76" y="0"/>
      <point x="163" y="4" type="curve"/>
      <point x="284" y="0" type="line" smooth="yes"/>
      <point x="300" y="0"/>
      <point x="300" y="22"/>
      <point x="300" y="30" type="curve"/>
      <point x="194" y="52" type="line"/>
      <point x="186" y="583" type="line"/>
      <point x="587" y="38" type="line"/>
      <point x="571" y="-56"/>
      <point x="523" y="-146"/>
      <point x="457" y="-233" type="curve"/>
      <point x="487" y="-254" type="line"/>
      <point x="599" y="-130"/>
      <point x="672" y="-2"/>
      <point x="672" y="136" type="curve"/>
      <point x="675" y="648" type="line"/>
      <point x="750" y="670" type="line"/>
      <point x="750" y="677" smooth="yes"/>
      <point x="750" y="700" smooth="yes"/>
      <point x="735" y="700" type="curve" smooth="yes"/>
      <point x="735" y="700"/>
      <point x="734" y="700"/>
      <point x="647" y="696" type="curve"/>
      <point x="526" y="700" type="line" smooth="yes"/>
      <point x="510" y="700"/>
      <point x="510" y="678"/>
      <point x="510" y="670" type="curve"/>
    </contour>
  </outline>
</glyph>
<glyph name="eng" format="1">
  <advance width="631"/>
  <unicode hex="014B"/>
  <outline>
    <contour>
      <point x="402" y="489" type="line" smooth="yes"/>
      <point x="385" y="489"/>
      <point x="385" y="464"/>
      <point x="385" y="457" type="curve"/>
      <point x="464" y="443" type="line"/>
      <point x="470" y="110" type="line"/>
      <point x="173" y="486" type="line"/>
      <point x="82" y="489"/>
      <point x="68" y="489"/>
      <point x="68" y="489" type="curve"/>
      <point x="50" y="489"/>
      <point x="50" y="464"/>
      <point x="50" y="457" type="curve"/>
      <point x="113" y="443" type="line"/>
      <point x="116" y="46" type="line"/>
      <point x="50" y="31" type="line"/>
      <point x="50" y="23"/>
      <point x="50" y="0"/>
      <point x="68" y="0" type="curve"/>
      <point x="143" y="6" type="line"/>
      <point x="235" y="0" type="line"/>
      <point x="253" y="0"/>
      <point x="253" y="22"/>
      <point x="253" y="31" type="curve"/>
      <point x="233" y="35"/>
      <point x="195" y="40"/>
      <point x="174" y="45" type="curve"/>
      <point x="166" y="385" type="line"/>
      <point x="449" y="33" type="line" name="hr01"/>
      <point x="445" y="-62"/>
      <point x="421" y="-151"/>
      <point x="364" y="-243" type="curve"/>
      <point x="391" y="-262" type="line"/>
      <point x="484" y="-142" smooth="yes"/>
      <point x="521" y="-17" smooth="yes"/>
      <point x="521" y="72" type="curve" smooth="yes"/>
      <point x="524" y="443" type="line"/>
      <point x="581" y="458" type="line"/>
      <point x="581" y="465"/>
      <point x="581" y="487"/>
      <point x="564" y="489" type="curve"/>
      <point x="496" y="486" type="line"/>
    </contour>
  </outline>
</glyph>
<glyph name="OE" format="1">
  <advance width="956"/>
  <unicode hex="0152"/>
  <outline>
    <contour>
      <point x="508" y="638" type="curve" name="hr00"/>
      <point x="523" y="696" type="line"/>
      <point x="467" y="705" smooth="yes"/>
      <point x="412" y="712" smooth="yes"/>
      <point x="355" y="712" type="curve" smooth="yes"/>
      <point x="178" y="712" smooth="yes"/>
      <point x="40" y="594" smooth="yes"/>
      <point x="40" y="341" type="curve" smooth="yes"/>
      <point x="40" y="98" smooth="yes"/>
      <point x="179" y="-12" smooth="yes"/>
      <point x="361" y="-12" type="curve" smooth="yes"/>
      <point x="411" y="-12"/>
      <point x="472" y="-5"/>
      <point x="525" y="8" type="curve"/>
      <point x="545" y="52" type="line"/>
      <point x="518" y="68" type="line"/>
      <point x="464" y="47" smooth="yes"/>
      <point x="422" y="36" smooth="yes"/>
      <point x="375" y="36" type="curve" smooth="yes"/>
      <point x="235" y="36" smooth="yes"/>
      <point x="128" y="141" smooth="yes"/>
      <point x="128" y="355" type="curve" smooth="yes"/>
      <point x="128" y="484"/>
      <point x="167" y="591"/>
      <point x="230" y="639" type="curve"/>
      <point x="276" y="655" smooth="yes"/>
      <point x="318" y="661" smooth="yes"/>
      <point x="360" y="661" type="curve" smooth="yes"/>
      <point x="409" y="661"/>
      <point x="457" y="652"/>
    </contour>
    <component  base="E" xOffset="355"/>
  </outline>
</glyph>
<glyph name="oe" format="1">
  <advance width="724"/>
  <unicode hex="0153"/>
  <outline>
    <contour>
      <point x="395" y="486" type="line"/>
      <point x="356" y="492" smooth="yes"/>
      <point x="314" y="497" smooth="yes"/>
      <point x="272" y="497" type="curve" smooth="yes"/>
      <point x="138" y="497" smooth="yes"/>
      <point x="35" y="415" smooth="yes"/>
      <point x="35" y="239" type="curve" smooth="yes"/>
      <point x="35" y="69" smooth="yes"/>
      <point x="139" y="-8" smooth="yes"/>
      <point x="277" y="-8" type="curve" smooth="yes"/>
      <point x="314" y="-8"/>
      <point x="359" y="-4"/>
      <point x="398" y="6" type="curve"/>
      <point x="645" y="0" type="line" smooth="yes" name="hr01"/>
      <point x="664" y="0"/>
      <point x="671" y="1"/>
      <point x="673" y="12" type="curve"/>
      <point x="679" y="123" type="line"/>
      <point x="651" y="123" smooth="yes"/>
      <point x="641" y="121" smooth="yes"/>
      <point x="637" y="106" type="curve" smooth="yes"/>
      <point x="620" y="49" type="line" name="hr02"/>
      <point x="428" y="49" type="line"/>
      <point x="436" y="222" type="line"/>
      <point x="622" y="233" type="line"/>
      <point x="622" y="274" type="line"/>
      <point x="437" y="274" type="line"/>
      <point x="428" y="440" type="line"/>
      <point x="611" y="442" type="line"/>
      <point x="611" y="384" type="line" smooth="yes"/>
      <point x="611" y="369"/>
      <point x="644" y="369"/>
      <point x="652" y="369" type="curve"/>
      <point x="670" y="475" type="line"/>
      <point x="670" y="489" smooth="yes"/>
      <point x="658" y="489" smooth="yes"/>
      <point x="640" y="489" type="curve" smooth="yes"/>
    </contour>
    <contour>
      <point x="286" y="36" type="curve" smooth="yes" name="hr03"/>
      <point x="188" y="36" smooth="yes"/>
      <point x="113" y="106" smooth="yes"/>
      <point x="113" y="248" type="curve" smooth="yes"/>
      <point x="113" y="333"/>
      <point x="140" y="403"/>
      <point x="183" y="436" type="curve"/>
      <point x="216" y="445" smooth="yes"/>
      <point x="246" y="451" smooth="yes"/>
      <point x="276" y="451" type="curve" smooth="yes"/>
      <point x="304" y="451"/>
      <point x="333" y="447"/>
      <point x="363" y="440" type="curve"/>
      <point x="363" y="49" type="line" name="hr04"/>
      <point x="334" y="40" smooth="yes"/>
      <point x="313" y="36" smooth="yes"/>
    </contour>
  </outline>
</glyph>
<glyph name="caron" format="1">
  <advance width="335"/>
  <unicode hex="02C7"/>
  <outline>
    <contour>
      <point x="166" y="583" type="line" name="hr00"/>
      <point x="76" y="685" type="line"/>
      <point x="49" y="668" type="line"/>
      <point x="89" y="605"/>
      <point x="119" y="552"/>
      <point x="138" y="509" type="curve"/>
      <point x="183" y="509" type="line"/>
      <point x="209" y="552"/>
      <point x="246" y="605"/>
      <point x="294" y="668" type="curve"/>
      <point x="269" y="685" type="line"/>
    </contour>
  </outline>
</glyph>
<glyph name="breve" format="1">
  <advance width="335"/>
  <unicode hex="02D8"/>
  <outline>
    <contour>
      <point x="166" y="577" type="curve" smooth="yes" name="hr00"/>
      <point x="128" y="577"/>
      <point x="99" y="613"/>
      <point x="77" y="669" type="curve"/>
      <point x="43" y="661" type="line"/>
      <point x="75" y="564" smooth="yes"/>
      <point x="106" y="510" smooth="yes"/>
      <point x="166" y="510" type="curve" smooth="yes"/>
      <point x="226" y="510"/>
      <point x="257" y="564"/>
      <point x="289" y="661" type="curve"/>
      <point x="255" y="669" type="line"/>
      <point x="233" y="613" smooth="yes"/>
      <point x="204" y="577" smooth="yes"/>
    </contour>
  </outline>
</glyph>
<glyph name="dotaccent" format="1">
  <advance width="217"/>
  <unicode hex="02D9"/>
  <outline>
    <contour>
      <point x="121" y="662" type="curve" smooth="yes" name="hr00"/>
      <point x="102" y="662"/>
      <point x="70" y="655"/>
      <point x="70" y="655" type="curve"/>
      <point x="70" y="655" smooth="yes"/>
      <point x="62" y="625" smooth="yes"/>
      <point x="62" y="596" type="curve" smooth="yes"/>
      <point x="62" y="569" smooth="yes"/>
      <point x="69" y="541" smooth="yes"/>
      <point x="97" y="541" type="curve" smooth="yes"/>
      <point x="117" y="541"/>
      <point x="148" y="550"/>
      <point x="148" y="550" type="curve"/>
      <point x="148" y="550" smooth="yes"/>
      <point x="155" y="579" smooth="yes"/>
      <point x="155" y="606" type="curve" smooth="yes"/>
      <point x="155" y="635" smooth="yes"/>
      <point x="146" y="662" smooth="yes"/>
    </contour>
  </outline>
</glyph>
<glyph name="pi" format="1">
  <advance width="521"/>
  <unicode hex="03C0"/>
  <outline>
    <contour>
      <point x="341" y="195" type="line" smooth="yes"/>
      <point x="341" y="106"/>
      <point x="358" y="74"/>
      <point x="425" y="-12" type="curve"/>
      <point x="452" y="7" type="line"/>
      <point x="419" y="83" smooth="yes"/>
      <point x="412" y="83" smooth="yes"/>
      <point x="412" y="192" type="curve" smooth="yes"/>
      <point x="412" y="399" type="line"/>
      <point x="482" y="399" type="line" smooth="yes"/>
      <point x="496" y="399" smooth="yes"/>
      <point x="496" y="429" smooth="yes"/>
      <point x="496" y="436" type="curve" smooth="yes"/>
      <point x="496" y="437" smooth="yes"/>
      <point x="372" y="457" smooth="yes"/>
      <point x="356" y="457" type="curve" smooth="yes"/>
      <point x="160" y="457" type="line" smooth="yes"/>
      <point x="144" y="457" smooth="yes"/>
      <point x="20" y="437" smooth="yes"/>
      <point x="20" y="436" type="curve" smooth="yes"/>
      <point x="20" y="429" smooth="yes"/>
      <point x="20" y="399" smooth="yes"/>
      <point x="34" y="399" type="curve" smooth="yes"/>
      <point x="105" y="399" type="line"/>
      <point x="105" y="0" type="line" name="hr01"/>
      <point x="176" y="0" type="line"/>
      <point x="176" y="399" type="line"/>
      <point x="340" y="399" type="line"/>
    </contour>
  </outline>
</glyph>
<glyph name="endash" format="1">
  <advance width="591"/>
  <unicode hex="2013"/>
  <outline>
    <contour>
      <point x="125" y="225" type="line" name="hr00"/>
      <point x="486" y="225" type="line"/>
      <point x="486" y="281" type="line"/>
      <point x="125" y="281" type="line"/>
    </contour>
  </outline>
</glyph>
<glyph name="quoteleft" format="1">
  <advance width="204"/>
  <unicode hex="2018"/>
  <outline>
    <contour>
      <point x="77" y="476" type="curve" smooth="yes" name="hr00"/>
      <point x="106" y="476"/>
      <point x="136" y="483"/>
      <point x="136" y="483" type="curve"/>
      <point x="136" y="483" smooth="yes"/>
      <point x="144" y="517" smooth="yes"/>
      <point x="144" y="548" type="curve" smooth="yes"/>
      <point x="144" y="579" smooth="yes"/>
      <point x="137" y="609" smooth="yes"/>
      <point x="107" y="609" type="curve" smooth="yes"/>
      <point x="102" y="609"/>
      <point x="97" y="609"/>
      <point x="91" y="608" type="curve"/>
      <point x="91" y="612" type="line" smooth="yes"/>
      <point x="91" y="656"/>
      <point x="121" y="694"/>
      <point x="173" y="710" type="curve"/>
      <point x="164" y="739" type="line"/>
      <point x="84" y="723" smooth="yes"/>
      <point x="31" y="655" smooth="yes"/>
      <point x="31" y="585" type="curve" smooth="yes"/>
      <point x="31" y="525" smooth="yes"/>
      <point x="48" y="476" smooth="yes"/>
    </contour>
  </outline>
</glyph>
<glyph name="quoteright" format="1">
  <advance width="204"/>
  <unicode hex="2019"/>
  <outline>
    <contour>
      <point x="127" y="730" type="curve" smooth="yes" name="hr00"/>
      <point x="98" y="730"/>
      <point x="68" y="723"/>
      <point x="68" y="723" type="curve"/>
      <point x="68" y="723" smooth="yes"/>
      <point x="60" y="689" smooth="yes"/>
      <point x="60" y="658" type="curve" smooth="yes"/>
      <point x="60" y="627" smooth="yes"/>
      <point x="67" y="597" smooth="yes"/>
      <point x="97" y="597" type="curve" smooth="yes"/>
      <point x="102" y="597"/>
      <point x="107" y="597"/>
      <point x="113" y="598" type="curve"/>
      <point x="113" y="594" type="line" smooth="yes"/>
      <point x="113" y="550"/>
      <point x="83" y="512"/>
      <point x="31" y="496" type="curve"/>
      <point x="40" y="467" type="line"/>
      <point x="120" y="483" smooth="yes"/>
      <point x="173" y="551" smooth="yes"/>
      <point x="173" y="621" type="curve" smooth="yes"/>
      <point x="173" y="681" smooth="yes"/>
      <point x="156" y="730" smooth="yes"/>
    </contour>
  </outline>
</glyph>
<glyph name="quotedblleft" format="1">
  <advance width="380"/>
  <unicode hex="201C"/>
  <outline>
    <contour>
      <point x="77" y="476" type="curve" smooth="yes" name="hr00"/>
      <point x="106" y="476"/>
      <point x="136" y="483"/>
      <point x="136" y="483" type="curve"/>
      <point x="136" y="483" smooth="yes"/>
      <point x="144" y="517" smooth="yes"/>
      <point x="144" y="548" type="curve" smooth="yes"/>
      <point x="144" y="579" smooth="yes"/>
      <point x="137" y="609" smooth="yes"/>
      <point x="107" y="609" type="curve" smooth="yes"/>
      <point x="102" y="609"/>
      <point x="97" y="609"/>
      <point x="91" y="608" type="curve"/>
      <point x="91" y="612" type="line" smooth="yes"/>
      <point x="91" y="656"/>
      <point x="121" y="694"/>
      <point x="173" y="710" type="curve"/>
      <point x="164" y="739" type="line"/>
      <point x="84" y="723" smooth="yes"/>
      <point x="31" y="655" smooth="yes"/>
      <point x="31" y="585" type="curve" smooth="yes"/>
      <point x="31" y="525" smooth="yes"/>
      <point x="48" y="476" smooth="yes"/>
    </contour>
    <contour>
      <point x="253" y="476" type="curve" smooth="yes"/>
      <point x="282" y="476"/>
      <point x="312" y="483"/>
      <point x="312" y="483" type="curve"/>
      <point x="312" y="483" smooth="yes"/>
      <point x="320" y="517" smooth="yes"/>
      <point x="320" y="548" type="curve" smooth="yes"/>
      <point x="320" y="579" smooth="yes"/>
      <point x="313" y="609" smooth="yes"/>
      <point x="283" y="609" type="curve" smooth="yes"/>
      <point x="278" y="609"/>
      <point x="273" y="609"/>
      <point x="267" y="608" type="curve"/>
      <point x="267" y="612" type="line" smooth="yes"/>
      <point x="267" y="656"/>
      <point x="297" y="694"/>
      <point x="349" y="710" type="curve"/>
      <point x="340" y="739" type="line"/>
      <point x="260" y="723" smooth="yes"/>
      <point x="207" y="655" smooth="yes"/>
      <point x="207" y="585" type="curve" smooth="yes"/>
      <point x="207" y="525" smooth="yes"/>
      <point x="224" y="476" smooth="yes"/>
    </contour>
  </outline>
</glyph>
<glyph name="ellipsis" format="1">
  <advance width="591"/>
  <unicode hex="2026"/>
  <outline>
    <contour>
      <point x="113" y="121" type="curve" smooth="yes" name="hr00"/>
      <point x="92" y="121"/>
      <point x="56" y="114"/>
      <point x="56" y="114" type="curve"/>
      <point x="56" y="114" smooth="yes"/>
      <point x="48" y="80" smooth="yes"/>
      <point x="48" y="49" type="curve" smooth="yes"/>
      <point x="48" y="18" smooth="yes"/>
      <point x="55" y="-12" smooth="yes"/>
      <point x="85" y="-12" type="curve" smooth="yes"/>
      <point x="107" y="-12"/>
      <point x="142" y="-3"/>
      <point x="142" y="-3" type="curve"/>
      <point x="142" y="-3" smooth="yes"/>
      <point x="149" y="30" smooth="yes"/>
      <point x="149" y="59" type="curve" smooth="yes"/>
      <point x="149" y="92" smooth="yes"/>
      <point x="140" y="121" smooth="yes"/>
    </contour>
    <contour>
      <point x="310" y="121" type="curve" smooth="yes"/>
      <point x="289" y="121"/>
      <point x="253" y="114"/>
      <point x="253" y="114" type="curve"/>
      <point x="253" y="114" smooth="yes"/>
      <point x="245" y="80" smooth="yes"/>
      <point x="245" y="49" type="curve" smooth="yes"/>
      <point x="245" y="18" smooth="yes"/>
      <point x="252" y="-12" smooth="yes"/>
      <point x="282" y="-12" type="curve" smooth="yes"/>
      <point x="304" y="-12"/>
      <point x="339" y="-3"/>
      <point x="339" y="-3" type="curve"/>
      <point x="339" y="-3" smooth="yes"/>
      <point x="346" y="30" smooth="yes"/>
      <point x="346" y="59" type="curve" smooth="yes"/>
      <point x="346" y="92" smooth="yes"/>
      <point x="337" y="121" smooth="yes"/>
    </contour>
    <contour>
      <point x="507" y="121" type="curve" smooth="yes"/>
      <point x="486" y="121"/>
      <point x="450" y="114"/>
      <point x="450" y="114" type="curve"/>
      <point x="450" y="114" smooth="yes"/>
      <point x="442" y="80" smooth="yes"/>
      <point x="442" y="49" type="curve" smooth="yes"/>
      <point x="442" y="18" smooth="yes"/>
      <point x="449" y="-12" smooth="yes"/>
      <point x="479" y="-12" type="curve" smooth="yes"/>
      <point x="501" y="-12"/>
      <point x="536" y="-3"/>
      <point x="536" y="-3" type="curve"/>
      <point x="536" y="-3" smooth="yes"/>
      <point x="543" y="30" smooth="yes"/>
      <point x="543" y="59" type="curve" smooth="yes"/>
      <point x="543" y="92" smooth="yes"/>
      <point x="534" y="121" smooth="yes"/>
    </contour>
  </outline>
</glyph>
<glyph name="perthousand" format="1">
  <advance width="1073"/>
  <unicode hex="2030"/>
  <outline>
    <contour>
      <point x="314" y="474" type="curve" smooth="yes" name="hr00"/>
      <point x="314" y="586" smooth="yes"/>
      <point x="250" y="641" smooth="yes"/>
      <point x="174" y="641" type="curve" smooth="yes"/>
      <point x="95" y="641" smooth="yes"/>
      <point x="30" y="581" smooth="yes"/>
      <point x="30" y="469" type="curve" smooth="yes"/>
      <point x="30" y="352" smooth="yes"/>
      <point x="89" y="296" smooth="yes"/>
      <point x="167" y="296" type="curve" smooth="yes"/>
      <point x="252" y="296" smooth="yes"/>
      <point x="314" y="354" smooth="yes"/>
    </contour>
    <contour>
      <point x="238" y="468" type="curve" smooth="yes"/>
      <point x="238" y="380" smooth="yes"/>
      <point x="219" y="338" smooth="yes"/>
      <point x="172" y="338" type="curve" smooth="yes"/>
      <point x="125" y="338" smooth="yes"/>
      <point x="106" y="380" smooth="yes"/>
      <point x="106" y="468" type="curve" smooth="yes"/>
      <point x="106" y="556" smooth="yes"/>
      <point x="125" y="598" smooth="yes"/>
      <point x="172" y="598" type="curve" smooth="yes"/>
      <point x="219" y="598" smooth="yes"/>
      <point x="238" y="556" smooth="yes"/>
    </contour>
    <contour>
      <point x="721" y="166" type="curve" smooth="yes"/>
      <point x="721" y="278" smooth="yes"/>
      <point x="657" y="333" smooth="yes"/>
      <point x="581" y="333" type="curve" smooth="yes"/>
      <point x="502" y="333" smooth="yes"/>
      <point x="437" y="273" smooth="yes"/>
      <point x="437" y="161" type="curve" smooth="yes"/>
      <point x="437" y="44" smooth="yes"/>
      <point x="496" y="-12" smooth="yes"/>
      <point x="574" y="-12" type="curve" smooth="yes"/>
      <point x="659" y="-12" smooth="yes"/>
      <point x="721" y="46" smooth="yes"/>
    </contour>
    <contour>
      <point x="645" y="160" type="curve" smooth="yes"/>
      <point x="645" y="72" smooth="yes"/>
      <point x="626" y="30" smooth="yes"/>
      <point x="579" y="30" type="curve" smooth="yes"/>
      <point x="532" y="30" smooth="yes"/>
      <point x="513" y="72" smooth="yes"/>
      <point x="513" y="160" type="curve" smooth="yes"/>
      <point x="513" y="248" smooth="yes"/>
      <point x="532" y="290" smooth="yes"/>
      <point x="579" y="290" type="curve" smooth="yes"/>
      <point x="626" y="290" smooth="yes"/>
      <point x="645" y="248" smooth="yes"/>
    </contour>
    <contour>
      <point x="193" y="-56" type="line"/>
      <point x="252" y="-56" type="line"/>
      <point x="559" y="685" type="line"/>
      <point x="500" y="685" type="line"/>
    </contour>
    <contour>
      <point x="1043" y="166" type="curve" smooth="yes"/>
      <point x="1043" y="278" smooth="yes"/>
      <point x="979" y="333" smooth="yes"/>
      <point x="903" y="333" type="curve" smooth="yes"/>
      <point x="824" y="333" smooth="yes"/>
      <point x="759" y="273" smooth="yes"/>
      <point x="759" y="161" type="curve" smooth="yes"/>
      <point x="759" y="44" smooth="yes"/>
      <point x="818" y="-12" smooth="yes"/>
      <point x="896" y="-12" type="curve" smooth="yes"/>
      <point x="981" y="-12" smooth="yes"/>
      <point x="1043" y="46" smooth="yes"/>
    </contour>
    <contour>
      <point x="967" y="160" type="curve" smooth="yes"/>
      <point x="967" y="72" smooth="yes"/>
      <point x="948" y="30" smooth="yes"/>
      <point x="901" y="30" type="curve" smooth="yes"/>
      <point x="854" y="30" smooth="yes"/>
      <point x="835" y="72" smooth="yes"/>
      <point x="835" y="160" type="curve" smooth="yes"/>
      <point x="835" y="248" smooth="yes"/>
      <point x="854" y="290" smooth="yes"/>
      <point x="901" y="290" type="curve" smooth="yes"/>
      <point x="948" y="290" smooth="yes"/>
      <point x="967" y="248" smooth="yes"/>
    </contour>
  </outline>
</glyph>
<glyph name="zeroinferior" format="1">
  <advance width="410"/>
  <unicode hex="2080"/>
  <outline>
    <contour>
      <point x="372" y="119" type="curve" smooth="yes" name="hr00"/>
      <point x="372" y="262" smooth="yes"/>
      <point x="297" y="331" smooth="yes"/>
      <point x="206" y="331" type="curve" smooth="yes"/>
      <point x="111" y="331" smooth="yes"/>
      <point x="34" y="256" smooth="yes"/>
      <point x="34" y="113" type="curve" smooth="yes"/>
      <point x="34" y="-36" smooth="yes"/>
      <point x="104" y="-108" smooth="yes"/>
      <point x="197" y="-108" type="curve" smooth="yes"/>
      <point x="298" y="-108" smooth="yes"/>
      <point x="372" y="-34" smooth="yes"/>
    </contour>
    <contour>
      <point x="306" y="111" type="curve" smooth="yes"/>
      <point x="306" y="-7" smooth="yes"/>
      <point x="270" y="-63" smooth="yes"/>
      <point x="203" y="-63" type="curve" smooth="yes"/>
      <point x="136" y="-63" smooth="yes"/>
      <point x="100" y="-7" smooth="yes"/>
      <point x="100" y="111" type="curve" smooth="yes"/>
      <point x="100" y="230" smooth="yes"/>
      <point x="136" y="286" smooth="yes"/>
      <point x="203" y="286" type="curve" smooth="yes"/>
      <point x="270" y="286" smooth="yes"/>
      <point x="306" y="230" smooth="yes"/>
    </contour>
  </outline>
</glyph>
<glyph name="oneinferior" format="1">
  <advance width="410"/>
  <unicode hex="2081"/>
  <outline>
    <contour>
      <point x="251" y="-49" type="line" name="hr00"/>
      <point x="251" y="305" type="line"/>
      <point x="251" y="319"/>
      <point x="243" y="328"/>
      <point x="235" y="331" type="curve"/>
      <point x="221" y="331" smooth="yes"/>
      <point x="59" y="291" smooth="yes"/>
      <point x="59" y="290" type="curve" smooth="yes"/>
      <point x="59" y="284"/>
      <point x="70" y="251"/>
      <point x="85" y="251" type="curve"/>
      <point x="188" y="277" type="line"/>
      <point x="188" y="-49" type="line"/>
      <point x="69" y="-69" type="line"/>
      <point x="69" y="-75"/>
      <point x="69" y="-100"/>
      <point x="86" y="-100" type="curve"/>
      <point x="211" y="-97" type="line"/>
      <point x="325" y="-100" type="line"/>
      <point x="343" y="-100"/>
      <point x="343" y="-75"/>
      <point x="343" y="-69" type="curve"/>
    </contour>
  </outline>
</glyph>
<glyph name="twoinferior" format="1">
  <advance width="410"/>
  <unicode hex="2082"/>
  <outline>
    <contour>
      <point x="338" y="215" type="curve" smooth="yes" name="hr00"/>
      <point x="338" y="300" smooth="yes"/>
      <point x="261" y="331" smooth="yes"/>
      <point x="189" y="331" type="curve" smooth="yes"/>
      <point x="143" y="331"/>
      <point x="93" y="320"/>
      <point x="59" y="303" type="curve"/>
      <point x="61" y="286"/>
      <point x="79" y="215"/>
      <point x="79" y="215" type="curve"/>
      <point x="86" y="215" smooth="yes"/>
      <point x="117" y="220" smooth="yes"/>
      <point x="117" y="230" type="curve" smooth="yes"/>
      <point x="115" y="273" type="line"/>
      <point x="137" y="283" smooth="yes"/>
      <point x="163" y="288" smooth="yes"/>
      <point x="188" y="288" type="curve" smooth="yes"/>
      <point x="231" y="288" smooth="yes"/>
      <point x="271" y="268" smooth="yes"/>
      <point x="271" y="215" type="curve" smooth="yes"/>
      <point x="271" y="146" smooth="yes"/>
      <point x="218" y="94" smooth="yes"/>
      <point x="174" y="55" type="curve" smooth="yes"/>
      <point x="32" y="-73" type="line"/>
      <point x="52" y="-100" type="line"/>
      <point x="338" y="-100" type="line" smooth="yes"/>
      <point x="355" y="-100"/>
      <point x="358" y="-95"/>
      <point x="359" y="-86" type="curve"/>
      <point x="359" y="-75" smooth="yes"/>
      <point x="339" y="12" smooth="yes"/>
      <point x="338" y="12" type="curve" smooth="yes"/>
      <point x="332" y="12" smooth="yes"/>
      <point x="306" y="12" smooth="yes"/>
      <point x="306" y="-5" type="curve" smooth="yes"/>
      <point x="306" y="-47" type="line"/>
      <point x="114" y="-62" type="line"/>
      <point x="112" y="-57" type="line"/>
      <point x="186" y="-1" type="line" smooth="yes"/>
      <point x="263" y="58" smooth="yes"/>
      <point x="338" y="127" smooth="yes"/>
    </contour>
  </outline>
</glyph>
<glyph name="threeinferior" format="1">
  <advance width="410"/>
  <unicode hex="2083"/>
  <outline>
    <contour>
      <point x="143" y="99" type="line"/>
      <point x="234" y="98" smooth="yes"/>
      <point x="284" y="60" smooth="yes"/>
      <point x="284" y="14" type="curve" smooth="yes"/>
      <point x="284" y="-39" smooth="yes"/>
      <point x="238" y="-65" smooth="yes"/>
      <point x="193" y="-65" type="curve" smooth="yes"/>
      <point x="163" y="-65"/>
      <point x="134" y="-60"/>
      <point x="112" y="-50" type="curve"/>
      <point x="114" y="-7" type="line"/>
      <point x="114" y="5" smooth="yes"/>
      <point x="88" y="8" smooth="yes"/>
      <point x="83" y="8" type="curve" smooth="yes"/>
      <point x="80" y="8"/>
      <point x="58" y="-70"/>
      <point x="57" y="-80" type="curve"/>
      <point x="94" y="-96" smooth="yes"/>
      <point x="148" y="-108" smooth="yes"/>
      <point x="196" y="-108" type="curve" smooth="yes"/>
      <point x="274" y="-108" smooth="yes"/>
      <point x="349" y="-61" smooth="yes"/>
      <point x="349" y="17" type="curve" smooth="yes"/>
      <point x="349" y="62"/>
      <point x="317" y="107"/>
      <point x="259" y="124" type="curve"/>
      <point x="299" y="146" smooth="yes"/>
      <point x="331" y="183" smooth="yes"/>
      <point x="331" y="227" type="curve" smooth="yes" name="hr01"/>
      <point x="331" y="303" smooth="yes"/>
      <point x="261" y="331" smooth="yes"/>
      <point x="196" y="331" type="curve" smooth="yes"/>
      <point x="154" y="331"/>
      <point x="108" y="320"/>
      <point x="73" y="303" type="curve"/>
      <point x="75" y="295"/>
      <point x="93" y="215"/>
      <point x="93" y="215" type="curve"/>
      <point x="100" y="215"/>
      <point x="132" y="220"/>
      <point x="132" y="230" type="curve"/>
      <point x="130" y="274" type="line"/>
      <point x="147" y="282" smooth="yes"/>
      <point x="170" y="288" smooth="yes"/>
      <point x="193" y="288" type="curve" smooth="yes"/>
      <point x="240" y="288" smooth="yes"/>
      <point x="266" y="262" smooth="yes"/>
      <point x="266" y="226" type="curve" smooth="yes"/>
      <point x="266" y="181"/>
      <point x="226" y="143"/>
      <point x="137" y="133" type="curve"/>
    </contour>
  </outline>
</glyph>
<glyph name="fourinferior" format="1">
  <advance width="410"/>
  <unicode hex="2084"/>
  <outline>
    <contour>
      <point x="306" y="-55" type="line" name="hr00"/>
      <point x="306" y="-8" type="line"/>
      <point x="375" y="-8" type="line"/>
      <point x="375" y="32" type="line"/>
      <point x="306" y="32" type="line"/>
      <point x="306" y="167" type="line"/>
      <point x="306" y="180"/>
      <point x="306" y="188"/>
      <point x="297" y="193" type="curve"/>
      <point x="283" y="193"/>
      <point x="246" y="186"/>
      <point x="246" y="186" type="curve"/>
      <point x="246" y="32" type="line"/>
      <point x="104" y="32" type="line"/>
      <point x="235" y="321" type="line"/>
      <point x="175" y="339" type="line"/>
      <point x="54" y="39" smooth="yes"/>
      <point x="44" y="11" smooth="yes"/>
      <point x="44" y="8" type="curve" smooth="yes"/>
      <point x="44" y="-5"/>
      <point x="54" y="-8"/>
      <point x="68" y="-8" type="curve"/>
      <point x="246" y="-8" type="line"/>
      <point x="246" y="-55" type="line"/>
      <point x="173" y="-69" type="line"/>
      <point x="173" y="-75"/>
      <point x="173" y="-100"/>
      <point x="190" y="-100" type="curve"/>
      <point x="275" y="-97" type="line"/>
      <point x="349" y="-100" type="line"/>
      <point x="366" y="-99"/>
      <point x="366" y="-75"/>
      <point x="366" y="-69" type="curve"/>
    </contour>
  </outline>
</glyph>
<glyph name="fiveinferior" format="1">
  <advance width="410"/>
  <unicode hex="2085"/>
  <outline>
    <contour>
      <point x="88" y="133" type="line"/>
      <point x="111" y="114" type="line"/>
      <point x="128" y="116" smooth="yes"/>
      <point x="150" y="117" smooth="yes"/>
      <point x="167" y="117" type="curve" smooth="yes"/>
      <point x="246" y="117" smooth="yes"/>
      <point x="288" y="74" smooth="yes"/>
      <point x="288" y="24" type="curve" smooth="yes"/>
      <point x="288" y="-36" smooth="yes"/>
      <point x="239" y="-65" smooth="yes"/>
      <point x="184" y="-65" type="curve" smooth="yes"/>
      <point x="160" y="-65"/>
      <point x="133" y="-60"/>
      <point x="110" y="-50" type="curve"/>
      <point x="113" y="-7" type="line"/>
      <point x="113" y="5" smooth="yes"/>
      <point x="86" y="8" smooth="yes"/>
      <point x="81" y="8" type="curve" smooth="yes"/>
      <point x="79" y="8"/>
      <point x="56" y="-71"/>
      <point x="55" y="-81" type="curve"/>
      <point x="93" y="-96" smooth="yes"/>
      <point x="135" y="-108" smooth="yes"/>
      <point x="199" y="-108" type="curve" smooth="yes"/>
      <point x="282" y="-108" smooth="yes"/>
      <point x="354" y="-59" smooth="yes"/>
      <point x="354" y="25" type="curve" smooth="yes"/>
      <point x="354" y="96"/>
      <point x="304" y="162"/>
      <point x="159" y="162" type="curve"/>
      <point x="151" y="162"/>
      <point x="139" y="162"/>
      <point x="134" y="161" type="curve"/>
      <point x="148" y="279" type="line"/>
      <point x="291" y="271" type="line"/>
      <point x="291" y="227" type="line"/>
      <point x="291" y="212" smooth="yes"/>
      <point x="319" y="212" smooth="yes"/>
      <point x="323" y="212" type="curve" smooth="yes"/>
      <point x="326" y="212"/>
      <point x="346" y="298"/>
      <point x="346" y="309" type="curve"/>
      <point x="344" y="321"/>
      <point x="336" y="323"/>
      <point x="322" y="323" type="curve" name="hr01"/>
      <point x="94" y="316" type="line"/>
    </contour>
  </outline>
</glyph>
<glyph name="sixinferior" format="1">
  <advance width="410"/>
  <unicode hex="2086"/>
  <outline>
    <contour>
      <point x="300" y="359" type="line" name="hr00"/>
      <point x="162" y="281" smooth="yes"/>
      <point x="53" y="187" smooth="yes"/>
      <point x="53" y="45" type="curve" smooth="yes"/>
      <point x="53" y="-61" smooth="yes"/>
      <point x="131" y="-108" smooth="yes"/>
      <point x="206" y="-108" type="curve" smooth="yes"/>
      <point x="284" y="-108" smooth="yes"/>
      <point x="358" y="-59" smooth="yes"/>
      <point x="358" y="26" type="curve" smooth="yes"/>
      <point x="358" y="111"/>
      <point x="289" y="152"/>
      <point x="212" y="152" type="curve"/>
      <point x="141" y="152" type="line"/>
      <point x="167" y="203"/>
      <point x="219" y="262"/>
      <point x="322" y="325" type="curve"/>
    </contour>
    <contour>
      <point x="207" y="110" type="curve" smooth="yes"/>
      <point x="253" y="110" smooth="yes"/>
      <point x="289" y="94" smooth="yes"/>
      <point x="289" y="26" type="curve" smooth="yes"/>
      <point x="289" y="-32" smooth="yes"/>
      <point x="249" y="-63" smooth="yes"/>
      <point x="205" y="-63" type="curve" smooth="yes"/>
      <point x="156" y="-63" smooth="yes"/>
      <point x="121" y="-19" smooth="yes"/>
      <point x="121" y="53" type="curve" smooth="yes"/>
      <point x="121" y="70"/>
      <point x="121" y="85"/>
      <point x="125" y="104" type="curve"/>
      <point x="152" y="108" smooth="yes"/>
      <point x="182" y="110" smooth="yes"/>
    </contour>
  </outline>
</glyph>
<glyph name="seveninferior" format="1">
  <advance width="410"/>
  <unicode hex="2087"/>
  <outline>
    <contour>
      <point x="169" y="-109" type="line"/>
      <point x="363" y="316" type="line"/>
      <point x="335" y="335" type="line" name="hr01"/>
      <point x="323" y="316" type="line"/>
      <point x="85" y="323" type="line"/>
      <point x="70" y="323"/>
      <point x="63" y="321"/>
      <point x="61" y="309" type="curve"/>
      <point x="61" y="298" smooth="yes"/>
      <point x="82" y="212" smooth="yes"/>
      <point x="83" y="212" type="curve" smooth="yes"/>
      <point x="89" y="212"/>
      <point x="115" y="212"/>
      <point x="115" y="227" type="curve"/>
      <point x="115" y="271" type="line"/>
      <point x="298" y="276" type="line"/>
      <point x="104" y="-93" type="line"/>
    </contour>
  </outline>
</glyph>
<glyph name="eightinferior" format="1">
  <advance width="410"/>
  <unicode hex="2088"/>
  <outline>
    <contour>
      <point x="51" y="6" type="curve" smooth="yes"/>
      <point x="51" y="-58" smooth="yes"/>
      <point x="109" y="-108" smooth="yes"/>
      <point x="199" y="-108" type="curve" smooth="yes"/>
      <point x="295" y="-108" smooth="yes"/>
      <point x="355" y="-56" smooth="yes"/>
      <point x="355" y="4" type="curve" smooth="yes"/>
      <point x="355" y="59"/>
      <point x="315" y="93"/>
      <point x="272" y="119" type="curve"/>
      <point x="321" y="149" smooth="yes"/>
      <point x="340" y="196" smooth="yes"/>
      <point x="340" y="225" type="curve" smooth="yes" name="hr01"/>
      <point x="340" y="286" smooth="yes"/>
      <point x="284" y="331" smooth="yes"/>
      <point x="206" y="331" type="curve" smooth="yes"/>
      <point x="116" y="331" smooth="yes"/>
      <point x="66" y="283" smooth="yes"/>
      <point x="66" y="226" type="curve" smooth="yes"/>
      <point x="66" y="183"/>
      <point x="93" y="148"/>
      <point x="130" y="124" type="curve"/>
      <point x="74" y="91" smooth="yes"/>
      <point x="51" y="41" smooth="yes"/>
    </contour>
    <contour>
      <point x="236" y="73" type="line" smooth="yes"/>
      <point x="271" y="56" smooth="yes"/>
      <point x="287" y="36" smooth="yes"/>
      <point x="287" y="2" type="curve" smooth="yes"/>
      <point x="287" y="-43" smooth="yes"/>
      <point x="246" y="-67" smooth="yes"/>
      <point x="205" y="-67" type="curve" smooth="yes"/>
      <point x="162" y="-67" smooth="yes"/>
      <point x="119" y="-42" smooth="yes"/>
      <point x="119" y="10" type="curve" smooth="yes"/>
      <point x="119" y="39"/>
      <point x="135" y="78"/>
      <point x="169" y="105" type="curve"/>
    </contour>
    <contour>
      <point x="130" y="225" type="curve" smooth="yes"/>
      <point x="130" y="261" smooth="yes"/>
      <point x="156" y="285" smooth="yes"/>
      <point x="205" y="285" type="curve" smooth="yes"/>
      <point x="253" y="285" smooth="yes"/>
      <point x="276" y="255" smooth="yes"/>
      <point x="276" y="224" type="curve" smooth="yes"/>
      <point x="276" y="197"/>
      <point x="262" y="160"/>
      <point x="233" y="137" type="curve"/>
      <point x="187" y="159" type="line" smooth="yes"/>
      <point x="156" y="174" smooth="yes"/>
      <point x="130" y="195" smooth="yes"/>
    </contour>
  </outline>
</glyph>
<glyph name="nineinferior" format="1">
  <advance width="410"/>
  <unicode hex="2089"/>
  <outline>
    <contour>
      <point x="120" y="207" type="curve" smooth="yes" name="hr00"/>
      <point x="120" y="260" smooth="yes"/>
      <point x="158" y="287" smooth="yes"/>
      <point x="205" y="287" type="curve" smooth="yes"/>
      <point x="257" y="287" smooth="yes"/>
      <point x="286" y="243" smooth="yes"/>
      <point x="286" y="167" type="curve" smooth="yes"/>
      <point x="286" y="154"/>
      <point x="286" y="141"/>
      <point x="284" y="125" type="curve"/>
      <point x="254" y="119" smooth="yes"/>
      <point x="231" y="116" smooth="yes"/>
      <point x="211" y="116" type="curve" smooth="yes"/>
      <point x="143" y="116" smooth="yes"/>
      <point x="120" y="153" smooth="yes"/>
    </contour>
    <contour>
      <point x="272" y="75" type="line"/>
      <point x="246" y="24"/>
      <point x="192" y="-42"/>
      <point x="89" y="-105" type="curve"/>
      <point x="111" y="-139" type="line"/>
      <point x="249" y="-61"/>
      <point x="358" y="33"/>
      <point x="358" y="175" type="curve"/>
      <point x="358" y="283" smooth="yes"/>
      <point x="279" y="331" smooth="yes"/>
      <point x="203" y="331" type="curve" smooth="yes"/>
      <point x="111" y="331" smooth="yes"/>
      <point x="53" y="282" smooth="yes"/>
      <point x="53" y="202" type="curve" smooth="yes"/>
      <point x="53" y="116"/>
      <point x="123" y="75"/>
      <point x="203" y="75" type="curve"/>
    </contour>
  </outline>
</glyph>
<glyph name="parenleftinferior" format="1">
  <advance width="201"/>
  <unicode hex="208D"/>
  <outline>
    <contour>
      <point x="175" y="-161" type="line" name="hr00"/>
      <point x="135" y="-103" smooth="yes"/>
      <point x="107" y="-5" smooth="yes"/>
      <point x="107" y="87" type="curve" smooth="yes"/>
      <point x="107" y="183"/>
      <point x="134" y="296"/>
      <point x="201" y="364" type="curve"/>
      <point x="176" y="392" type="line"/>
      <point x="86" y="323" smooth="yes"/>
      <point x="39" y="203" smooth="yes"/>
      <point x="39" y="87" type="curve" smooth="yes"/>
      <point x="39" y="-11"/>
      <point x="76" y="-115"/>
      <point x="148" y="-183" type="curve"/>
    </contour>
  </outline>
</glyph>
<glyph name="parenrightinferior" format="1">
  <advance width="201"/>
  <unicode hex="208E"/>
  <outline>
    <contour>
      <point x="23" y="370" type="line" name="hr00"/>
      <point x="63" y="312" smooth="yes"/>
      <point x="91" y="214" smooth="yes"/>
      <point x="91" y="122" type="curve" smooth="yes"/>
      <point x="91" y="26"/>
      <point x="66" y="-87"/>
      <point x="-3" y="-155" type="curve"/>
      <point x="23" y="-182" type="line"/>
      <point x="112" y="-113" smooth="yes"/>
      <point x="160" y="7" smooth="yes"/>
      <point x="160" y="122" type="curve" smooth="yes"/>
      <point x="160" y="220"/>
      <point x="123" y="325"/>
      <point x="52" y="392" type="curve"/>
    </contour>
  </outline>
</glyph>
<glyph name="franc" format="1">
  <advance width="468"/>
  <unicode hex="20A3"/>
  <outline>
    <contour>
      <point x="62" y="162" type="line"/>
      <point x="62" y="125" type="line"/>
      <point x="111" y="125" type="line"/>
      <point x="111" y="45" type="line"/>
      <point x="41" y="27" type="line"/>
      <point x="41" y="21" smooth="yes"/>
      <point x="41" y="0" smooth="yes"/>
      <point x="54" y="0" type="curve" smooth="yes"/>
      <point x="54" y="0"/>
      <point x="63" y="0"/>
      <point x="145" y="3" type="curve"/>
      <point x="225" y="0"/>
      <point x="257" y="0"/>
      <point x="257" y="0" type="curve"/>
      <point x="270" y="0"/>
      <point x="270" y="21"/>
      <point x="270" y="27" type="curve"/>
      <point x="177" y="45" type="line"/>
      <point x="180" y="125" type="line"/>
      <point x="348" y="125" type="line"/>
      <point x="348" y="162" type="line"/>
      <point x="181" y="162" type="line"/>
      <point x="184" y="241" type="line"/>
      <point x="389" y="252" type="line"/>
      <point x="389" y="293" type="line"/>
      <point x="185" y="294" type="line"/>
      <point x="177" y="507" type="line"/>
      <point x="376" y="509" type="line"/>
      <point x="376" y="434" type="line" smooth="yes"/>
      <point x="376" y="423"/>
      <point x="408" y="423"/>
      <point x="415" y="423" type="curve"/>
      <point x="436" y="546" type="line"/>
      <point x="436" y="554" smooth="yes"/>
      <point x="424" y="554" smooth="yes"/>
      <point x="409" y="554" type="curve" smooth="yes" name="hr01"/>
      <point x="144" y="551" type="line"/>
      <point x="62" y="554"/>
      <point x="54" y="554"/>
      <point x="54" y="554" type="curve"/>
      <point x="41" y="554"/>
      <point x="41" y="533"/>
      <point x="41" y="526" type="curve"/>
      <point x="111" y="510" type="line"/>
      <point x="111" y="162" type="line"/>
    </contour>
  </outline>
</glyph>
<glyph name="lira" format="1">
  <advance width="510"/>
  <unicode hex="20A4"/>
  <outline>
    <contour>
      <point x="348" y="214" type="line" name="hr00"/>
      <point x="348" y="251" type="line"/>
      <point x="198" y="251" type="line"/>
      <point x="197" y="267"/>
      <point x="196" y="282"/>
      <point x="193" y="298" type="curve"/>
      <point x="348" y="298" type="line"/>
      <point x="348" y="335" type="line"/>
      <point x="186" y="335" type="line"/>
      <point x="181" y="361" smooth="yes"/>
      <point x="177" y="388" smooth="yes"/>
      <point x="177" y="415" type="curve" smooth="yes"/>
      <point x="177" y="466" smooth="yes"/>
      <point x="194" y="513" smooth="yes"/>
      <point x="261" y="513" type="curve" smooth="yes"/>
      <point x="294" y="513"/>
      <point x="328" y="503"/>
      <point x="354" y="487" type="curve"/>
      <point x="350" y="414" type="line"/>
      <point x="350" y="402" smooth="yes"/>
      <point x="383" y="398" smooth="yes"/>
      <point x="390" y="398" type="curve" smooth="yes"/>
      <point x="391" y="398"/>
      <point x="417" y="510"/>
      <point x="419" y="524" type="curve"/>
      <point x="385" y="542" smooth="yes"/>
      <point x="339" y="556" smooth="yes"/>
      <point x="292" y="561" type="curve" smooth="yes"/>
      <point x="280" y="562" smooth="yes"/>
      <point x="269" y="563" smooth="yes"/>
      <point x="257" y="563" type="curve" smooth="yes"/>
      <point x="168" y="563" smooth="yes"/>
      <point x="104" y="520" smooth="yes"/>
      <point x="104" y="414" type="curve" smooth="yes"/>
      <point x="104" y="387"/>
      <point x="108" y="360"/>
      <point x="114" y="335" type="curve"/>
      <point x="62" y="335" type="line"/>
      <point x="62" y="298" type="line"/>
      <point x="122" y="298" type="line"/>
      <point x="126" y="282"/>
      <point x="129" y="267"/>
      <point x="131" y="251" type="curve"/>
      <point x="62" y="251" type="line"/>
      <point x="62" y="214" type="line"/>
      <point x="134" y="214" type="line"/>
      <point x="133" y="161"/>
      <point x="113" y="104"/>
      <point x="45" y="32" type="curve"/>
      <point x="68" y="0" type="line"/>
      <point x="434" y="0" type="line" smooth="yes"/>
      <point x="451" y="0"/>
      <point x="456" y="5"/>
      <point x="458" y="14" type="curve"/>
      <point x="458" y="31" smooth="yes"/>
      <point x="436" y="163" smooth="yes"/>
      <point x="435" y="163" type="curve" smooth="yes"/>
      <point x="427" y="163" smooth="yes"/>
      <point x="394" y="163" smooth="yes"/>
      <point x="394" y="147" type="curve" smooth="yes"/>
      <point x="394" y="62" type="line"/>
      <point x="117" y="37" type="line"/>
      <point x="117" y="38" smooth="yes"/>
      <point x="116" y="40" smooth="yes"/>
      <point x="116" y="41" type="curve" smooth="yes"/>
      <point x="169" y="117"/>
      <point x="190" y="169"/>
      <point x="196" y="214" type="curve"/>
    </contour>
  </outline>
</glyph>
<glyph name="uni2113" format="1">
  <advance width="288"/>
  <unicode hex="2113"/>
  <outline>
    <contour>
      <point x="139" y="580" type="line" name="hr00"/>
      <point x="86" y="565" type="line"/>
      <point x="86" y="115" type="line" smooth="yes"/>
      <point x="86" y="15" smooth="yes"/>
      <point x="110" y="-12" smooth="yes"/>
      <point x="167" y="-12" type="curve" smooth="yes"/>
      <point x="205" y="-12"/>
      <point x="253" y="7"/>
      <point x="288" y="36" type="curve"/>
      <point x="285" y="50"/>
      <point x="280" y="58"/>
      <point x="271" y="66" type="curve"/>
      <point x="248" y="52" smooth="yes"/>
      <point x="219" y="38" smooth="yes"/>
      <point x="196" y="38" type="curve" smooth="yes"/>
      <point x="174" y="38" smooth="yes"/>
      <point x="157" y="51" smooth="yes"/>
      <point x="157" y="89" type="curve" smooth="yes"/>
      <point x="157" y="568" type="line"/>
    </contour>
  </outline>
</glyph>
<glyph name="trademark" format="1">
  <advance width="798"/>
  <unicode hex="2122"/>
  <outline>
    <contour>
      <point x="381" y="349" type="line"/>
      <point x="435" y="347" type="line" smooth="yes"/>
      <point x="450" y="347"/>
      <point x="450" y="366"/>
      <point x="450" y="372" type="curve"/>
      <point x="403" y="383" type="line"/>
      <point x="414" y="611" type="line"/>
      <point x="516" y="371" type="line"/>
      <point x="534" y="371" type="line"/>
      <point x="646" y="617" type="line"/>
      <point x="656" y="383" type="line"/>
      <point x="609" y="372" type="line"/>
      <point x="609" y="366" smooth="yes"/>
      <point x="609" y="347" smooth="yes"/>
      <point x="624" y="347" type="curve" smooth="yes"/>
      <point x="680" y="349" type="line"/>
      <point x="737" y="347" type="line" smooth="yes"/>
      <point x="751" y="347"/>
      <point x="751" y="366"/>
      <point x="751" y="372" type="curve"/>
      <point x="710" y="383" type="line"/>
      <point x="694" y="663" type="line"/>
      <point x="734" y="673" type="line"/>
      <point x="734" y="680" smooth="yes"/>
      <point x="734" y="700" smooth="yes"/>
      <point x="720" y="700" type="curve" smooth="yes" name="hr01"/>
      <point x="640" y="698" type="line"/>
      <point x="530" y="459" type="line"/>
      <point x="433" y="698" type="line"/>
      <point x="350" y="700" type="line" smooth="yes"/>
      <point x="336" y="700"/>
      <point x="336" y="680"/>
      <point x="336" y="673" type="curve"/>
      <point x="376" y="663" type="line" name="hr02"/>
      <point x="361" y="383" type="line"/>
      <point x="319" y="372" type="line"/>
      <point x="319" y="366" smooth="yes"/>
      <point x="319" y="347" smooth="yes"/>
      <point x="334" y="347" type="curve" smooth="yes"/>
    </contour>
    <contour>
      <point x="165" y="697" type="line"/>
      <point x="46" y="700" type="line" smooth="yes" name="hr03"/>
      <point x="35" y="700" smooth="yes"/>
      <point x="24" y="700" smooth="yes"/>
      <point x="24" y="691" type="curve" smooth="yes"/>
      <point x="24" y="691"/>
      <point x="24" y="690"/>
      <point x="30" y="606" type="curve"/>
      <point x="36" y="606" smooth="yes"/>
      <point x="62" y="606" smooth="yes"/>
      <point x="64" y="618" type="curve" smooth="yes"/>
      <point x="71" y="664" type="line"/>
      <point x="141" y="662" type="line"/>
      <point x="139" y="523" type="line"/>
      <point x="141" y="383" type="line"/>
      <point x="86" y="372" type="line"/>
      <point x="86" y="366" smooth="yes"/>
      <point x="86" y="347" smooth="yes"/>
      <point x="100" y="347" type="curve" smooth="yes"/>
      <point x="100" y="347"/>
      <point x="126" y="347"/>
      <point x="167" y="349" type="curve"/>
      <point x="212" y="347"/>
      <point x="231" y="347"/>
      <point x="231" y="347" type="curve"/>
      <point x="245" y="347"/>
      <point x="245" y="366"/>
      <point x="245" y="372" type="curve"/>
      <point x="190" y="383" type="line"/>
      <point x="192" y="523" type="line"/>
      <point x="190" y="662" type="line"/>
      <point x="261" y="664" type="line"/>
      <point x="267" y="618" type="line" smooth="yes"/>
      <point x="268" y="606"/>
      <point x="295" y="606"/>
      <point x="301" y="606" type="curve"/>
      <point x="307" y="690" smooth="yes"/>
      <point x="307" y="691" smooth="yes"/>
      <point x="307" y="691" type="curve" smooth="yes"/>
      <point x="307" y="700" smooth="yes"/>
      <point x="297" y="700" smooth="yes"/>
      <point x="285" y="700" type="curve" smooth="yes"/>
    </contour>
  </outline>
</glyph>
<glyph name="Omega" format="1">
  <advance width="747"/>
  <unicode hex="2126"/>
  <outline>
    <contour>
      <point x="689" y="0" type="line" smooth="yes" name="hr00"/>
      <point x="703" y="0"/>
      <point x="703" y="24"/>
      <point x="703" y="30" type="curve"/>
      <point x="547" y="52" type="line"/>
      <point x="532" y="128" type="line"/>
      <point x="639" y="174" smooth="yes"/>
      <point x="707" y="284" smooth="yes"/>
      <point x="707" y="416" type="curve" smooth="yes"/>
      <point x="707" y="595" smooth="yes"/>
      <point x="560" y="712" smooth="yes"/>
      <point x="379" y="712" type="curve" smooth="yes"/>
      <point x="192" y="712" smooth="yes"/>
      <point x="40" y="587" smooth="yes"/>
      <point x="40" y="409" type="curve" smooth="yes"/>
      <point x="40" y="278"/>
      <point x="106" y="169"/>
      <point x="211" y="125" type="curve"/>
      <point x="197" y="52" type="line"/>
      <point x="41" y="30" type="line"/>
      <point x="41" y="24" smooth="yes"/>
      <point x="41" y="0" smooth="yes"/>
      <point x="55" y="0" type="curve" smooth="yes"/>
      <point x="258" y="0" type="line"/>
      <point x="284" y="142" type="line"/>
      <point x="162" y="214" smooth="yes"/>
      <point x="127" y="308" smooth="yes"/>
      <point x="127" y="397" type="curve" smooth="yes"/>
      <point x="127" y="554" smooth="yes"/>
      <point x="233" y="658" smooth="yes"/>
      <point x="373" y="658" type="curve" smooth="yes"/>
      <point x="513" y="658" smooth="yes"/>
      <point x="619" y="558" smooth="yes"/>
      <point x="619" y="407" type="curve" smooth="yes"/>
      <point x="619" y="312"/>
      <point x="584" y="215"/>
      <point x="460" y="142" type="curve"/>
      <point x="486" y="0" type="line"/>
    </contour>
  </outline>
</glyph>
<glyph name="partialdiff" format="1">
  <advance width="519"/>
  <unicode hex="2202"/>
  <outline>
    <contour>
      <point x="484" y="243" type="curve" smooth="yes" name="hr00"/>
      <point x="484" y="444"/>
      <point x="395" y="638"/>
      <point x="132" y="712" type="curve"/>
      <point x="105" y="637" type="line"/>
      <point x="244" y="609"/>
      <point x="358" y="512"/>
      <point x="396" y="398" type="curve"/>
      <point x="360" y="422" smooth="yes"/>
      <point x="310" y="433" smooth="yes"/>
      <point x="272" y="433" type="curve" smooth="yes"/>
      <point x="140" y="433" smooth="yes"/>
      <point x="29" y="334" smooth="yes"/>
      <point x="29" y="197" type="curve" smooth="yes"/>
      <point x="29" y="69" smooth="yes"/>
      <point x="117" y="-12" smooth="yes"/>
      <point x="237" y="-12" type="curve" smooth="yes"/>
      <point x="392" y="-12" smooth="yes"/>
      <point x="484" y="105" smooth="yes"/>
    </contour>
    <contour>
      <point x="251" y="37" type="curve" smooth="yes"/>
      <point x="166" y="37" smooth="yes"/>
      <point x="111" y="102" smooth="yes"/>
      <point x="111" y="195" type="curve" smooth="yes"/>
      <point x="111" y="312" smooth="yes"/>
      <point x="179" y="383" smooth="yes"/>
      <point x="259" y="383" type="curve" smooth="yes"/>
      <point x="344" y="383" smooth="yes"/>
      <point x="399" y="317" smooth="yes"/>
      <point x="399" y="225" type="curve" smooth="yes"/>
      <point x="399" y="134" smooth="yes"/>
      <point x="347" y="37" smooth="yes"/>
    </contour>
  </outline>
</glyph>
<glyph name="Delta" format="1">
  <advance width="653"/>
  <unicode hex="2206"/>
  <outline>
    <contour>
      <point x="288" y="700" type="line" name="hr00"/>
      <point x="40" y="0" type="line"/>
      <point x="613" y="0" type="line"/>
      <point x="364" y="700" type="line"/>
    </contour>
    <contour>
      <point x="313" y="619" type="line"/>
      <point x="510" y="58" type="line"/>
      <point x="121" y="58" type="line"/>
    </contour>
  </outline>
</glyph>
<glyph name="product" format="1">
  <advance width="680"/>
  <unicode hex="220F"/>
  <outline>
    <contour>
      <point x="467" y="132" type="line" smooth="yes"/>
      <point x="467" y="38"/>
      <point x="485" y="5"/>
      <point x="555" y="-86" type="curve"/>
      <point x="584" y="-66" type="line"/>
      <point x="549" y="14" smooth="yes"/>
      <point x="542" y="14" smooth="yes"/>
      <point x="542" y="128" type="curve" smooth="yes"/>
      <point x="542" y="639" type="line"/>
      <point x="615" y="639" type="line" smooth="yes"/>
      <point x="630" y="639" smooth="yes"/>
      <point x="630" y="670" smooth="yes"/>
      <point x="630" y="678" type="curve" smooth="yes"/>
      <point x="630" y="679" smooth="yes"/>
      <point x="500" y="700" smooth="yes"/>
      <point x="483" y="700" type="curve" smooth="yes"/>
      <point x="197" y="700" type="line" smooth="yes"/>
      <point x="180" y="700" smooth="yes"/>
      <point x="50" y="679" smooth="yes"/>
      <point x="50" y="678" type="curve" smooth="yes"/>
      <point x="50" y="670" smooth="yes"/>
      <point x="50" y="639" smooth="yes"/>
      <point x="65" y="639" type="curve" smooth="yes"/>
      <point x="139" y="639" type="line"/>
      <point x="139" y="-73" type="line" name="hr01"/>
      <point x="214" y="-73" type="line"/>
      <point x="214" y="639" type="line"/>
      <point x="466" y="639" type="line"/>
    </contour>
  </outline>
</glyph>
<glyph name="radical" format="1">
  <advance width="453"/>
  <unicode hex="221A"/>
  <outline>
    <contour>
      <point x="261" y="-126" type="line" name="hr00"/>
      <point x="449" y="643" type="line"/>
      <point x="492" y="647" smooth="yes"/>
      <point x="603" y="662" smooth="yes"/>
      <point x="603" y="663" type="curve" smooth="yes"/>
      <point x="603" y="670" smooth="yes"/>
      <point x="603" y="700" smooth="yes"/>
      <point x="589" y="700" type="curve" smooth="yes"/>
      <point x="402" y="700" type="line"/>
      <point x="220" y="-45" type="line"/>
      <point x="82" y="350" type="line"/>
      <point x="0" y="350" type="line"/>
      <point x="169" y="-126" type="line"/>
    </contour>
  </outline>
</glyph>
<glyph name="infinity" format="1">
  <advance width="748"/>
  <unicode hex="221E"/>
  <outline>
    <contour>
      <point x="544" y="100" type="curve" smooth="yes" name="hr00"/>
      <point x="631" y="100" smooth="yes"/>
      <point x="698" y="172" smooth="yes"/>
      <point x="698" y="274" type="curve" smooth="yes"/>
      <point x="698" y="388" smooth="yes"/>
      <point x="629" y="454" smooth="yes"/>
      <point x="547" y="454" type="curve" smooth="yes"/>
      <point x="469" y="454" smooth="yes"/>
      <point x="414" y="410" smooth="yes"/>
      <point x="375" y="348" type="curve" smooth="yes"/>
      <point x="369" y="339" type="line"/>
      <point x="326" y="399" smooth="yes"/>
      <point x="278" y="454" smooth="yes"/>
      <point x="204" y="454" type="curve" smooth="yes"/>
      <point x="117" y="454" smooth="yes"/>
      <point x="50" y="382" smooth="yes"/>
      <point x="50" y="280" type="curve" smooth="yes"/>
      <point x="50" y="166" smooth="yes"/>
      <point x="119" y="100" smooth="yes"/>
      <point x="201" y="100" type="curve" smooth="yes"/>
      <point x="279" y="100" smooth="yes"/>
      <point x="334" y="144" smooth="yes"/>
      <point x="373" y="206" type="curve" smooth="yes"/>
      <point x="379" y="216" type="line"/>
      <point x="422" y="155" smooth="yes"/>
      <point x="470" y="100" smooth="yes"/>
    </contour>
    <contour>
      <point x="201" y="175" type="curve" smooth="yes"/>
      <point x="141" y="175" smooth="yes"/>
      <point x="99" y="218" smooth="yes"/>
      <point x="99" y="279" type="curve" smooth="yes"/>
      <point x="99" y="340" smooth="yes"/>
      <point x="142" y="378" smooth="yes"/>
      <point x="201" y="378" type="curve" smooth="yes"/>
      <point x="257" y="378"/>
      <point x="296" y="335"/>
      <point x="333" y="283" type="curve"/>
      <point x="318" y="259" type="line" smooth="yes"/>
      <point x="291" y="216" smooth="yes"/>
      <point x="252" y="175" smooth="yes"/>
    </contour>
    <contour>
      <point x="547" y="379" type="curve" smooth="yes"/>
      <point x="607" y="379" smooth="yes"/>
      <point x="649" y="336" smooth="yes"/>
      <point x="649" y="275" type="curve" smooth="yes"/>
      <point x="649" y="214" smooth="yes"/>
      <point x="606" y="176" smooth="yes"/>
      <point x="547" y="176" type="curve" smooth="yes"/>
      <point x="492" y="176"/>
      <point x="453" y="219"/>
      <point x="415" y="272" type="curve"/>
      <point x="430" y="295" type="line" smooth="yes"/>
      <point x="457" y="338" smooth="yes"/>
      <point x="496" y="379" smooth="yes"/>
    </contour>
  </outline>
</glyph>
<glyph name="approxequal" format="1">
  <advance width="510"/>
  <unicode hex="2248"/>
  <outline>
    <contour>
      <point x="423" y="399" type="line"/>
      <point x="400" y="381" smooth="yes"/>
      <point x="375" y="372" smooth="yes"/>
      <point x="345" y="372" type="curve" smooth="yes"/>
      <point x="289" y="372" smooth="yes"/>
      <point x="228" y="397" smooth="yes"/>
      <point x="168" y="397" type="curve" smooth="yes" name="hr01"/>
      <point x="131" y="397"/>
      <point x="95" y="386"/>
      <point x="65" y="353" type="curve"/>
      <point x="88" y="313" type="line" name="hr02"/>
      <point x="111" y="331" smooth="yes"/>
      <point x="135" y="338" smooth="yes"/>
      <point x="164" y="338" type="curve" smooth="yes" name="hr03"/>
      <point x="219" y="338" smooth="yes"/>
      <point x="281" y="313" smooth="yes"/>
      <point x="341" y="313" type="curve" smooth="yes" name="hr04"/>
      <point x="377" y="313"/>
      <point x="414" y="324"/>
      <point x="445" y="359" type="curve"/>
    </contour>
    <contour>
      <point x="423" y="241" type="line"/>
      <point x="400" y="223" smooth="yes"/>
      <point x="375" y="214" smooth="yes"/>
      <point x="345" y="214" type="curve" smooth="yes"/>
      <point x="289" y="214" smooth="yes"/>
      <point x="228" y="239" smooth="yes"/>
      <point x="168" y="239" type="curve" smooth="yes" name="hr05"/>
      <point x="131" y="239"/>
      <point x="95" y="228"/>
      <point x="65" y="195" type="curve"/>
      <point x="88" y="155" type="line" name="hr06"/>
      <point x="111" y="173" smooth="yes"/>
      <point x="135" y="180" smooth="yes"/>
      <point x="164" y="180" type="curve" smooth="yes" name="hr07"/>
      <point x="219" y="180" smooth="yes"/>
      <point x="281" y="155" smooth="yes"/>
      <point x="341" y="155" type="curve" smooth="yes" name="hr08"/>
      <point x="377" y="155"/>
      <point x="414" y="166"/>
      <point x="445" y="201" type="curve"/>
    </contour>
  </outline>
</glyph>
<glyph name="Acutesmall" format="1">
  <advance width="317"/>
  <outline>
    <contour>
      <point x="61" y="548" type="line" name="hr00"/>
      <point x="97" y="558" smooth="yes"/>
      <point x="195" y="588" smooth="yes"/>
      <point x="262" y="631" type="curve" smooth="yes"/>
      <point x="266" y="633" smooth="yes"/>
      <point x="267" y="638" smooth="yes"/>
      <point x="267" y="643" type="curve" smooth="yes"/>
      <point x="267" y="663"/>
      <point x="247" y="704"/>
      <point x="242" y="710" type="curve"/>
      <point x="147" y="633"/>
      <point x="50" y="567"/>
      <point x="50" y="567" type="curve"/>
    </contour>
  </outline>
</glyph>
<glyph name="Brevesmall" format="1">
  <advance width="335"/>
  <outline>
    <contour>
      <point x="166" y="607" type="curve" smooth="yes" name="hr00"/>
      <point x="128" y="607"/>
      <point x="99" y="643"/>
      <point x="77" y="699" type="curve"/>
      <point x="43" y="691" type="line"/>
      <point x="75" y="594" smooth="yes"/>
      <point x="106" y="540" smooth="yes"/>
      <point x="166" y="540" type="curve" smooth="yes"/>
      <point x="226" y="540"/>
      <point x="257" y="594"/>
      <point x="289" y="691" type="curve"/>
      <point x="255" y="699" type="line"/>
      <point x="233" y="643" smooth="yes"/>
      <point x="204" y="607" smooth="yes"/>
    </contour>
  </outline>
</glyph>
<glyph name="Caronsmall" format="1">
  <advance width="335"/>
  <outline>
    <contour>
      <point x="166" y="613" type="line" name="hr00"/>
      <point x="76" y="715" type="line"/>
      <point x="49" y="698" type="line"/>
      <point x="109" y="604"/>
      <point x="138" y="539" type="qcurve"/>
      <point x="183" y="539" type="line"/>
      <point x="222" y="604"/>
      <point x="294" y="698" type="qcurve"/>
      <point x="269" y="715" type="line"/>
    </contour>
  </outline>
</glyph>
<glyph name="Circumflexsmall" format="1">
  <advance width="335"/>
  <outline>
    <contour>
      <point x="168" y="641" type="line" name="hr00"/>
      <point x="264" y="539" type="line"/>
      <point x="290" y="556" type="line"/>
      <point x="224" y="650"/>
      <point x="190" y="715" type="qcurve"/>
      <point x="145" y="715" type="line"/>
      <point x="111" y="650"/>
      <point x="45" y="556" type="qcurve"/>
      <point x="71" y="539" type="line"/>
    </contour>
  </outline>
</glyph>
<glyph name="Dieresissmall" format="1">
  <advance width="374"/>
  <outline>
    <contour>
      <point x="126" y="689" type="curve" name="hr00"/>
      <point x="149" y="689" smooth="yes"/>
      <point x="157" y="663" smooth="yes"/>
      <point x="157" y="636" type="curve" smooth="yes"/>
      <point x="157" y="611"/>
      <point x="152" y="586"/>
      <point x="151" y="583" type="curve"/>
      <point x="151" y="583" smooth="yes"/>
      <point x="119" y="574" smooth="yes"/>
      <point x="102" y="574" type="curve" smooth="yes"/>
      <point x="76" y="574" smooth="yes"/>
      <point x="70" y="600" smooth="yes"/>
      <point x="70" y="626" type="curve" smooth="yes"/>
      <point x="70" y="653"/>
      <point x="76" y="679"/>
      <point x="77" y="682" type="curve"/>
      <point x="77" y="682"/>
      <point x="110" y="689"/>
    </contour>
    <contour>
      <point x="274" y="689" type="curve"/>
      <point x="297" y="689" smooth="yes"/>
      <point x="305" y="663" smooth="yes"/>
      <point x="305" y="636" type="curve" smooth="yes"/>
      <point x="305" y="611"/>
      <point x="300" y="586"/>
      <point x="299" y="583" type="curve"/>
      <point x="299" y="583" smooth="yes"/>
      <point x="267" y="574" smooth="yes"/>
      <point x="250" y="574" type="curve" smooth="yes"/>
      <point x="224" y="574" smooth="yes"/>
      <point x="218" y="600" smooth="yes"/>
      <point x="218" y="626" type="curve" smooth="yes"/>
      <point x="218" y="653"/>
      <point x="224" y="679"/>
      <point x="225" y="682" type="curve"/>
      <point x="225" y="682"/>
      <point x="258" y="689"/>
    </contour>
  </outline>
</glyph>
<glyph name="Dotaccentsmall" format="1">
  <advance width="217"/>
  <outline>
    <contour>
      <point x="121" y="692" type="curve" smooth="yes" name="hr00"/>
      <point x="102" y="692"/>
      <point x="70" y="685"/>
      <point x="70" y="685" type="curve"/>
      <point x="70" y="685" smooth="yes"/>
      <point x="62" y="655" smooth="yes"/>
      <point x="62" y="626" type="curve" smooth="yes"/>
      <point x="62" y="599" smooth="yes"/>
      <point x="69" y="571" smooth="yes"/>
      <point x="97" y="571" type="curve" smooth="yes"/>
      <point x="117" y="571"/>
      <point x="148" y="580"/>
      <point x="148" y="580" type="curve"/>
      <point x="148" y="580" smooth="yes"/>
      <point x="155" y="609" smooth="yes"/>
      <point x="155" y="636" type="curve" smooth="yes"/>
      <point x="155" y="665" smooth="yes"/>
      <point x="146" y="692" smooth="yes"/>
    </contour>
  </outline>
</glyph>
<glyph name="Gravesmall" format="1">
  <advance width="317"/>
  <outline>
    <contour>
      <point x="267" y="567" type="line" name="hr00"/>
      <point x="267" y="567"/>
      <point x="170" y="633"/>
      <point x="75" y="710" type="curve"/>
      <point x="70" y="704" smooth="yes"/>
      <point x="50" y="663" smooth="yes"/>
      <point x="50" y="643" type="curve" smooth="yes"/>
      <point x="50" y="638" smooth="yes"/>
      <point x="51" y="633" smooth="yes"/>
      <point x="55" y="631" type="curve" smooth="yes"/>
      <point x="122" y="588"/>
      <point x="220" y="558"/>
      <point x="256" y="548" type="curve"/>
    </contour>
  </outline>
</glyph>
<glyph name="Macronsmall" format="1">
  <advance width="421"/>
  <outline>
    <contour>
      <point x="70" y="600" type="line" name="hr00"/>
      <point x="351" y="600" type="line"/>
      <point x="351" y="663" type="line"/>
      <point x="70" y="663" type="line"/>
    </contour>
  </outline>
</glyph>
<glyph name="Ringsmall" format="1">
  <advance width="285"/>
  <outline>
    <contour>
      <point x="235" y="636" type="curve" smooth="yes" name="hr00"/>
      <point x="235" y="693" smooth="yes"/>
      <point x="194" y="721" smooth="yes"/>
      <point x="144" y="721" type="curve" smooth="yes"/>
      <point x="93" y="721" smooth="yes"/>
      <point x="50" y="690" smooth="yes"/>
      <point x="50" y="634" type="curve" smooth="yes"/>
      <point x="50" y="574" smooth="yes"/>
      <point x="89" y="545" smooth="yes"/>
      <point x="140" y="545" type="curve" smooth="yes"/>
      <point x="196" y="545" smooth="yes"/>
      <point x="235" y="574" smooth="yes"/>
    </contour>
    <contour>
      <point x="96" y="634" type="curve" smooth="yes"/>
      <point x="96" y="656"/>
      <point x="103" y="677"/>
      <point x="116" y="683" type="curve"/>
      <point x="122" y="686" smooth="yes"/>
      <point x="133" y="688" smooth="yes"/>
      <point x="143" y="688" type="curve" smooth="yes"/>
      <point x="169" y="688" smooth="yes"/>
      <point x="189" y="669" smooth="yes"/>
      <point x="189" y="634" type="curve" smooth="yes"/>
      <point x="189" y="595" smooth="yes"/>
      <point x="169" y="578" smooth="yes"/>
      <point x="143" y="578" type="curve" smooth="yes"/>
      <point x="118" y="578" smooth="yes"/>
      <point x="96" y="595" smooth="yes"/>
    </contour>
  </outline>
</glyph>
<glyph name="Tildesmall" format="1">
  <advance width="416"/>
  <outline>
    <contour>
      <point x="349" y="681" type="line"/>
      <point x="329" y="662" smooth="yes"/>
      <point x="309" y="651" smooth="yes"/>
      <point x="287" y="651" type="curve" smooth="yes"/>
      <point x="240" y="651" smooth="yes"/>
      <point x="199" y="678" smooth="yes"/>
      <point x="151" y="678" type="curve" smooth="yes" name="hr01"/>
      <point x="118" y="678"/>
      <point x="84" y="662"/>
      <point x="50" y="603" type="curve"/>
      <point x="67" y="584" type="line"/>
      <point x="87" y="603" smooth="yes"/>
      <point x="107" y="614" smooth="yes"/>
      <point x="129" y="614" type="curve" smooth="yes"/>
      <point x="176" y="614" smooth="yes"/>
      <point x="217" y="587" smooth="yes"/>
      <point x="265" y="587" type="curve" smooth="yes" name="hr02"/>
      <point x="298" y="587"/>
      <point x="332" y="603"/>
      <point x="366" y="662" type="curve"/>
    </contour>
  </outline>
</glyph>
<glyph name="acute.case" format="1">
  <advance width="317"/>
  <outline>
    <contour>
      <point x="61" y="762" type="line" name="hr00"/>
      <point x="97" y="772" smooth="yes"/>
      <point x="195" y="802" smooth="yes"/>
      <point x="262" y="845" type="curve" smooth="yes"/>
      <point x="266" y="847" smooth="yes"/>
      <point x="267" y="852" smooth="yes"/>
      <point x="267" y="857" type="curve" smooth="yes"/>
      <point x="267" y="877"/>
      <point x="247" y="918"/>
      <point x="242" y="924" type="curve"/>
      <point x="147" y="847"/>
      <point x="50" y="781"/>
      <point x="50" y="781" type="curve"/>
    </contour>
  </outline>
</glyph>
<glyph name="breve.case" format="1">
  <advance width="335"/>
  <outline>
    <contour>
      <point x="166" y="821" type="curve" smooth="yes" name="hr00"/>
      <point x="128" y="821"/>
      <point x="99" y="857"/>
      <point x="77" y="913" type="curve"/>
      <point x="43" y="905" type="line"/>
      <point x="75" y="808" smooth="yes"/>
      <point x="106" y="754" smooth="yes"/>
      <point x="166" y="754" type="curve" smooth="yes"/>
      <point x="226" y="754"/>
      <point x="257" y="808"/>
      <point x="289" y="905" type="curve"/>
      <point x="255" y="913" type="line"/>
      <point x="233" y="857" smooth="yes"/>
      <point x="204" y="821" smooth="yes"/>
    </contour>
  </outline>
</glyph>
<glyph name="caron.case" format="1">
  <advance width="335"/>
  <outline>
    <contour>
      <point x="166" y="827" type="line" name="hr00"/>
      <point x="76" y="929" type="line"/>
      <point x="49" y="912" type="line"/>
      <point x="89" y="849"/>
      <point x="119" y="796"/>
      <point x="138" y="753" type="curve"/>
      <point x="183" y="753" type="line"/>
      <point x="209" y="796"/>
      <point x="246" y="849"/>
      <point x="294" y="912" type="curve"/>
      <point x="269" y="929" type="line"/>
    </contour>
  </outline>
</glyph>
<glyph name="circumflex.case" format="1">
  <advance width="335"/>
  <outline>
    <contour>
      <point x="168" y="855" type="line" name="hr00"/>
      <point x="264" y="753" type="line"/>
      <point x="290" y="770" type="line"/>
      <point x="246" y="833"/>
      <point x="213" y="886"/>
      <point x="190" y="929" type="curve"/>
      <point x="145" y="929" type="line"/>
      <point x="122" y="886"/>
      <point x="89" y="833"/>
      <point x="45" y="770" type="curve"/>
      <point x="71" y="753" type="line"/>
    </contour>
  </outline>
</glyph>
<glyph name="commaaccent" format="1">
  <advance width="197"/>
  <outline>
    <contour>
      <point x="49" y="-307" type="line" name="hr00"/>
      <point x="114" y="-285" smooth="yes"/>
      <point x="161" y="-226" smooth="yes"/>
      <point x="161" y="-159" type="curve" smooth="yes"/>
      <point x="161" y="-95" smooth="yes"/>
      <point x="142" y="-50" smooth="yes"/>
      <point x="115" y="-50" type="curve" smooth="yes"/>
      <point x="97" y="-50"/>
      <point x="74" y="-53"/>
      <point x="56" y="-57" type="curve"/>
      <point x="51" y="-81" smooth="yes"/>
      <point x="48" y="-103" smooth="yes"/>
      <point x="48" y="-122" type="curve" smooth="yes"/>
      <point x="48" y="-162" smooth="yes"/>
      <point x="60" y="-182" smooth="yes"/>
      <point x="85" y="-182" type="curve" smooth="yes"/>
      <point x="91" y="-182"/>
      <point x="94" y="-182"/>
      <point x="101" y="-181" type="curve"/>
      <point x="101" y="-186" type="line" smooth="yes"/>
      <point x="101" y="-226"/>
      <point x="77" y="-259"/>
      <point x="37" y="-277" type="curve"/>
    </contour>
  </outline>
</glyph>
